<svg width="62" height="69" viewBox="0 0 62 69" fill="none" xmlns="http://www.w3.org/2000/svg">
<path d="M28.2011 1.07037C27.2107 1.56226 27.0385 1.84144 26.4069 3.95526L25.9476 5.49742L25.0864 5.97602C24.5984 6.24191 24.1391 6.45462 24.053 6.45462C23.9669 6.45462 23.0482 6.2685 22.0004 6.0292C19.1728 5.39107 18.9001 5.51072 17.2064 8.23608C15.484 10.988 15.4984 11.2406 17.6227 13.288L19.0149 14.6307V15.6677L19.0006 16.7047L17.6801 17.9278C16.9624 18.6058 16.2735 19.3769 16.1443 19.6427L15.929 20.1346L9.08242 20.1745L2.22152 20.2144L1.54691 20.5867C1.10196 20.826 0.72877 21.1716 0.470409 21.5837C0.0972222 22.1687 0.0685155 22.3282 0.011102 24.0565C-0.0463114 26.2501 0.111576 27.0744 0.743123 27.779C1.41773 28.5367 2.12105 28.7893 3.62815 28.7893H4.87689V32.1661C4.87689 34.28 4.9343 35.6892 5.03478 35.9551C5.30749 36.673 6.16869 36.8724 6.71412 36.3273C7.01554 36.0348 7.02989 35.9019 7.0586 32.4453L7.10166 28.8558L16.9481 28.8159L26.7945 28.7893L27.1389 29.2812C27.8566 30.2916 27.9714 30.3182 31 30.3182C34.0286 30.3182 34.1434 30.2916 34.8611 29.2812L35.2055 28.7893L45.0519 28.8159L54.8983 28.8558V45.8063V62.7567H48.3676H41.8368L41.7937 54.1685L41.765 45.567L42.3822 45.434C43.2147 45.2346 43.8893 44.7959 44.406 44.1046C44.7792 43.6127 44.851 43.3734 44.8941 42.5491C44.9515 41.685 44.9084 41.4989 44.5496 40.9006C44.0903 40.1029 43.43 39.5977 42.5114 39.3452C41.5497 39.0793 20.4503 39.0793 19.4886 39.3452C18.57 39.5977 17.9097 40.1029 17.4504 40.9006C17.0916 41.4989 17.0485 41.685 17.1059 42.5491C17.149 43.3734 17.2208 43.6127 17.594 44.1046C18.1107 44.7959 18.7853 45.2346 19.6178 45.434L20.235 45.567L20.2063 54.1685L20.1632 62.7567H13.6324H7.10166L7.0586 50.9645L7.02989 39.1723L6.65671 38.9064C5.99645 38.4278 5.32184 38.614 5.02042 39.3452C4.91995 39.5845 4.87689 43.5861 4.87689 51.2703V62.8232H2.9966H1.11631L0.64265 63.2619C0.0541621 63.807 -0.0606647 64.3786 0.0254554 66.3728C0.0828688 67.9549 0.269463 68.3936 1.01584 68.7525C1.60432 69.0317 60.1804 69.0317 60.898 68.7525C61.7162 68.4468 61.9171 67.9947 61.9745 66.3728C62.0607 64.3786 61.9458 63.807 61.3573 63.2619L60.8837 62.8232H59.0034H57.1231V45.8063V28.7893H58.3862C59.879 28.7893 60.5823 28.5367 61.2569 27.779C61.8884 27.0744 62.0463 26.2501 61.9889 24.0565C61.9315 22.3282 61.9028 22.1687 61.5296 21.5837C61.2712 21.1716 60.898 20.826 60.4531 20.5867L59.7785 20.2144L56.3911 20.1745L53.0037 20.1346L52.6018 20.4537C52.0851 20.8658 52.042 21.5438 52.5157 21.9028C52.8171 22.1155 53.1472 22.1421 56.0035 22.1421H59.1469L59.4914 22.4745C59.8359 22.7802 59.8502 22.8733 59.8502 24.4952C59.8502 25.8247 59.8072 26.2634 59.6206 26.5027L59.4053 26.7952H47.5494C36.7701 26.7952 35.7079 26.7819 35.794 26.5825C35.8371 26.4628 35.9232 26.2235 35.9663 26.0507C36.0237 25.838 36.3538 25.5854 36.9997 25.253L37.9614 24.7611L39.8273 25.1998C42.6693 25.8778 43.1142 25.7183 44.4778 23.5513L45.3677 22.1421H47.3628C49.1857 22.1421 49.401 22.1155 49.6594 21.8762C50.09 21.4774 50.0469 20.7728 49.5732 20.4271C49.2431 20.1878 48.9848 20.1479 47.6355 20.1479H46.071L45.8557 19.6427C45.7265 19.3769 45.0376 18.6058 44.3199 17.9278L42.9994 16.7047L42.9851 15.6677V14.6307L44.3773 13.288C46.5016 11.2406 46.516 10.988 44.7936 8.23608C43.6453 6.40145 43.2578 5.98932 42.4683 5.76331C41.9373 5.63037 41.6789 5.65696 39.9996 6.0292C38.9518 6.2685 38.0331 6.45462 37.947 6.45462C37.8609 6.45462 37.4016 6.24191 36.9136 5.97602L36.0524 5.49742L35.5787 3.90208C35.0907 2.22698 34.7893 1.68191 34.1147 1.2166C33.7415 0.964005 33.4831 0.937416 31.1722 0.897537C29.0623 0.870949 28.5599 0.897537 28.2011 1.07037ZM33.598 4.72634C33.885 5.71013 34.1721 6.62745 34.2295 6.7604C34.2869 6.89334 34.7319 7.18582 35.2199 7.41183C35.6935 7.63783 36.3682 7.99678 36.6983 8.1962C37.0284 8.40891 37.4447 8.58174 37.6313 8.58174C37.8178 8.58174 38.8226 8.36903 39.8847 8.11643C40.9325 7.86384 41.8511 7.67772 41.9086 7.7176C41.966 7.75748 42.454 8.47538 42.9851 9.31293L43.9467 10.8551L42.3679 12.3574L40.789 13.8464L40.8177 15.6677L40.8321 17.489L42.3966 18.9381L43.9467 20.3872L43.1286 21.7433C42.6693 22.4745 42.1956 23.2057 42.0664 23.3652L41.8224 23.6311L39.8704 23.1525C38.8082 22.8866 37.8035 22.6739 37.6456 22.6739C37.5021 22.6739 36.9854 22.9132 36.5117 23.1924C36.038 23.4848 35.3491 23.8438 34.9902 24.0033C34.617 24.1629 34.2869 24.3889 34.2295 24.5085C34.1721 24.6282 33.885 25.5455 33.598 26.5293L33.0669 28.324H31H28.9331L28.402 26.5293C28.115 25.5455 27.8279 24.6282 27.7705 24.5085C27.7131 24.3756 27.3399 24.123 26.938 23.9501C26.5218 23.764 25.8328 23.4051 25.4022 23.1525C24.9716 22.8866 24.5123 22.6739 24.3687 22.6739C24.2252 22.6739 23.2348 22.8866 22.1583 23.1525C20.522 23.5513 20.1632 23.5912 20.0197 23.445C19.9049 23.3519 19.4312 22.6207 18.9432 21.823L18.0389 20.3872L19.6034 18.9381L21.1679 17.489L21.1823 15.6677L21.211 13.8464L19.6321 12.3574L18.0533 10.8551L19.0149 9.31293C19.546 8.47538 20.034 7.75748 20.0914 7.7176C20.1632 7.67772 21.0818 7.85054 22.1296 8.11643C23.1774 8.36903 24.1822 8.58174 24.3687 8.58174C24.5553 8.58174 24.9716 8.40891 25.3017 8.1962C25.6318 7.99678 26.2921 7.63783 26.7801 7.41183C27.7848 6.94652 27.7705 6.97311 28.4164 4.72634C28.6604 3.88879 28.8901 3.11771 28.9188 3.02465C28.9762 2.89171 29.4642 2.86512 31.0287 2.89171L33.0669 2.93159L33.598 4.72634ZM17.5078 23.538C18.8714 25.705 19.3738 25.8778 22.2157 25.1998L24.053 24.7611L25.0003 25.253C25.6462 25.5854 25.9763 25.838 26.0337 26.0507C26.0768 26.2235 26.1629 26.4628 26.206 26.5825C26.2921 26.7819 25.23 26.7952 14.4506 26.7952H2.59471L2.37941 26.5027C2.19281 26.2634 2.14975 25.8247 2.14975 24.4952C2.14975 22.8733 2.16411 22.7802 2.50859 22.4745L2.85307 22.1421H9.74268H16.6323L17.5078 23.538ZM42.3966 41.5387C43.0999 42.1503 42.7985 43.267 41.8798 43.4797C41.6933 43.5196 36.6552 43.5329 30.6699 43.5196L19.7757 43.4797L19.503 43.1607C19.1154 42.7219 19.1441 41.9376 19.5604 41.5919C19.7326 41.4457 19.9766 41.2861 20.0914 41.2463C20.2063 41.2064 25.2012 41.1798 31.1722 41.1931L42.0234 41.2197L42.3966 41.5387ZM29.8517 54.1818V62.8232H26.1199H22.388V54.1818V45.5404H26.1199H29.8517V54.1818ZM39.612 54.1818V62.8232H35.8801H32.1483V54.1818V45.5404H35.8801H39.612V54.1818ZM59.8502 65.8809V66.9445H31H2.14975V65.8809V64.8174H31H59.8502V65.8809Z" fill="#D98029"/>
<path d="M31.289 11.2525C29.5379 11.7618 28.274 12.7803 27.5127 14.2799C27.0711 15.1428 27.0254 15.3409 27.0254 16.6424C27.0254 17.9297 27.0711 18.1419 27.4974 18.9766C28.1522 20.2781 28.7765 20.8722 30.0861 21.4805C34.0147 23.2771 38.5219 20.9288 38.796 16.9253C38.9331 15.0155 37.9737 13.0067 36.4967 12.0871C35.0349 11.1676 32.7813 10.8139 31.289 11.2525ZM34.8369 13.6574C35.5678 13.9969 35.7049 14.1384 36.116 14.9589C36.5272 15.7794 36.5728 15.9916 36.4967 16.798C36.451 17.477 36.314 17.8873 35.979 18.3824C34.441 20.7025 30.3906 20.4054 29.477 17.9014C28.9136 16.3594 29.3399 14.874 30.6342 13.8979C31.7306 13.0774 33.3904 12.9784 34.8369 13.6574Z" fill="#D98029"/>
<path d="M9.78751 49.5329C9.52865 49.6743 9.2241 49.929 9.14797 50.0846C9.04138 50.2685 8.98047 51.9661 8.98047 54.8945V59.4072L9.37638 59.8458C9.58956 60.0863 10.0159 60.3409 10.3205 60.4258C11.1275 60.6239 17.7513 60.5956 18.4213 60.3834C18.7106 60.2843 19.0913 60.0014 19.2893 59.7326C19.6395 59.2516 19.6395 59.195 19.6395 54.852C19.6395 50.7353 19.6243 50.4241 19.3502 50.0422C18.802 49.2782 18.6802 49.2641 14.31 49.2499C10.5793 49.2499 10.2443 49.2782 9.78751 49.5329ZM17.3554 54.9086V58.4453H14.31H11.2645V54.9086V51.3719H14.31H17.3554V54.9086Z" fill="#D98029"/>
<path d="M47.0327 49.4914C46.1495 50.0007 46.1342 50.0997 46.1342 54.8813C46.1342 60.8936 45.8145 60.5541 51.3876 60.5541C53.3367 60.5683 55.1335 60.4975 55.4533 60.4268C55.7578 60.3419 56.1842 60.0873 56.3974 59.8468L56.7933 59.4082V54.853C56.7933 49.8734 56.7933 49.9017 55.8796 49.4631C55.1944 49.1378 47.5961 49.1661 47.0327 49.4914ZM54.5092 54.9096V58.4463H51.4638H48.4183V54.9096V51.3729H51.4638H54.5092V54.9096Z" fill="#D98029"/>
</svg>
