<svg width="62" height="64" viewBox="0 0 62 64" fill="none" xmlns="http://www.w3.org/2000/svg">
<path d="M7.79282 0.512707C7.52141 0.792534 5.70299 2.92456 3.74887 5.25645L0.207031 9.49385V35.6511V61.8217L0.586999 62.5279C0.885545 63.1009 1.10267 63.3141 1.68619 63.6072L2.40542 63.9803H26.1263H49.8471L50.5663 63.6072C51.1499 63.3141 51.367 63.1009 51.6655 62.5279L52.0455 61.8217V57.4644V53.0937L53.1718 52.8672C56.3473 52.1876 58.8171 50.3221 60.1877 47.5238C61.0426 45.8049 61.3411 44.419 61.2326 42.6601C61.1376 41.1411 60.8798 40.115 60.242 38.8358C58.9256 36.1441 56.1844 34.0521 53.2261 33.4924L52.0455 33.2659V17.7288V2.17835L51.6655 1.47211C51.367 0.899136 51.1499 0.685932 50.5663 0.39278L49.8471 0.0196762H29.0574H8.26778L7.79282 0.512707ZM49.9692 2.0451L50.2814 2.32492V17.8354V33.3325H49.9828C49.3179 33.3325 47.8251 33.7856 46.6174 34.3719C45.5453 34.8916 45.1382 35.1847 44.0933 36.1974C43.0755 37.1835 42.7499 37.6099 42.2478 38.6093C41.6914 39.7019 41.3386 40.8479 41.1214 42.3003L41.04 42.7934H24.3078C8.02351 42.7934 7.57569 42.8067 7.345 43.0466C6.99217 43.4197 7.10073 44.1392 7.53498 44.3524C7.80639 44.4857 11.4161 44.5256 24.5114 44.5256H41.1621L41.3657 45.4451C41.4878 45.9514 41.7728 46.7643 41.9899 47.244L42.397 48.1234H25.0678C5.81156 48.1234 7.12787 48.0568 7.12787 48.9896C7.12787 49.9223 5.74371 49.8557 25.6784 49.8557H43.6319L44.5818 50.6419C46.0474 51.8545 47.893 52.6806 49.7793 52.9871L50.2814 53.0671V57.3444C50.2814 61.5685 50.2814 61.6351 49.9828 61.9416L49.6978 62.2481H26.1398H2.5954L2.28328 61.9549L1.97117 61.6751V36.1708V10.6798H4.56309C7.57569 10.6798 8.03708 10.5865 8.83773 9.81365C9.62481 9.04079 9.70623 8.57441 9.70623 4.89668V1.75194H29.6817H49.6571L49.9692 2.0451ZM7.87424 8.24129C7.72497 8.86757 7.33143 8.96085 5.06519 8.92087L2.9618 8.88089L5.41802 5.96269L7.87424 3.03116L7.91495 5.49631C7.92852 6.84215 7.91495 8.08139 7.87424 8.24129ZM52.8326 35.1447C54.5289 35.4779 55.7366 36.1308 57.0122 37.3834C58.7085 39.049 59.5092 40.9012 59.5092 43.1398C59.5092 46.9375 56.9172 50.2022 53.1447 51.1349C51.8419 51.4547 49.6978 51.3481 48.3951 50.8817C44.4461 49.5092 42.1392 45.4184 43.0348 41.4209C43.7405 38.2628 46.2646 35.8243 49.5214 35.1314C50.6478 34.8916 51.5841 34.8916 52.8326 35.1447Z" fill="#D98029"/>
<path d="M25.1762 7.89479C24.9862 7.96142 24.5384 8.22792 24.1584 8.45445C23.507 8.86753 23.4392 8.88086 21.9872 8.88086C20.6301 8.88086 20.4537 8.90751 20.033 9.20066C19.7888 9.37389 19.3138 9.93354 18.9881 10.4266C18.4453 11.2394 18.3232 11.346 17.6854 11.5459C15.962 12.0922 15.3649 12.7585 15.1885 14.3442C15.0799 15.3302 14.9035 15.6634 14.1707 16.3429C13.5872 16.8893 13.1122 17.7288 13.0986 18.2085C13.0986 18.355 13.2615 18.9946 13.4515 19.6342L13.7907 20.7935L13.4515 21.8729C13.2615 22.4725 13.0986 23.0855 13.0986 23.2454C13.1122 23.765 13.6007 24.6312 14.3607 25.4307C15.0392 26.1636 15.0935 26.2835 15.1749 27.0563C15.3106 28.3089 15.6634 28.9752 16.4234 29.4016C16.8712 29.6681 17.0204 29.828 16.9662 29.9879C16.9255 30.0945 16.0977 31.5469 15.1206 33.2126C14.1571 34.8782 13.37 36.3173 13.37 36.4106C13.37 36.5172 13.465 36.7437 13.5872 36.9036C13.8586 37.2901 14.3607 37.2767 16.2469 36.877L17.699 36.5572L18.2689 38.2228C18.676 39.4487 18.9067 39.9284 19.151 40.0883C19.8431 40.5281 20.0602 40.2749 22.2179 36.5438L24.2263 33.106L24.8641 33.4124C25.6919 33.8255 26.5604 33.8255 27.3881 33.4124L28.0259 33.106L30.0343 36.5438C32.192 40.2749 32.4091 40.5281 33.1012 40.0883C33.3455 39.9284 33.5762 39.4487 33.9833 38.2228L34.5532 36.5572L36.0731 36.877C38.0001 37.2767 38.3936 37.2767 38.665 36.9036C38.7872 36.7437 38.8822 36.5172 38.8822 36.4239C38.8822 36.3173 38.0408 34.7983 37.023 33.0393C34.9875 29.5348 35.0689 29.828 36.0324 29.3083C36.5616 29.0151 36.9552 28.1757 37.0773 27.0563C37.1587 26.2835 37.213 26.1636 37.9051 25.4307C39.2079 24.0315 39.33 23.4719 38.7329 21.6463L38.4479 20.8069L38.8007 19.6476C38.9907 18.9946 39.1536 18.355 39.1536 18.2085C39.14 17.7288 38.665 16.8893 38.0815 16.3429C37.3487 15.6634 37.1723 15.3169 37.0637 14.3442C36.8738 12.7318 36.2902 12.0922 34.5668 11.5459C33.9019 11.3327 33.7933 11.2394 33.2505 10.4132C32.9248 9.92022 32.4634 9.37389 32.2056 9.20066C31.7985 8.90751 31.6221 8.88086 30.265 8.88086H28.7723L27.9174 8.36118C27.2253 7.93477 26.8996 7.82817 26.2889 7.7882C25.8683 7.77487 25.3662 7.81485 25.1762 7.89479ZM27.456 10.0401L28.5009 10.6131L29.8986 10.5731L31.2828 10.5465L31.8935 11.4793C32.5448 12.492 32.9384 12.7851 34.1733 13.2382C35.0689 13.558 35.3539 13.8645 35.3539 14.544C35.3539 15.5168 35.7203 16.3296 36.5752 17.249C37.023 17.7288 37.3894 18.2085 37.3894 18.3017C37.3894 18.4083 37.2673 18.8481 37.118 19.2878C36.7516 20.3005 36.7516 21.0734 37.1045 22.1927C37.2673 22.699 37.3894 23.1787 37.3894 23.272C37.3894 23.3786 37.023 23.8317 36.5752 24.298C35.7203 25.1642 35.3539 25.9504 35.3539 26.8831C35.3539 27.696 35.1639 27.9625 34.3768 28.2023C33.1012 28.6154 32.6398 28.9352 31.9342 29.9746L31.2692 30.934L29.8579 30.9206C28.4466 30.9073 28.4195 30.9206 27.5103 31.427C26.0175 32.2665 26.3025 32.2665 24.6062 31.347C23.887 30.9473 23.7377 30.9206 22.3671 30.894L20.9151 30.8673L20.2909 29.9612C19.5988 28.9352 19.2188 28.6554 18.0111 28.2556C17.0883 27.9491 16.8983 27.7226 16.8983 26.8831C16.8983 25.977 16.5455 25.2308 15.6906 24.3247C15.2292 23.8583 14.8628 23.352 14.8628 23.2187C14.8628 23.0855 14.9849 22.6324 15.1342 22.206C15.2834 21.7796 15.4056 21.1267 15.4056 20.7402C15.4056 20.3538 15.2834 19.7009 15.1342 19.2745C14.9849 18.8481 14.8628 18.4083 14.8628 18.3017C14.8628 18.2085 15.2292 17.7288 15.677 17.249C16.5319 16.3296 16.8983 15.5168 16.8983 14.544C16.8983 13.8645 17.1833 13.558 18.0789 13.2382C19.2867 12.7984 19.6531 12.5186 20.3452 11.4926L20.9694 10.5465L22.3671 10.5731L23.7513 10.6131L24.7691 10.0535C25.3255 9.74699 25.9225 9.49381 26.099 9.48049C26.2754 9.48049 26.886 9.73367 27.456 10.0401ZM19.0424 31.1871C19.6666 32.2665 20.3045 32.6263 21.8108 32.6929L22.4486 32.7329L21.1594 34.9315C20.4673 36.1441 19.8431 37.1168 19.7888 37.1035C19.7345 37.0902 19.5309 36.6238 19.3274 36.0508C19.1238 35.4912 18.8796 34.9848 18.7846 34.9182C18.5132 34.745 17.7532 34.7849 16.8576 34.9981C16.2469 35.1314 16.0841 35.1447 16.1112 35.0115C16.1791 34.745 18.5675 30.6675 18.6624 30.6675C18.7167 30.6675 18.8796 30.9073 19.0424 31.1871ZM34.8518 32.6929C36.4124 35.3979 36.3581 35.2247 35.3946 34.9981C34.9604 34.8915 34.3497 34.8116 34.0376 34.7983C33.3862 34.7983 33.3319 34.8649 32.8434 36.2507C32.6805 36.7304 32.5041 37.1168 32.4363 37.1035C32.382 37.0902 31.7713 36.1041 31.0657 34.9049L29.8036 32.7329L30.8214 32.6662C32.002 32.573 32.3413 32.3731 33.0469 31.3604C33.3048 30.9873 33.5626 30.6808 33.6033 30.6675C33.644 30.6675 34.2004 31.5869 34.8518 32.6929Z" fill="#D98029"/>
<path d="M24.362 12.7585C22.9371 13.0517 21.3494 13.9045 20.2909 14.9305C18.6761 16.5029 17.8347 18.4484 17.8347 20.6737C17.8211 22.2061 17.9975 22.9389 18.6625 24.3381C20.6437 28.4156 25.6919 30.0812 29.9122 28.0425C31.1879 27.4295 32.7756 25.9238 33.4134 24.7378C34.3769 22.9123 34.689 20.6204 34.2005 18.7415C33.1148 14.5041 28.7181 11.8391 24.362 12.7585ZM27.6189 14.4242C30.9843 15.1837 33.2777 18.6216 32.5992 21.8863C32.2192 23.7651 31.2421 25.2042 29.7358 26.1636C26.6282 28.1357 22.4757 27.243 20.508 24.1649C18.2147 20.5671 20.1959 15.5968 24.3756 14.4908C25.2441 14.2643 26.7639 14.2243 27.6189 14.4242Z" fill="#D98029"/>
<path d="M28.7584 17.982C28.677 18.0353 27.9171 18.8481 27.0893 19.8075C26.2479 20.7536 25.5151 21.5531 25.4609 21.5798C25.4202 21.5931 24.8909 21.2467 24.3074 20.8069C23.7239 20.3672 23.1403 20.0074 23.0182 20.0074C22.5704 20.0074 22.1904 20.4072 22.1904 20.8736C22.1904 21.2733 22.3126 21.4066 23.3846 22.2327C25.4066 23.8184 25.3794 23.8051 25.8137 23.6185C26.0172 23.5253 27.0486 22.4726 28.0935 21.2733C30.0748 19.008 30.3326 18.555 29.8576 18.0886C29.6269 17.8621 29.0163 17.8088 28.7584 17.982Z" fill="#D98029"/>
<path d="M7.42636 53.6667C7.2228 53.7999 7.12781 53.9998 7.12781 54.3196C7.12781 55.2524 5.70293 55.1857 26.1262 55.1857C46.5495 55.1857 45.1246 55.2524 45.1246 54.3196C45.1246 53.3868 46.5495 53.4535 26.1262 53.4535C9.69259 53.4535 7.69776 53.4801 7.42636 53.6667Z" fill="#D98029"/>
<path d="M55.4791 39.3022C55.3434 39.4221 54.1085 40.8079 52.7379 42.367C51.3673 43.9127 50.2003 45.1919 50.1596 45.1919C50.1189 45.1919 49.3725 44.6455 48.5176 43.9793C46.7534 42.6068 46.4956 42.4602 46.0342 42.5668C45.6678 42.6601 45.3557 43.2331 45.4643 43.6062C45.5728 43.9127 49.7389 47.1507 50.1867 47.2573C50.4174 47.3239 50.6074 47.2573 50.8517 47.0307C51.2723 46.6576 56.3748 40.8745 56.7004 40.3948C56.999 39.9684 56.9854 39.6486 56.6597 39.3288C56.3205 38.9957 55.7912 38.9824 55.4791 39.3022Z" fill="#D98029"/>
</svg>
