<svg width="73" height="82" viewBox="0 0 73 82" fill="none" xmlns="http://www.w3.org/2000/svg">
<path d="M15.1865 0.410268C15.4077 0.658705 15.4551 1.10589 15.4551 3.06026C15.4551 5.19682 15.4235 5.44525 15.1392 5.74338C14.7285 6.174 14.4125 6.15744 13.9545 5.66056C13.5754 5.27963 13.5596 5.18025 13.5596 3.06026C13.5596 1.3212 13.607 0.774642 13.8123 0.476518C14.1124 0.0293317 14.8232 -0.00379324 15.1865 0.410268Z" fill="#D98029"/>
<path d="M19.6104 3.0613C19.7683 3.22692 19.8789 3.49192 19.8789 3.62442C19.8789 3.93911 18.9785 6.22473 18.7258 6.53941C18.4573 6.88722 17.6201 6.70504 17.3831 6.24129C17.1778 5.86035 17.1936 5.71129 17.6675 4.53536C17.9518 3.82317 18.2835 3.14411 18.4099 3.01161C18.7258 2.68036 19.3103 2.69692 19.6104 3.0613Z" fill="#D98029"/>
<path d="M10.7786 3.12698C10.905 3.34229 11.2051 4.00479 11.442 4.60103C11.9317 5.87634 11.8843 6.50572 11.2841 6.67134C10.5417 6.85353 10.2889 6.62165 9.68867 5.11447C9.1674 3.80604 9.13581 3.64041 9.32536 3.25948C9.62549 2.67979 10.4469 2.59698 10.7786 3.12698Z" fill="#D98029"/>
<path d="M56.9985 3.50768C57.1249 3.54081 57.7725 3.65675 58.4202 3.75612C62.8588 4.51799 67.4081 7.6483 69.9986 11.7392C72.0363 14.9523 72.984 18.1986 72.9998 22.0576C73.0156 26.3473 71.8625 30.0242 69.4615 33.4029C68.5296 34.7279 66.713 36.5995 65.6863 37.3116C65.3388 37.5601 65.0545 37.8085 65.0545 37.8748C65.0545 37.941 65.1966 38.1232 65.3862 38.3054C66.713 39.5641 66.7288 42.2141 65.4178 43.7048L65.0229 44.1354L65.3546 44.4832C66.2708 45.4438 66.6341 47.0007 66.255 48.3257C65.7653 50.1144 64.2805 51.2904 62.5113 51.2904H61.6267L61.3582 52.3338C61.2003 52.8969 60.9159 53.6588 60.7106 54.0232C59.9208 55.4475 58.0095 56.905 56.5405 57.1866L56.0034 57.3025L56.0982 58.23C56.3193 60.35 57.2513 61.9897 58.9098 63.1325C60.0945 63.9772 60.3157 64.3581 59.9366 64.9544C59.5575 65.5506 58.9572 65.4844 57.8515 64.7391C55.7033 63.2816 54.6133 61.2609 54.2342 58.0644L54.1395 57.3191L53.1917 57.021C52.0544 56.6566 50.617 55.5966 50.0009 54.6525C49.4639 53.841 48.8004 52.1847 48.7846 51.6547C48.7846 51.3235 48.7057 51.2904 47.9475 51.2904C46.6206 51.2904 45.973 51.0088 45.0884 50.0813C43.6036 48.5244 43.4772 46.4872 44.7567 44.7482L45.1832 44.1519L44.7409 43.5557C43.5878 41.9657 43.6194 39.9782 44.8041 38.5207C45.1042 38.1563 45.3253 37.8416 45.2937 37.8251C43.6983 36.7154 41.8344 34.877 41.8344 34.4132C41.8344 33.966 42.3715 33.4029 42.7822 33.4029C42.9559 33.4029 43.572 33.8667 44.1564 34.4298C44.7567 34.9929 45.7202 35.7879 46.3363 36.202L47.442 36.9638L50.7907 36.9141L54.1553 36.8645V35.2248V33.5685H52.7652C50.2063 33.5685 48.2634 32.7404 46.5574 30.9185C44.7567 28.9973 44.0616 26.9436 44.0459 23.5814C44.0459 21.9086 44.0616 21.7761 44.4408 21.3951C44.7883 21.0142 44.9462 20.9811 46.2099 20.9811C47.5683 20.9811 49.4165 21.1964 49.9535 21.4117C50.1747 21.4945 50.2063 21.362 50.2063 20.2854C50.2063 17.5858 51.0908 15.6314 53.3497 13.2961C54.2027 12.4183 55.0398 11.7061 55.1978 11.7061C55.7033 11.7061 58.5781 14.9523 59.1784 16.178C59.8102 17.5195 60.2209 19.4408 60.1103 20.6167C60.0314 21.3951 60.0472 21.4945 60.2841 21.3951C61.4056 20.9479 65.4178 20.8651 65.8917 21.2958C66.255 21.6104 66.2708 25.5854 65.9233 27.0264C65.165 30.0242 62.7641 32.5251 59.905 33.3035C59.3521 33.4526 58.2938 33.5685 57.4882 33.5685H56.0508V35.2248V36.881L59.3995 36.9141C63.0642 36.9638 62.9852 36.9804 64.4226 35.9038C68.9561 32.492 71.515 26.9104 71.1675 21.1798C70.7252 13.9752 66.2234 8.1286 59.4469 5.95892C58.12 5.54486 57.8357 5.51174 55.182 5.51174C51.7701 5.51174 50.7433 5.74361 48.0738 7.13486C44.7725 8.85735 42.4031 11.3417 40.8077 14.7701C39.4808 17.6023 39.2281 18.8114 39.2439 22.3061C39.2439 24.9726 39.2755 25.3204 39.6704 26.6951C39.9073 27.5067 40.4444 28.8979 40.8393 29.7592C41.5975 31.3492 41.6765 31.7632 41.3447 32.1773C41.1552 32.4257 40.4602 32.492 40.1442 32.2767C39.8125 32.0613 38.691 29.6929 38.2013 28.1526C36.1321 21.627 37.6011 14.472 42.0872 9.42048C45.4201 5.64424 50.38 3.37518 55.2452 3.44143C56.0824 3.458 56.8722 3.49112 56.9985 3.50768ZM54.2184 15.0517C52.6546 16.7576 52.086 18.0992 52.0702 20.1695C52.0544 21.8589 52.2755 22.4551 53.1917 23.2667C53.6182 23.6476 54.2184 24.3598 54.5502 24.8732L55.1346 25.8173L55.6559 25.0057C55.9402 24.5586 56.572 23.8132 57.0617 23.3495C57.8199 22.6208 57.9779 22.3723 58.12 21.627C58.357 20.4842 58.2306 18.8114 57.8041 17.652C57.4566 16.6914 55.5769 14.1905 55.2136 14.1905C55.103 14.1905 54.6607 14.588 54.2184 15.0517ZM60.3631 23.4323C58.6255 24.1279 57.1565 25.6848 56.4931 27.4901C56.2877 28.0532 56.1456 28.931 56.0824 30.0407L56.0034 31.7467H57.0143C61.5478 31.7301 64.4226 28.7323 64.4226 23.9954V22.9189L62.7957 23.0017C61.7057 23.0679 60.9159 23.2004 60.3631 23.4323ZM45.9414 24.3598C45.9414 26.9932 46.9523 29.1132 48.832 30.4217C49.9851 31.2332 50.9329 31.5313 52.7652 31.6804L54.1869 31.7963L54.1237 29.9082C54.0605 27.606 53.6814 26.6123 52.3545 25.1548C50.9645 23.6145 49.4955 23.0017 47.2366 22.9851L45.9414 22.9686V24.3598ZM46.8891 39.117C45.3727 39.9285 45.3727 42.1148 46.8891 42.9263C47.284 43.1416 48.5793 43.1748 55.182 43.1748C63.8224 43.1748 63.6486 43.1913 64.2647 42.1313C64.8807 41.0713 64.47 39.5807 63.4275 39.117C62.6535 38.7526 47.5526 38.7526 46.8891 39.117ZM46.7312 45.4272C45.4991 46.2057 45.4675 48.2097 46.6838 49.071C47.1103 49.3691 47.5368 49.3857 55.103 49.3857C62.7483 49.3857 63.0958 49.3691 63.5854 49.0544C64.1699 48.69 64.5806 47.9116 64.5806 47.1829C64.5806 46.6032 64.0119 45.6591 63.4749 45.3776C63.1748 45.2119 61.1687 45.1622 55.1346 45.1622C48.0422 45.1622 47.1261 45.1954 46.7312 45.4272ZM50.6802 51.6216C50.6802 52.7644 52.1334 54.5697 53.4602 55.0997C54.487 55.4972 55.7349 55.5303 56.73 55.166C57.7094 54.8182 58.8625 53.725 59.3047 52.6982C59.984 51.191 60.2999 51.2904 55.182 51.2904C50.7591 51.2904 50.6802 51.2904 50.6802 51.6216Z" fill="#D98029"/>
<path d="M24.4273 4.35239C25.1223 4.86583 24.9012 5.34614 23.1636 7.18457C22.1369 8.26113 21.4261 8.8905 21.2207 8.8905C20.6995 8.8905 20.3046 8.493 20.3046 7.97957C20.3046 7.59863 20.6363 7.16801 21.9631 5.79332C22.8793 4.86583 23.7165 4.08739 23.8429 4.08739C23.9692 4.08739 24.2378 4.20333 24.4273 4.35239Z" fill="#D98029"/>
<path d="M7.10005 5.8597C8.885 7.69814 9.09034 8.09564 8.53749 8.60907C7.95303 9.1722 7.57393 8.97345 5.86797 7.1847C4.79384 6.05845 4.24098 5.36283 4.24098 5.11439C4.24098 4.68377 4.76225 4.08752 5.12556 4.08752C5.28352 4.08752 6.16809 4.88252 7.10005 5.8597Z" fill="#D98029"/>
<path d="M16.6084 8.04545C18.4723 8.69139 19.9413 10.0661 20.7469 11.9045C21.9948 14.7698 21.4262 17.8836 19.2463 20.0532C15.8186 23.4982 10.3532 22.4051 8.29972 17.8836C7.82584 16.8236 7.79425 16.6414 7.79425 14.9354C7.79425 13.2295 7.82584 13.0473 8.29972 11.9873C8.99474 10.447 10.1794 9.18826 11.6011 8.44295C12.6278 7.91296 12.9279 7.84671 14.2232 7.79702C15.3763 7.74733 15.8976 7.79702 16.6084 8.04545ZM12.3277 10.2151C8.58405 12.1861 8.61564 17.7179 12.3909 19.6723C13.0385 20.0035 13.4018 20.0698 14.5865 20.0698C15.866 20.0698 16.0871 20.0201 16.8611 19.5729C20.0045 17.7511 20.4784 13.4945 17.8247 10.9936C16.8295 10.0495 16.0239 9.75139 14.4917 9.73483C13.465 9.71826 13.1649 9.78451 12.3277 10.2151Z" fill="#D98029"/>
<path d="M25.8182 9.60184C26.1657 9.91653 26.2289 10.0821 26.1341 10.4465C26.0551 10.7943 25.8024 10.9931 24.9652 11.4071C24.3807 11.6721 23.6541 11.9371 23.3382 11.9868C22.8327 12.0696 22.7222 12.02 22.4852 11.6556C22.0587 10.96 22.2957 10.579 23.5594 9.96621C25.2653 9.17122 25.3127 9.15465 25.8182 9.60184Z" fill="#D98029"/>
<path d="M5.282 9.86731C5.81906 10.0992 6.37192 10.4139 6.51409 10.5298C7.06694 11.0101 6.65625 12.037 5.91384 12.037C5.47155 12.037 3.62343 11.2586 3.24432 10.9273C2.9284 10.6292 2.88101 9.88387 3.16534 9.58574C3.46547 9.27106 4.22367 9.37043 5.282 9.86731Z" fill="#D98029"/>
<path d="M28.5656 14.3391C28.8025 14.8192 28.7551 15.2662 28.4392 15.5642C28.1865 15.7959 27.76 15.8456 25.8487 15.8456C23.8268 15.8456 23.5267 15.8125 23.3055 15.5476C23.0054 15.2 22.9738 14.8027 23.195 14.3391C23.3529 14.0412 23.5583 14.0246 25.8803 14.0246C28.2023 14.0246 28.4076 14.0412 28.5656 14.3391Z" fill="#D98029"/>
<path d="M5.91371 14.4233C6.11906 14.7875 6.13485 14.9033 5.9453 15.3006L5.73995 15.7642L3.27578 15.8138C0.590471 15.8635 0.400919 15.7973 0.400919 14.9364C0.400919 14.0922 0.606267 14.026 3.2284 14.026C5.62938 14.026 5.66097 14.026 5.91371 14.4233Z" fill="#D98029"/>
<path d="M24.6164 18.2318C26.0539 18.8943 26.4172 19.3746 25.9907 20.0536C25.8327 20.3021 25.5642 20.4843 25.3589 20.4843C24.7586 20.4843 22.8157 19.5402 22.4998 19.093C22.1839 18.6624 22.1839 18.6624 22.5156 18.1986C22.9421 17.5858 23.2264 17.6024 24.6164 18.2318Z" fill="#D98029"/>
<path d="M6.1352 17.8016C6.8934 18.05 6.97238 19.0272 6.26157 19.491C5.39279 20.0375 3.95536 20.5344 3.52887 20.4185C3.10238 20.3025 2.88123 19.7394 3.03919 19.1928C3.18135 18.7457 5.64552 17.636 6.1352 17.8016Z" fill="#D98029"/>
<path d="M23.2274 22.6047C24.4911 23.9296 24.7754 24.3106 24.7754 24.7246C24.7754 25.354 24.5227 25.619 23.9224 25.619C23.5275 25.619 23.1642 25.3209 21.9005 23.9959C20.6368 22.6709 20.3525 22.29 20.3525 21.8759C20.3525 21.5943 20.4315 21.2962 20.5421 21.1803C20.6526 21.0643 20.937 20.9815 21.2055 20.9815C21.6004 20.9815 21.9637 21.2797 23.2274 22.6047Z" fill="#D98029"/>
<path d="M8.55178 21.278C8.70974 21.4436 8.82031 21.7252 8.82031 21.9074C8.82031 22.2386 5.78749 25.5014 5.31361 25.667C4.9661 25.7995 4.23948 25.1867 4.23948 24.7561C4.23948 24.5408 4.85553 23.7624 5.85067 22.7024C7.55664 20.8805 7.99892 20.6486 8.55178 21.278Z" fill="#D98029"/>
<path d="M18.6152 23.2668C18.9785 23.5815 19.8789 25.6518 19.8789 26.2149C19.8789 26.6455 19.405 27.1093 18.9785 27.1093C18.5205 27.1093 18.2203 26.6952 17.6675 25.2377C17.1462 23.8796 17.1778 23.4986 17.8254 23.1343C18.2045 22.919 18.2045 22.919 18.6152 23.2668Z" fill="#D98029"/>
<path d="M11.6327 23.3342C11.7433 23.4502 11.8223 23.7152 11.8223 23.9305C11.8223 24.5433 10.8745 26.7626 10.527 26.9614C10.0531 27.2264 9.46867 27.0111 9.3581 26.5308C9.23173 26.0008 9.3423 25.6033 9.91095 24.2286C10.3532 23.2017 10.4164 23.1355 10.9219 23.1355C11.2062 23.1355 11.5221 23.2183 11.6327 23.3342Z" fill="#D98029"/>
<path d="M15.1865 24.0945C15.4077 24.3595 15.4551 24.8067 15.4551 26.8107C15.4551 28.9307 15.4235 29.2454 15.1708 29.4773C14.839 29.792 14.4599 29.8251 14.0176 29.5932C13.7491 29.4276 13.7175 29.2123 13.7175 26.8604C13.7175 24.7735 13.7649 24.2767 13.9703 24.0614C14.302 23.7135 14.8706 23.7301 15.1865 24.0945Z" fill="#D98029"/>
<path d="M31.7408 43.7871C32.4201 44.0024 32.9097 44.4165 33.2572 45.0624C33.6995 45.8905 34.8368 53.8736 34.5683 54.3705C34.205 55.1158 33.0835 54.8508 32.9097 53.973C32.8623 53.7411 32.7992 53.3768 32.7518 53.1449L32.657 52.7143L30.177 52.7639L27.6971 52.8136L27.6497 55.5796L27.6181 58.3621H30.5403H33.4626V57.6996C33.4626 57.1861 33.5416 56.9874 33.8417 56.7886C34.2682 56.4905 34.9316 56.6727 35.1054 57.1364C35.3739 57.8652 37.2536 72.2414 37.1588 72.8211C37.0483 73.5829 36.2901 74.5436 35.5634 74.8583C35.1685 75.0404 33.7469 75.0901 29.1187 75.0901H23.1952V77.4917V79.8932H40.8077C58.2149 79.8932 58.4202 79.8932 58.7361 80.2245C59.1468 80.6551 59.131 80.9864 58.6571 81.4667L58.278 81.8807H33.0361C13.07 81.8807 7.71517 81.831 7.39925 81.6654C6.90958 81.4004 6.78321 80.6551 7.17811 80.2079C7.43084 79.9098 7.69938 79.8932 10.669 79.8932H13.8756V77.4917V75.0901H10.6532C7.09913 75.0901 6.92537 75.0404 6.92537 74.0964C6.92537 73.4173 7.43084 73.1026 8.53656 73.1026H9.45273V70.5355V67.9683L5.86704 68.0014L2.26556 68.0511L1.99703 69.9558C1.85487 70.9992 1.7285 72.0261 1.7285 72.2248C1.69691 72.8873 2.1076 73.1026 3.38708 73.1026C4.65075 73.1026 5.18782 73.4008 5.18782 74.0964C5.18782 74.8086 4.65075 75.0901 3.32389 75.0901C1.93385 75.0901 1.01768 74.7423 0.480621 74.0136C-0.277584 73.0033 -0.309177 73.318 1.64952 59.2067C2.64467 51.9524 3.52924 45.7912 3.62402 45.5096C3.81357 44.8637 4.4612 44.2177 5.21941 43.8865C5.74068 43.6546 7.36766 43.6215 18.567 43.638C25.5804 43.638 31.5197 43.7043 31.7408 43.7871ZM27.6181 48.1762V50.7433H29.9875C32.1357 50.7433 32.3569 50.7102 32.3569 50.4452C32.3569 49.6171 31.8198 46.3046 31.6303 45.9733C31.4091 45.6255 31.2985 45.609 29.5136 45.609H27.6181V48.1762ZM19.4042 48.1762V50.7433H22.6424H25.8805V48.1762V45.609H22.6424H19.4042V48.1762ZM11.3482 48.1762V50.7433H14.5074H17.6666V48.1762V45.609H14.5074H11.3482V48.1762ZM5.50374 45.8408C5.36157 46.0396 4.72974 49.7496 4.71394 50.528C4.71394 50.6936 5.29839 50.7433 7.08333 50.7433H9.45273V48.1762V45.609H7.57301C6.13557 45.609 5.6617 45.6587 5.50374 45.8408ZM19.4042 55.5464V58.3621H22.6424H25.8805V55.5464V52.7308H22.6424H19.4042V55.5464ZM11.3482 55.5464V58.3621H14.5074H17.6666V55.5464V52.7308H14.5074H11.3482V55.5464ZM4.39802 52.7971C4.39802 52.9793 3.75039 57.4842 3.67141 57.8983L3.57663 58.3621H6.51468H9.45273V55.5464V52.7308H6.92537C5.53533 52.7308 4.39802 52.7639 4.39802 52.7971ZM27.6181 63.1652V65.9808H31.0932H34.5683L34.4893 65.5998C34.4261 65.2686 33.7785 60.598 33.7785 60.4158C33.7785 60.3827 32.3885 60.3496 30.6983 60.3496H27.6181V63.1652ZM19.4042 63.1652V65.9808H22.6424H25.8805V63.1652V60.3496H22.6424H19.4042V63.1652ZM11.3482 63.1652V65.9808H14.5074H17.6666V63.1652V60.3496H14.5074H11.3482V63.1652ZM3.00798 62.867C2.81842 64.2583 2.66047 65.5336 2.66047 65.6827C2.66047 65.9642 2.929 65.9808 6.05659 65.9808H9.45273V63.1652V60.3496H6.40411H3.33969L3.00798 62.867ZM19.4358 70.4858L19.3884 73.1026H22.6424H25.8805V70.5686C25.8805 69.1608 25.8331 67.9683 25.77 67.902C25.7068 67.8523 24.2693 67.8192 22.5792 67.8358L19.4832 67.8855L19.4358 70.4858ZM11.3482 70.4526V73.1026H14.5074H17.6666V70.5686C17.6666 69.1608 17.6192 67.9683 17.5561 67.9186C17.5087 67.8523 16.087 67.8027 14.3969 67.8027H11.3482V70.4526ZM27.6181 70.5355V73.1026H31.2354C34.3156 73.1026 34.9 73.0695 35.1054 72.8376C35.4213 72.523 35.4213 72.3076 35.0896 69.9061L34.8368 67.9683H31.2196H27.6181V70.5355ZM15.7711 77.4917V79.8932L18.567 79.8601L21.3787 79.8104L21.4261 77.442L21.4734 75.0901H18.6144H15.7711V77.4917Z" fill="#D98029"/>
<path d="M67.1561 64.457C72.0844 65.8813 74.3906 71.5126 72.0528 76.3819C71.5316 77.4419 69.9362 79.1147 68.9252 79.6613C67.4404 80.4397 66.6032 80.6053 64.0285 80.6053C61.9118 80.6053 61.5959 80.5722 61.3748 80.3072C61.0273 79.9097 61.0431 79.3963 61.3906 79.065C61.6275 78.8332 62.0382 78.7835 63.6494 78.7835C67.4562 78.7835 69.4149 77.7235 70.6312 75.0072C71.0735 74.0301 71.1367 73.7319 71.1209 72.4897C71.1051 70.6679 70.6944 69.5085 69.6045 68.2663C68.1986 66.6432 67.2351 66.2457 64.297 66.0635C62.5279 65.9476 62.4489 65.931 62.2278 65.517C62.0224 65.1195 62.0224 65.0366 62.2593 64.6391C62.5279 64.2085 62.5437 64.2085 64.4708 64.2251C65.5291 64.2251 66.7454 64.341 67.1561 64.457Z" fill="#D98029"/>
</svg>
