<svg width="72" height="72" viewBox="0 0 72 72" fill="none" xmlns="http://www.w3.org/2000/svg">
<path d="M33.163 0.638672C30.6779 0.957619 27.5469 1.87286 25.497 2.88515C18.3926 6.42129 13.5627 13.3133 12.6361 21.2314C12.1727 25.3084 13.0152 29.9816 14.9106 33.698C15.6126 35.0709 19.0385 40.9645 19.3474 41.2973C19.8668 41.8936 21.0603 41.4082 21.0603 40.6039C21.0603 40.3682 20.274 38.8705 18.9542 36.5963C17.7889 34.5994 16.5814 32.3529 16.2585 31.618C12.3693 22.4102 15.7109 11.6492 24.1913 6.04688C26.2973 4.66016 29.0211 3.55078 31.7871 2.96836C33.837 2.53848 38.0491 2.53848 40.099 2.96836C42.2191 3.42598 43.5529 3.8836 45.5607 4.86816C47.7931 5.96368 49.3375 7.10078 51.1768 8.97285C56.3858 14.2979 58.4076 21.6336 56.5964 28.6781C56.3717 29.5656 55.9084 30.9385 55.5714 31.7289C54.9536 33.1434 37.1786 63.7482 36.6029 64.3861C36.4344 64.5664 36.1536 64.7051 35.943 64.7051C35.7324 64.7051 35.4516 64.5664 35.2831 64.3861C35.1287 64.2197 32.3627 59.5604 29.1335 54.0273C25.9182 48.4943 23.1804 43.8627 23.054 43.724C22.7592 43.3912 21.9729 43.4189 21.6219 43.7656C21.4674 43.9182 21.3411 44.2232 21.3411 44.4451C21.3411 44.7225 22.7311 47.2186 25.7498 52.391L30.1584 59.9209L24.6967 59.9902C19.7686 60.0596 19.221 60.0873 18.9963 60.2953C18.6313 60.6559 18.6875 61.4879 19.0806 61.8068C19.3895 62.0564 19.7545 62.0703 25.4128 62.0703H31.422L32.4189 63.7898C32.9665 64.7328 33.5983 65.6758 33.8089 65.8838C35.1708 67.2566 37.4173 67.007 38.5124 65.3568C38.7651 64.9547 39.3268 64.0533 39.7339 63.3461L40.4781 62.0703L52.5527 62.098L64.6415 62.1396L66.7896 65.7313C67.969 67.7004 68.9378 69.3367 68.9378 69.3645C68.9378 69.3922 54.0972 69.4199 35.943 69.4199C17.8029 69.4199 2.94824 69.3922 2.94824 69.3645C2.94824 69.3367 3.91703 67.7004 5.09642 65.7313L7.24459 62.1396L11.5128 62.0703C13.8716 62.0287 15.8092 61.9732 15.8373 61.9594C16.0479 61.8068 16.2444 60.9887 16.1321 60.6975C15.8654 60.0041 15.8092 60.0041 11.2601 59.9902C6.64085 59.9902 6.44429 60.018 5.72823 60.7668C5.53167 60.9887 4.28208 62.9855 2.96228 65.2043C0.210378 69.8221 0.168257 69.9607 1.03876 70.9176L1.51613 71.4307H35.943H70.3699L70.8473 70.9176C71.7178 69.9607 71.6757 69.8221 68.9238 65.2043C66.6071 61.3076 66.1017 60.5588 65.4979 60.226C65.2873 60.1012 62.044 60.0457 53.4794 59.9902L41.7276 59.9209L48.9584 47.5791C52.9318 40.7842 56.4981 34.6133 56.8772 33.8645C59.1938 29.3715 59.9099 24.102 58.899 19.1652C57.0035 9.91582 49.9553 2.88515 40.6606 0.971489C38.7371 0.583206 34.9883 0.416801 33.163 0.638672Z" fill="#D98029"/>
<path d="M32.9243 6.13005C28.4595 6.92048 24.4861 9.34724 21.8184 12.925C19.5298 15.9619 18.3926 19.401 18.3926 23.2422C18.3926 25.2806 18.6593 26.9586 19.235 28.6781C21.2989 34.7658 26.4096 39.1478 32.8682 40.3681C34.4266 40.6594 37.4594 40.6594 39.0178 40.3681C44.3251 39.3697 48.6916 36.2912 51.3031 31.7289C52.314 29.9539 53.353 26.8615 53.353 25.5857C53.353 24.2406 51.5418 24.1019 51.3172 25.4332C50.1799 32.0478 45.2939 37.0677 38.7651 38.3019C37.4874 38.5515 34.6372 38.5793 33.3877 38.3574C27.3644 37.3035 22.6047 33.0185 20.962 27.1666C20.611 25.9185 20.5688 25.5996 20.5688 23.3115C20.5688 21.1898 20.611 20.6351 20.8777 19.6228C21.2849 18.0558 22.0992 16.1838 22.9557 14.908C23.7841 13.6738 26.1428 11.3025 27.3082 10.5537C29.9899 8.82029 32.7278 8.00212 35.8868 7.98826C40.2113 7.97439 44.0022 9.55525 47.0629 12.6199C49.155 14.7277 50.5309 17.3347 51.1768 20.4687C51.4155 21.6197 51.7103 21.9941 52.3842 21.9941C52.6089 21.9941 52.9178 21.8693 53.0863 21.7029C53.353 21.4394 53.3811 21.3008 53.3109 20.5519C53.1845 19.3177 52.5948 17.4041 51.8086 15.7955C49.3234 10.6369 44.5778 7.10076 38.8353 6.11619C37.2909 5.85271 34.4407 5.86658 32.9243 6.13005Z" fill="#D98029"/>
<path d="M27.0273 13.5213C26.8729 13.5907 26.5921 13.8125 26.3955 14.0206L26.0445 14.395L26.0024 23.1174C25.9603 32.7135 25.9462 32.4362 26.8167 32.8799C27.4345 33.1989 44.4514 33.1989 45.0692 32.8799C45.9397 32.4362 45.9256 32.7135 45.8835 23.1036L45.8414 14.3672L45.3781 13.9235L44.9288 13.4659L36.1114 13.4381C31.2675 13.4243 27.1818 13.4659 27.0273 13.5213ZM32.7137 17.002C32.7137 19.5258 32.8541 19.6368 35.943 19.6368C39.0318 19.6368 39.1722 19.5258 39.1722 17.002V15.4766H41.4889H43.8055V23.2422V31.0079H35.943H28.0804V23.2422V15.4766H30.397H32.7137V17.002ZM37.0662 16.5166V17.5567H35.943H34.8197V16.5166V15.4766H35.943H37.0662V16.5166Z" fill="#D98029"/>
<path d="M31.6607 44.1678C30.9727 44.459 30.7621 45.3188 31.2395 45.8457C31.4781 46.1092 31.6607 46.123 35.943 46.123C40.2253 46.123 40.4078 46.1092 40.6465 45.8457C40.9975 45.4574 40.9694 44.7918 40.5903 44.4174C40.2955 44.1123 40.2112 44.1123 36.1114 44.0846C33.8229 44.0707 31.8151 44.1123 31.6607 44.1678Z" fill="#D98029"/>
<path d="M31.2958 48.7301C30.8325 49.1045 30.8746 49.8117 31.366 50.2416L31.7451 50.5605H35.9432C40.1413 50.5605 40.1413 50.5605 40.5203 50.2416C40.9977 49.8256 41.0258 49.0906 40.5625 48.7301C40.2957 48.5082 39.8605 48.4805 35.9432 48.4805C31.9557 48.4805 31.5907 48.4943 31.2958 48.7301Z" fill="#D98029"/>
</svg>
