<svg width="624" height="419" viewBox="0 0 624 419" fill="none" xmlns="http://www.w3.org/2000/svg">
<path d="M14.092 241V239.912L18.652 235.512C19.0573 235.128 19.356 234.792 19.548 234.504C19.7507 234.205 19.884 233.933 19.948 233.688C20.0227 233.432 20.06 233.187 20.06 232.952C20.06 232.376 19.8573 231.923 19.452 231.592C19.0467 231.261 18.4547 231.096 17.676 231.096C17.0787 231.096 16.54 231.197 16.06 231.4C15.58 231.592 15.164 231.896 14.812 232.312L13.724 231.368C14.1507 230.824 14.7213 230.408 15.436 230.12C16.1613 229.821 16.956 229.672 17.82 229.672C18.5987 229.672 19.276 229.8 19.852 230.056C20.428 230.301 20.8707 230.659 21.18 231.128C21.5 231.597 21.66 232.152 21.66 232.792C21.66 233.155 21.612 233.512 21.516 233.864C21.42 234.216 21.2387 234.589 20.972 234.984C20.7053 235.379 20.3213 235.821 19.82 236.312L15.756 240.232L15.372 239.608H22.14V241H14.092ZM23.6918 243.368L24.4918 240.136L24.6998 241.064C24.3904 241.064 24.1291 240.968 23.9158 240.776C23.7131 240.584 23.6118 240.323 23.6118 239.992C23.6118 239.672 23.7131 239.411 23.9158 239.208C24.1291 239.005 24.3851 238.904 24.6838 238.904C24.9931 238.904 25.2438 239.011 25.4358 239.224C25.6278 239.427 25.7238 239.683 25.7238 239.992C25.7238 240.099 25.7131 240.205 25.6918 240.312C25.6811 240.408 25.6544 240.525 25.6118 240.664C25.5798 240.792 25.5264 240.952 25.4518 241.144L24.6998 243.368H23.6918ZM31.6253 241.128C30.7506 241.128 29.9666 240.904 29.2733 240.456C28.5906 240.008 28.0466 239.357 27.6413 238.504C27.2466 237.651 27.0493 236.616 27.0493 235.4C27.0493 234.184 27.2466 233.149 27.6413 232.296C28.0466 231.443 28.5906 230.792 29.2733 230.344C29.9666 229.896 30.7506 229.672 31.6253 229.672C32.4893 229.672 33.2679 229.896 33.9613 230.344C34.6546 230.792 35.1986 231.443 35.5933 232.296C35.9879 233.149 36.1853 234.184 36.1853 235.4C36.1853 236.616 35.9879 237.651 35.5933 238.504C35.1986 239.357 34.6546 240.008 33.9613 240.456C33.2679 240.904 32.4893 241.128 31.6253 241.128ZM31.6253 239.704C32.2119 239.704 32.7239 239.544 33.1613 239.224C33.6093 238.904 33.9559 238.424 34.2013 237.784C34.4573 237.144 34.5853 236.349 34.5853 235.4C34.5853 234.451 34.4573 233.656 34.2013 233.016C33.9559 232.376 33.6093 231.896 33.1613 231.576C32.7239 231.256 32.2119 231.096 31.6253 231.096C31.0386 231.096 30.5213 231.256 30.0733 231.576C29.6253 231.896 29.2733 232.376 29.0173 233.016C28.7719 233.656 28.6493 234.451 28.6493 235.4C28.6493 236.349 28.7719 237.144 29.0173 237.784C29.2733 238.424 29.6253 238.904 30.0733 239.224C30.5213 239.544 31.0386 239.704 31.6253 239.704ZM39.2571 241L46.9051 229.8H48.1371L40.4891 241H39.2571ZM40.1531 235.816C39.6411 235.816 39.1878 235.688 38.7931 235.432C38.3985 235.176 38.0891 234.819 37.8651 234.36C37.6518 233.901 37.5451 233.368 37.5451 232.76C37.5451 232.152 37.6518 231.619 37.8651 231.16C38.0891 230.701 38.3985 230.344 38.7931 230.088C39.1878 229.832 39.6411 229.704 40.1531 229.704C40.6758 229.704 41.1291 229.832 41.5131 230.088C41.9078 230.344 42.2118 230.701 42.4251 231.16C42.6385 231.619 42.7451 232.152 42.7451 232.76C42.7451 233.368 42.6385 233.901 42.4251 234.36C42.2118 234.819 41.9078 235.176 41.5131 235.432C41.1291 235.688 40.6758 235.816 40.1531 235.816ZM40.1531 234.904C40.6438 234.904 41.0278 234.717 41.3051 234.344C41.5825 233.96 41.7211 233.432 41.7211 232.76C41.7211 232.088 41.5825 231.565 41.3051 231.192C41.0278 230.808 40.6438 230.616 40.1531 230.616C39.6731 230.616 39.2891 230.808 39.0011 231.192C38.7238 231.565 38.5851 232.088 38.5851 232.76C38.5851 233.421 38.7238 233.944 39.0011 234.328C39.2891 234.712 39.6731 234.904 40.1531 234.904ZM47.2411 241.096C46.7291 241.096 46.2758 240.968 45.8811 240.712C45.4865 240.456 45.1825 240.099 44.9691 239.64C44.7558 239.181 44.6491 238.648 44.6491 238.04C44.6491 237.432 44.7558 236.899 44.9691 236.44C45.1825 235.981 45.4865 235.624 45.8811 235.368C46.2758 235.112 46.7291 234.984 47.2411 234.984C47.7638 234.984 48.2171 235.112 48.6011 235.368C48.9958 235.624 49.2998 235.981 49.5131 236.44C49.7371 236.899 49.8491 237.432 49.8491 238.04C49.8491 238.648 49.7371 239.181 49.5131 239.64C49.2998 240.099 48.9958 240.456 48.6011 240.712C48.2171 240.968 47.7638 241.096 47.2411 241.096ZM47.2411 240.184C47.7211 240.184 48.0998 239.997 48.3771 239.624C48.6651 239.24 48.8091 238.712 48.8091 238.04C48.8091 237.379 48.6651 236.856 48.3771 236.472C48.0998 236.088 47.7211 235.896 47.2411 235.896C46.7611 235.896 46.3771 236.088 46.0891 236.472C45.8118 236.845 45.6731 237.368 45.6731 238.04C45.6731 238.712 45.8118 239.24 46.0891 239.624C46.3771 239.997 46.7611 240.184 47.2411 240.184Z" fill="#282828"/>
<rect x="0.5" y="257" width="63" height="42" fill="#D98029"/>
<path d="M14.092 327V325.912L18.652 321.512C19.0573 321.128 19.356 320.792 19.548 320.504C19.7507 320.205 19.884 319.933 19.948 319.688C20.0227 319.432 20.06 319.187 20.06 318.952C20.06 318.376 19.8573 317.923 19.452 317.592C19.0467 317.261 18.4547 317.096 17.676 317.096C17.0787 317.096 16.54 317.197 16.06 317.4C15.58 317.592 15.164 317.896 14.812 318.312L13.724 317.368C14.1507 316.824 14.7213 316.408 15.436 316.12C16.1613 315.821 16.956 315.672 17.82 315.672C18.5987 315.672 19.276 315.8 19.852 316.056C20.428 316.301 20.8707 316.659 21.18 317.128C21.5 317.597 21.66 318.152 21.66 318.792C21.66 319.155 21.612 319.512 21.516 319.864C21.42 320.216 21.2387 320.589 20.972 320.984C20.7053 321.379 20.3213 321.821 19.82 322.312L15.756 326.232L15.372 325.608H22.14V327H14.092ZM28.0159 327.128C27.1412 327.128 26.3572 326.904 25.6639 326.456C24.9812 326.008 24.4372 325.357 24.0319 324.504C23.6372 323.651 23.4399 322.616 23.4399 321.4C23.4399 320.184 23.6372 319.149 24.0319 318.296C24.4372 317.443 24.9812 316.792 25.6639 316.344C26.3572 315.896 27.1412 315.672 28.0159 315.672C28.8799 315.672 29.6585 315.896 30.3519 316.344C31.0452 316.792 31.5892 317.443 31.9839 318.296C32.3785 319.149 32.5759 320.184 32.5759 321.4C32.5759 322.616 32.3785 323.651 31.9839 324.504C31.5892 325.357 31.0452 326.008 30.3519 326.456C29.6585 326.904 28.8799 327.128 28.0159 327.128ZM28.0159 325.704C28.6025 325.704 29.1145 325.544 29.5519 325.224C29.9999 324.904 30.3465 324.424 30.5919 323.784C30.8479 323.144 30.9759 322.349 30.9759 321.4C30.9759 320.451 30.8479 319.656 30.5919 319.016C30.3465 318.376 29.9999 317.896 29.5519 317.576C29.1145 317.256 28.6025 317.096 28.0159 317.096C27.4292 317.096 26.9119 317.256 26.4639 317.576C26.0159 317.896 25.6639 318.376 25.4079 319.016C25.1625 319.656 25.0399 320.451 25.0399 321.4C25.0399 322.349 25.1625 323.144 25.4079 323.784C25.6639 324.424 26.0159 324.904 26.4639 325.224C26.9119 325.544 27.4292 325.704 28.0159 325.704ZM35.9998 327V316.44L36.6878 317.192H33.4718V315.8H37.5838V327H35.9998ZM39.8736 324.248V323.128L45.6016 315.8H47.3296L41.6496 323.128L40.8336 322.872H49.7776V324.248H39.8736ZM46.0976 327V324.248L46.1456 322.872V320.44H47.6496V327H46.0976Z" fill="#282828"/>
<path d="M25.156 285V274.44L25.844 275.192H22.628V273.8H26.74V285H25.156ZM29.2699 287.368L30.0699 284.136L30.2779 285.064C29.9685 285.064 29.7072 284.968 29.4939 284.776C29.2912 284.584 29.1899 284.323 29.1899 283.992C29.1899 283.672 29.2912 283.411 29.4939 283.208C29.7072 283.005 29.9632 282.904 30.2619 282.904C30.5712 282.904 30.8219 283.011 31.0139 283.224C31.2059 283.427 31.3019 283.683 31.3019 283.992C31.3019 284.099 31.2912 284.205 31.2699 284.312C31.2592 284.408 31.2325 284.525 31.1899 284.664C31.1579 284.792 31.1045 284.952 31.0299 285.144L30.2779 287.368H29.2699ZM34.4998 285V274.44L35.1878 275.192H31.9718V273.8H36.0838V285H34.4998Z" fill="white"/>
<path d="M98.156 250V239.44L98.844 240.192H95.628V238.8H99.74V250H98.156ZM102.27 252.368L103.07 249.136L103.278 250.064C102.969 250.064 102.707 249.968 102.494 249.776C102.291 249.584 102.19 249.323 102.19 248.992C102.19 248.672 102.291 248.411 102.494 248.208C102.707 248.005 102.963 247.904 103.262 247.904C103.571 247.904 103.822 248.011 104.014 248.224C104.206 248.427 104.302 248.683 104.302 248.992C104.302 249.099 104.291 249.205 104.27 249.312C104.259 249.408 104.233 249.525 104.19 249.664C104.158 249.792 104.105 249.952 104.03 250.144L103.278 252.368H102.27ZM109.431 250.128C108.642 250.128 107.874 250.005 107.127 249.76C106.391 249.515 105.788 249.184 105.319 248.768L106.055 247.504C106.428 247.856 106.914 248.144 107.511 248.368C108.108 248.592 108.743 248.704 109.415 248.704C110.268 248.704 110.924 248.523 111.383 248.16C111.842 247.797 112.071 247.312 112.071 246.704C112.071 246.288 111.97 245.925 111.767 245.616C111.564 245.307 111.212 245.072 110.711 244.912C110.22 244.741 109.543 244.656 108.679 244.656H106.135L106.727 238.8H113.047V240.192H107.319L108.151 239.408L107.687 244.032L106.855 243.264H109.015C110.135 243.264 111.036 243.408 111.719 243.696C112.402 243.984 112.898 244.384 113.207 244.896C113.516 245.397 113.671 245.979 113.671 246.64C113.671 247.28 113.516 247.867 113.207 248.4C112.898 248.923 112.428 249.344 111.799 249.664C111.18 249.973 110.391 250.128 109.431 250.128ZM116.382 250L124.03 238.8H125.262L117.614 250H116.382ZM117.278 244.816C116.766 244.816 116.313 244.688 115.918 244.432C115.523 244.176 115.214 243.819 114.99 243.36C114.777 242.901 114.67 242.368 114.67 241.76C114.67 241.152 114.777 240.619 114.99 240.16C115.214 239.701 115.523 239.344 115.918 239.088C116.313 238.832 116.766 238.704 117.278 238.704C117.801 238.704 118.254 238.832 118.638 239.088C119.033 239.344 119.337 239.701 119.55 240.16C119.763 240.619 119.87 241.152 119.87 241.76C119.87 242.368 119.763 242.901 119.55 243.36C119.337 243.819 119.033 244.176 118.638 244.432C118.254 244.688 117.801 244.816 117.278 244.816ZM117.278 243.904C117.769 243.904 118.153 243.717 118.43 243.344C118.707 242.96 118.846 242.432 118.846 241.76C118.846 241.088 118.707 240.565 118.43 240.192C118.153 239.808 117.769 239.616 117.278 239.616C116.798 239.616 116.414 239.808 116.126 240.192C115.849 240.565 115.71 241.088 115.71 241.76C115.71 242.421 115.849 242.944 116.126 243.328C116.414 243.712 116.798 243.904 117.278 243.904ZM124.366 250.096C123.854 250.096 123.401 249.968 123.006 249.712C122.611 249.456 122.307 249.099 122.094 248.64C121.881 248.181 121.774 247.648 121.774 247.04C121.774 246.432 121.881 245.899 122.094 245.44C122.307 244.981 122.611 244.624 123.006 244.368C123.401 244.112 123.854 243.984 124.366 243.984C124.889 243.984 125.342 244.112 125.726 244.368C126.121 244.624 126.425 244.981 126.638 245.44C126.862 245.899 126.974 246.432 126.974 247.04C126.974 247.648 126.862 248.181 126.638 248.64C126.425 249.099 126.121 249.456 125.726 249.712C125.342 249.968 124.889 250.096 124.366 250.096ZM124.366 249.184C124.846 249.184 125.225 248.997 125.502 248.624C125.79 248.24 125.934 247.712 125.934 247.04C125.934 246.379 125.79 245.856 125.502 245.472C125.225 245.088 124.846 244.896 124.366 244.896C123.886 244.896 123.502 245.088 123.214 245.472C122.937 245.845 122.798 246.368 122.798 247.04C122.798 247.712 122.937 248.24 123.214 248.624C123.502 248.997 123.886 249.184 124.366 249.184Z" fill="#282828"/>
<rect x="80.5" y="266" width="63" height="33" fill="#D98029"/>
<path d="M95.092 327V325.912L99.652 321.512C100.057 321.128 100.356 320.792 100.548 320.504C100.751 320.205 100.884 319.933 100.948 319.688C101.023 319.432 101.06 319.187 101.06 318.952C101.06 318.376 100.857 317.923 100.452 317.592C100.047 317.261 99.4547 317.096 98.676 317.096C98.0787 317.096 97.54 317.197 97.06 317.4C96.58 317.592 96.164 317.896 95.812 318.312L94.724 317.368C95.1507 316.824 95.7213 316.408 96.436 316.12C97.1613 315.821 97.956 315.672 98.82 315.672C99.5987 315.672 100.276 315.8 100.852 316.056C101.428 316.301 101.871 316.659 102.18 317.128C102.5 317.597 102.66 318.152 102.66 318.792C102.66 319.155 102.612 319.512 102.516 319.864C102.42 320.216 102.239 320.589 101.972 320.984C101.705 321.379 101.321 321.821 100.82 322.312L96.756 326.232L96.372 325.608H103.14V327H95.092ZM109.016 327.128C108.141 327.128 107.357 326.904 106.664 326.456C105.981 326.008 105.437 325.357 105.032 324.504C104.637 323.651 104.44 322.616 104.44 321.4C104.44 320.184 104.637 319.149 105.032 318.296C105.437 317.443 105.981 316.792 106.664 316.344C107.357 315.896 108.141 315.672 109.016 315.672C109.88 315.672 110.659 315.896 111.352 316.344C112.045 316.792 112.589 317.443 112.984 318.296C113.379 319.149 113.576 320.184 113.576 321.4C113.576 322.616 113.379 323.651 112.984 324.504C112.589 325.357 112.045 326.008 111.352 326.456C110.659 326.904 109.88 327.128 109.016 327.128ZM109.016 325.704C109.603 325.704 110.115 325.544 110.552 325.224C111 324.904 111.347 324.424 111.592 323.784C111.848 323.144 111.976 322.349 111.976 321.4C111.976 320.451 111.848 319.656 111.592 319.016C111.347 318.376 111 317.896 110.552 317.576C110.115 317.256 109.603 317.096 109.016 317.096C108.429 317.096 107.912 317.256 107.464 317.576C107.016 317.896 106.664 318.376 106.408 319.016C106.163 319.656 106.04 320.451 106.04 321.4C106.04 322.349 106.163 323.144 106.408 323.784C106.664 324.424 107.016 324.904 107.464 325.224C107.912 325.544 108.429 325.704 109.016 325.704ZM117 327V316.44L117.688 317.192H114.472V315.8H118.584V327H117ZM124.65 327.128C123.86 327.128 123.092 327.005 122.346 326.76C121.61 326.515 121.007 326.184 120.538 325.768L121.274 324.504C121.647 324.856 122.132 325.144 122.73 325.368C123.327 325.592 123.962 325.704 124.634 325.704C125.487 325.704 126.143 325.523 126.602 325.16C127.06 324.797 127.29 324.312 127.29 323.704C127.29 323.288 127.188 322.925 126.986 322.616C126.783 322.307 126.431 322.072 125.93 321.912C125.439 321.741 124.762 321.656 123.898 321.656H121.354L121.946 315.8H128.266V317.192H122.538L123.37 316.408L122.906 321.032L122.074 320.264H124.234C125.354 320.264 126.255 320.408 126.938 320.696C127.62 320.984 128.116 321.384 128.426 321.896C128.735 322.397 128.89 322.979 128.89 323.64C128.89 324.28 128.735 324.867 128.426 325.4C128.116 325.923 127.647 326.344 127.018 326.664C126.399 326.973 125.61 327.128 124.65 327.128Z" fill="#282828"/>
<path d="M101.844 285.128C100.969 285.128 100.185 284.904 99.492 284.456C98.8093 284.008 98.2653 283.357 97.86 282.504C97.4653 281.651 97.268 280.616 97.268 279.4C97.268 278.184 97.4653 277.149 97.86 276.296C98.2653 275.443 98.8093 274.792 99.492 274.344C100.185 273.896 100.969 273.672 101.844 273.672C102.708 273.672 103.487 273.896 104.18 274.344C104.873 274.792 105.417 275.443 105.812 276.296C106.207 277.149 106.404 278.184 106.404 279.4C106.404 280.616 106.207 281.651 105.812 282.504C105.417 283.357 104.873 284.008 104.18 284.456C103.487 284.904 102.708 285.128 101.844 285.128ZM101.844 283.704C102.431 283.704 102.943 283.544 103.38 283.224C103.828 282.904 104.175 282.424 104.42 281.784C104.676 281.144 104.804 280.349 104.804 279.4C104.804 278.451 104.676 277.656 104.42 277.016C104.175 276.376 103.828 275.896 103.38 275.576C102.943 275.256 102.431 275.096 101.844 275.096C101.257 275.096 100.74 275.256 100.292 275.576C99.844 275.896 99.492 276.376 99.236 277.016C98.9907 277.656 98.868 278.451 98.868 279.4C98.868 280.349 98.9907 281.144 99.236 281.784C99.492 282.424 99.844 282.904 100.292 283.224C100.74 283.544 101.257 283.704 101.844 283.704ZM107.832 287.368L108.632 284.136L108.84 285.064C108.531 285.064 108.27 284.968 108.056 284.776C107.854 284.584 107.752 284.323 107.752 283.992C107.752 283.672 107.854 283.411 108.056 283.208C108.27 283.005 108.526 282.904 108.824 282.904C109.134 282.904 109.384 283.011 109.576 283.224C109.768 283.427 109.864 283.683 109.864 283.992C109.864 284.099 109.854 284.205 109.832 284.312C109.822 284.408 109.795 284.525 109.752 284.664C109.72 284.792 109.667 284.952 109.592 285.144L108.84 287.368H107.832ZM115.902 285.128C114.995 285.128 114.211 284.995 113.55 284.728C112.888 284.461 112.376 284.083 112.014 283.592C111.651 283.091 111.47 282.504 111.47 281.832C111.47 281.171 111.64 280.611 111.982 280.152C112.334 279.683 112.84 279.331 113.502 279.096C114.163 278.851 114.963 278.728 115.902 278.728C116.84 278.728 117.64 278.851 118.302 279.096C118.974 279.331 119.486 279.683 119.838 280.152C120.19 280.621 120.366 281.181 120.366 281.832C120.366 282.504 120.184 283.091 119.822 283.592C119.459 284.083 118.942 284.461 118.27 284.728C117.598 284.995 116.808 285.128 115.902 285.128ZM115.902 283.832C116.798 283.832 117.496 283.651 117.998 283.288C118.51 282.915 118.766 282.413 118.766 281.784C118.766 281.165 118.51 280.68 117.998 280.328C117.496 279.965 116.798 279.784 115.902 279.784C115.016 279.784 114.323 279.965 113.822 280.328C113.32 280.68 113.07 281.165 113.07 281.784C113.07 282.413 113.32 282.915 113.822 283.288C114.323 283.651 115.016 283.832 115.902 283.832ZM115.902 279.592C115.048 279.592 114.323 279.48 113.726 279.256C113.128 279.021 112.67 278.691 112.35 278.264C112.03 277.827 111.87 277.309 111.87 276.712C111.87 276.083 112.035 275.544 112.366 275.096C112.707 274.637 113.182 274.285 113.79 274.04C114.398 273.795 115.102 273.672 115.902 273.672C116.712 273.672 117.422 273.795 118.03 274.04C118.638 274.285 119.112 274.637 119.454 275.096C119.795 275.544 119.966 276.083 119.966 276.712C119.966 277.309 119.806 277.827 119.486 278.264C119.166 278.691 118.702 279.021 118.094 279.256C117.486 279.48 116.755 279.592 115.902 279.592ZM115.902 278.568C116.68 278.568 117.288 278.408 117.726 278.088C118.174 277.768 118.398 277.331 118.398 276.776C118.398 276.211 118.168 275.768 117.71 275.448C117.251 275.128 116.648 274.968 115.902 274.968C115.155 274.968 114.558 275.128 114.11 275.448C113.672 275.768 113.454 276.211 113.454 276.776C113.454 277.331 113.667 277.768 114.094 278.088C114.531 278.408 115.134 278.568 115.902 278.568Z" fill="white"/>
<path d="M178.156 247V236.44L178.844 237.192H175.628V235.8H179.74V247H178.156ZM182.27 249.368L183.07 246.136L183.278 247.064C182.969 247.064 182.707 246.968 182.494 246.776C182.291 246.584 182.19 246.323 182.19 245.992C182.19 245.672 182.291 245.411 182.494 245.208C182.707 245.005 182.963 244.904 183.262 244.904C183.571 244.904 183.822 245.011 184.014 245.224C184.206 245.427 184.302 245.683 184.302 245.992C184.302 246.099 184.291 246.205 184.27 246.312C184.259 246.408 184.233 246.525 184.19 246.664C184.158 246.792 184.105 246.952 184.03 247.144L183.278 249.368H182.27ZM187.548 247L192.3 236.472L192.716 237.192H186.06L186.86 236.408V239.192H185.324V235.8H193.772V236.888L189.244 247H187.548ZM196.71 247L204.358 235.8H205.59L197.942 247H196.71ZM197.606 241.816C197.094 241.816 196.641 241.688 196.246 241.432C195.852 241.176 195.542 240.819 195.318 240.36C195.105 239.901 194.998 239.368 194.998 238.76C194.998 238.152 195.105 237.619 195.318 237.16C195.542 236.701 195.852 236.344 196.246 236.088C196.641 235.832 197.094 235.704 197.606 235.704C198.129 235.704 198.582 235.832 198.966 236.088C199.361 236.344 199.665 236.701 199.878 237.16C200.092 237.619 200.198 238.152 200.198 238.76C200.198 239.368 200.092 239.901 199.878 240.36C199.665 240.819 199.361 241.176 198.966 241.432C198.582 241.688 198.129 241.816 197.606 241.816ZM197.606 240.904C198.097 240.904 198.481 240.717 198.758 240.344C199.036 239.96 199.174 239.432 199.174 238.76C199.174 238.088 199.036 237.565 198.758 237.192C198.481 236.808 198.097 236.616 197.606 236.616C197.126 236.616 196.742 236.808 196.454 237.192C196.177 237.565 196.038 238.088 196.038 238.76C196.038 239.421 196.177 239.944 196.454 240.328C196.742 240.712 197.126 240.904 197.606 240.904ZM204.694 247.096C204.182 247.096 203.729 246.968 203.334 246.712C202.94 246.456 202.636 246.099 202.422 245.64C202.209 245.181 202.102 244.648 202.102 244.04C202.102 243.432 202.209 242.899 202.422 242.44C202.636 241.981 202.94 241.624 203.334 241.368C203.729 241.112 204.182 240.984 204.694 240.984C205.217 240.984 205.67 241.112 206.054 241.368C206.449 241.624 206.753 241.981 206.966 242.44C207.19 242.899 207.302 243.432 207.302 244.04C207.302 244.648 207.19 245.181 206.966 245.64C206.753 246.099 206.449 246.456 206.054 246.712C205.67 246.968 205.217 247.096 204.694 247.096ZM204.694 246.184C205.174 246.184 205.553 245.997 205.83 245.624C206.118 245.24 206.262 244.712 206.262 244.04C206.262 243.379 206.118 242.856 205.83 242.472C205.553 242.088 205.174 241.896 204.694 241.896C204.214 241.896 203.83 242.088 203.542 242.472C203.265 242.845 203.126 243.368 203.126 244.04C203.126 244.712 203.265 245.24 203.542 245.624C203.83 245.997 204.214 246.184 204.694 246.184Z" fill="#282828"/>
<rect x="160.5" y="263" width="63" height="36" fill="#D98029"/>
<path d="M174.592 327V325.912L179.152 321.512C179.557 321.128 179.856 320.792 180.048 320.504C180.251 320.205 180.384 319.933 180.448 319.688C180.523 319.432 180.56 319.187 180.56 318.952C180.56 318.376 180.357 317.923 179.952 317.592C179.547 317.261 178.955 317.096 178.176 317.096C177.579 317.096 177.04 317.197 176.56 317.4C176.08 317.592 175.664 317.896 175.312 318.312L174.224 317.368C174.651 316.824 175.221 316.408 175.936 316.12C176.661 315.821 177.456 315.672 178.32 315.672C179.099 315.672 179.776 315.8 180.352 316.056C180.928 316.301 181.371 316.659 181.68 317.128C182 317.597 182.16 318.152 182.16 318.792C182.16 319.155 182.112 319.512 182.016 319.864C181.92 320.216 181.739 320.589 181.472 320.984C181.205 321.379 180.821 321.821 180.32 322.312L176.256 326.232L175.872 325.608H182.64V327H174.592ZM188.516 327.128C187.641 327.128 186.857 326.904 186.164 326.456C185.481 326.008 184.937 325.357 184.532 324.504C184.137 323.651 183.94 322.616 183.94 321.4C183.94 320.184 184.137 319.149 184.532 318.296C184.937 317.443 185.481 316.792 186.164 316.344C186.857 315.896 187.641 315.672 188.516 315.672C189.38 315.672 190.159 315.896 190.852 316.344C191.545 316.792 192.089 317.443 192.484 318.296C192.879 319.149 193.076 320.184 193.076 321.4C193.076 322.616 192.879 323.651 192.484 324.504C192.089 325.357 191.545 326.008 190.852 326.456C190.159 326.904 189.38 327.128 188.516 327.128ZM188.516 325.704C189.103 325.704 189.615 325.544 190.052 325.224C190.5 324.904 190.847 324.424 191.092 323.784C191.348 323.144 191.476 322.349 191.476 321.4C191.476 320.451 191.348 319.656 191.092 319.016C190.847 318.376 190.5 317.896 190.052 317.576C189.615 317.256 189.103 317.096 188.516 317.096C187.929 317.096 187.412 317.256 186.964 317.576C186.516 317.896 186.164 318.376 185.908 319.016C185.663 319.656 185.54 320.451 185.54 321.4C185.54 322.349 185.663 323.144 185.908 323.784C186.164 324.424 186.516 324.904 186.964 325.224C187.412 325.544 187.929 325.704 188.516 325.704ZM196.5 327V316.44L197.188 317.192H193.972V315.8H198.084V327H196.5ZM205.238 327.128C204.246 327.128 203.398 326.909 202.694 326.472C201.99 326.035 201.451 325.405 201.078 324.584C200.715 323.752 200.534 322.739 200.534 321.544C200.534 320.275 200.758 319.203 201.206 318.328C201.654 317.453 202.278 316.792 203.078 316.344C203.878 315.896 204.795 315.672 205.83 315.672C206.363 315.672 206.87 315.725 207.35 315.832C207.84 315.939 208.262 316.104 208.614 316.328L208.006 317.576C207.718 317.373 207.387 317.235 207.014 317.16C206.651 317.085 206.267 317.048 205.862 317.048C204.72 317.048 203.814 317.405 203.142 318.12C202.47 318.824 202.134 319.875 202.134 321.272C202.134 321.496 202.144 321.763 202.166 322.072C202.187 322.381 202.24 322.685 202.326 322.984L201.782 322.44C201.942 321.949 202.192 321.539 202.534 321.208C202.886 320.867 203.302 320.616 203.782 320.456C204.272 320.285 204.8 320.2 205.366 320.2C206.112 320.2 206.774 320.339 207.35 320.616C207.926 320.893 208.379 321.288 208.71 321.8C209.04 322.301 209.206 322.899 209.206 323.592C209.206 324.307 209.03 324.931 208.678 325.464C208.326 325.997 207.851 326.408 207.254 326.696C206.656 326.984 205.984 327.128 205.238 327.128ZM205.174 325.832C205.664 325.832 206.091 325.741 206.454 325.56C206.827 325.379 207.12 325.128 207.334 324.808C207.547 324.477 207.654 324.093 207.654 323.656C207.654 322.995 207.424 322.472 206.966 322.088C206.507 321.693 205.883 321.496 205.094 321.496C204.582 321.496 204.134 321.592 203.75 321.784C203.366 321.976 203.062 322.237 202.838 322.568C202.624 322.888 202.518 323.256 202.518 323.672C202.518 324.056 202.619 324.413 202.822 324.744C203.024 325.064 203.323 325.325 203.718 325.528C204.112 325.731 204.598 325.832 205.174 325.832Z" fill="#282828"/>
<path d="M191.156 285V274.44L191.844 275.192H188.628V273.8H192.74V285H191.156Z" fill="white"/>
<path d="M254.592 237V235.912L259.152 231.512C259.557 231.128 259.856 230.792 260.048 230.504C260.251 230.205 260.384 229.933 260.448 229.688C260.523 229.432 260.56 229.187 260.56 228.952C260.56 228.376 260.357 227.923 259.952 227.592C259.547 227.261 258.955 227.096 258.176 227.096C257.579 227.096 257.04 227.197 256.56 227.4C256.08 227.592 255.664 227.896 255.312 228.312L254.224 227.368C254.651 226.824 255.221 226.408 255.936 226.12C256.661 225.821 257.456 225.672 258.32 225.672C259.099 225.672 259.776 225.8 260.352 226.056C260.928 226.301 261.371 226.659 261.68 227.128C262 227.597 262.16 228.152 262.16 228.792C262.16 229.155 262.112 229.512 262.016 229.864C261.92 230.216 261.739 230.589 261.472 230.984C261.205 231.379 260.821 231.821 260.32 232.312L256.256 236.232L255.872 235.608H262.64V237H254.592ZM264.192 239.368L264.992 236.136L265.2 237.064C264.89 237.064 264.629 236.968 264.416 236.776C264.213 236.584 264.112 236.323 264.112 235.992C264.112 235.672 264.213 235.411 264.416 235.208C264.629 235.005 264.885 234.904 265.184 234.904C265.493 234.904 265.744 235.011 265.936 235.224C266.128 235.427 266.224 235.683 266.224 235.992C266.224 236.099 266.213 236.205 266.192 236.312C266.181 236.408 266.154 236.525 266.112 236.664C266.08 236.792 266.026 236.952 265.952 237.144L265.2 239.368H264.192ZM271.317 237.128C270.528 237.128 269.76 237.005 269.013 236.76C268.277 236.515 267.674 236.184 267.205 235.768L267.941 234.504C268.314 234.856 268.8 235.144 269.397 235.368C269.994 235.592 270.634 235.704 271.317 235.704C272.149 235.704 272.794 235.528 273.253 235.176C273.722 234.813 273.957 234.328 273.957 233.72C273.957 233.133 273.733 232.664 273.285 232.312C272.848 231.949 272.149 231.768 271.189 231.768H270.293V230.648L273.621 226.552L273.845 227.192H267.717V225.8H275.109V226.888L271.797 230.968L270.965 230.472H271.493C272.848 230.472 273.861 230.776 274.533 231.384C275.216 231.992 275.557 232.765 275.557 233.704C275.557 234.333 275.402 234.909 275.093 235.432C274.784 235.955 274.314 236.371 273.685 236.68C273.066 236.979 272.277 237.128 271.317 237.128ZM278.429 237L286.077 225.8H287.309L279.661 237H278.429ZM279.325 231.816C278.813 231.816 278.36 231.688 277.965 231.432C277.57 231.176 277.261 230.819 277.037 230.36C276.824 229.901 276.717 229.368 276.717 228.76C276.717 228.152 276.824 227.619 277.037 227.16C277.261 226.701 277.57 226.344 277.965 226.088C278.36 225.832 278.813 225.704 279.325 225.704C279.848 225.704 280.301 225.832 280.685 226.088C281.08 226.344 281.384 226.701 281.597 227.16C281.81 227.619 281.917 228.152 281.917 228.76C281.917 229.368 281.81 229.901 281.597 230.36C281.384 230.819 281.08 231.176 280.685 231.432C280.301 231.688 279.848 231.816 279.325 231.816ZM279.325 230.904C279.816 230.904 280.2 230.717 280.477 230.344C280.754 229.96 280.893 229.432 280.893 228.76C280.893 228.088 280.754 227.565 280.477 227.192C280.2 226.808 279.816 226.616 279.325 226.616C278.845 226.616 278.461 226.808 278.173 227.192C277.896 227.565 277.757 228.088 277.757 228.76C277.757 229.421 277.896 229.944 278.173 230.328C278.461 230.712 278.845 230.904 279.325 230.904ZM286.413 237.096C285.901 237.096 285.448 236.968 285.053 236.712C284.658 236.456 284.354 236.099 284.141 235.64C283.928 235.181 283.821 234.648 283.821 234.04C283.821 233.432 283.928 232.899 284.141 232.44C284.354 231.981 284.658 231.624 285.053 231.368C285.448 231.112 285.901 230.984 286.413 230.984C286.936 230.984 287.389 231.112 287.773 231.368C288.168 231.624 288.472 231.981 288.685 232.44C288.909 232.899 289.021 233.432 289.021 234.04C289.021 234.648 288.909 235.181 288.685 235.64C288.472 236.099 288.168 236.456 287.773 236.712C287.389 236.968 286.936 237.096 286.413 237.096ZM286.413 236.184C286.893 236.184 287.272 235.997 287.549 235.624C287.837 235.24 287.981 234.712 287.981 234.04C287.981 233.379 287.837 232.856 287.549 232.472C287.272 232.088 286.893 231.896 286.413 231.896C285.933 231.896 285.549 232.088 285.261 232.472C284.984 232.845 284.845 233.368 284.845 234.04C284.845 234.712 284.984 235.24 285.261 235.624C285.549 235.997 285.933 236.184 286.413 236.184Z" fill="#282828"/>
<rect x="240.5" y="253" width="63" height="46" fill="#D98029"/>
<path d="M254.592 327V325.912L259.152 321.512C259.557 321.128 259.856 320.792 260.048 320.504C260.251 320.205 260.384 319.933 260.448 319.688C260.523 319.432 260.56 319.187 260.56 318.952C260.56 318.376 260.357 317.923 259.952 317.592C259.547 317.261 258.955 317.096 258.176 317.096C257.579 317.096 257.04 317.197 256.56 317.4C256.08 317.592 255.664 317.896 255.312 318.312L254.224 317.368C254.651 316.824 255.221 316.408 255.936 316.12C256.661 315.821 257.456 315.672 258.32 315.672C259.099 315.672 259.776 315.8 260.352 316.056C260.928 316.301 261.371 316.659 261.68 317.128C262 317.597 262.16 318.152 262.16 318.792C262.16 319.155 262.112 319.512 262.016 319.864C261.92 320.216 261.739 320.589 261.472 320.984C261.205 321.379 260.821 321.821 260.32 322.312L256.256 326.232L255.872 325.608H262.64V327H254.592ZM268.516 327.128C267.641 327.128 266.857 326.904 266.164 326.456C265.481 326.008 264.937 325.357 264.532 324.504C264.137 323.651 263.94 322.616 263.94 321.4C263.94 320.184 264.137 319.149 264.532 318.296C264.937 317.443 265.481 316.792 266.164 316.344C266.857 315.896 267.641 315.672 268.516 315.672C269.38 315.672 270.159 315.896 270.852 316.344C271.545 316.792 272.089 317.443 272.484 318.296C272.879 319.149 273.076 320.184 273.076 321.4C273.076 322.616 272.879 323.651 272.484 324.504C272.089 325.357 271.545 326.008 270.852 326.456C270.159 326.904 269.38 327.128 268.516 327.128ZM268.516 325.704C269.103 325.704 269.615 325.544 270.052 325.224C270.5 324.904 270.847 324.424 271.092 323.784C271.348 323.144 271.476 322.349 271.476 321.4C271.476 320.451 271.348 319.656 271.092 319.016C270.847 318.376 270.5 317.896 270.052 317.576C269.615 317.256 269.103 317.096 268.516 317.096C267.929 317.096 267.412 317.256 266.964 317.576C266.516 317.896 266.164 318.376 265.908 319.016C265.663 319.656 265.54 320.451 265.54 321.4C265.54 322.349 265.663 323.144 265.908 323.784C266.164 324.424 266.516 324.904 266.964 325.224C267.412 325.544 267.929 325.704 268.516 325.704ZM276.5 327V316.44L277.188 317.192H273.972V315.8H278.084V327H276.5ZM282.47 327L287.222 316.472L287.638 317.192H280.982L281.782 316.408V319.192H280.246V315.8H288.694V316.888L284.166 327H282.47Z" fill="#282828"/>
<path d="M263.156 285V274.44L263.844 275.192H260.628V273.8H264.74V285H263.156ZM267.27 287.368L268.07 284.136L268.278 285.064C267.969 285.064 267.707 284.968 267.494 284.776C267.291 284.584 267.19 284.323 267.19 283.992C267.19 283.672 267.291 283.411 267.494 283.208C267.707 283.005 267.963 282.904 268.262 282.904C268.571 282.904 268.822 283.011 269.014 283.224C269.206 283.427 269.302 283.683 269.302 283.992C269.302 284.099 269.291 284.205 269.27 284.312C269.259 284.408 269.233 284.525 269.19 284.664C269.158 284.792 269.105 284.952 269.03 285.144L268.278 287.368H267.27ZM270.795 285V283.912L275.355 279.512C275.76 279.128 276.059 278.792 276.251 278.504C276.454 278.205 276.587 277.933 276.651 277.688C276.726 277.432 276.763 277.187 276.763 276.952C276.763 276.376 276.56 275.923 276.155 275.592C275.75 275.261 275.158 275.096 274.379 275.096C273.782 275.096 273.243 275.197 272.763 275.4C272.283 275.592 271.867 275.896 271.515 276.312L270.427 275.368C270.854 274.824 271.424 274.408 272.139 274.12C272.864 273.821 273.659 273.672 274.523 273.672C275.302 273.672 275.979 273.8 276.555 274.056C277.131 274.301 277.574 274.659 277.883 275.128C278.203 275.597 278.363 276.152 278.363 276.792C278.363 277.155 278.315 277.512 278.219 277.864C278.123 278.216 277.942 278.589 277.675 278.984C277.408 279.379 277.024 279.821 276.523 280.312L272.459 284.232L272.075 283.608H278.843V285H270.795Z" fill="white"/>
<path d="M337.692 226.128C336.903 226.128 336.135 226.005 335.388 225.76C334.652 225.515 334.049 225.184 333.58 224.768L334.316 223.504C334.689 223.856 335.175 224.144 335.772 224.368C336.369 224.592 337.009 224.704 337.692 224.704C338.524 224.704 339.169 224.528 339.628 224.176C340.097 223.813 340.332 223.328 340.332 222.72C340.332 222.133 340.108 221.664 339.66 221.312C339.223 220.949 338.524 220.768 337.564 220.768H336.668V219.648L339.996 215.552L340.22 216.192H334.092V214.8H341.484V215.888L338.172 219.968L337.34 219.472H337.868C339.223 219.472 340.236 219.776 340.908 220.384C341.591 220.992 341.932 221.765 341.932 222.704C341.932 223.333 341.777 223.909 341.468 224.432C341.159 224.955 340.689 225.371 340.06 225.68C339.441 225.979 338.652 226.128 337.692 226.128ZM343.504 228.368L344.304 225.136L344.512 226.064C344.203 226.064 343.942 225.968 343.728 225.776C343.526 225.584 343.424 225.323 343.424 224.992C343.424 224.672 343.526 224.411 343.728 224.208C343.942 224.005 344.198 223.904 344.496 223.904C344.806 223.904 345.056 224.011 345.248 224.224C345.44 224.427 345.536 224.683 345.536 224.992C345.536 225.099 345.526 225.205 345.504 225.312C345.494 225.408 345.467 225.525 345.424 225.664C345.392 225.792 345.339 225.952 345.264 226.144L344.512 228.368H343.504ZM346.749 223.248V222.128L352.477 214.8H354.205L348.525 222.128L347.709 221.872H356.653V223.248H346.749ZM352.973 226V223.248L353.021 221.872V219.44H354.525V226H352.973ZM358.663 226L366.311 214.8H367.543L359.895 226H358.663ZM359.559 220.816C359.047 220.816 358.594 220.688 358.199 220.432C357.805 220.176 357.495 219.819 357.271 219.36C357.058 218.901 356.951 218.368 356.951 217.76C356.951 217.152 357.058 216.619 357.271 216.16C357.495 215.701 357.805 215.344 358.199 215.088C358.594 214.832 359.047 214.704 359.559 214.704C360.082 214.704 360.535 214.832 360.919 215.088C361.314 215.344 361.618 215.701 361.831 216.16C362.045 216.619 362.151 217.152 362.151 217.76C362.151 218.368 362.045 218.901 361.831 219.36C361.618 219.819 361.314 220.176 360.919 220.432C360.535 220.688 360.082 220.816 359.559 220.816ZM359.559 219.904C360.05 219.904 360.434 219.717 360.711 219.344C360.989 218.96 361.127 218.432 361.127 217.76C361.127 217.088 360.989 216.565 360.711 216.192C360.434 215.808 360.05 215.616 359.559 215.616C359.079 215.616 358.695 215.808 358.407 216.192C358.13 216.565 357.991 217.088 357.991 217.76C357.991 218.421 358.13 218.944 358.407 219.328C358.695 219.712 359.079 219.904 359.559 219.904ZM366.647 226.096C366.135 226.096 365.682 225.968 365.287 225.712C364.893 225.456 364.589 225.099 364.375 224.64C364.162 224.181 364.055 223.648 364.055 223.04C364.055 222.432 364.162 221.899 364.375 221.44C364.589 220.981 364.893 220.624 365.287 220.368C365.682 220.112 366.135 219.984 366.647 219.984C367.17 219.984 367.623 220.112 368.007 220.368C368.402 220.624 368.706 220.981 368.919 221.44C369.143 221.899 369.255 222.432 369.255 223.04C369.255 223.648 369.143 224.181 368.919 224.64C368.706 225.099 368.402 225.456 368.007 225.712C367.623 225.968 367.17 226.096 366.647 226.096ZM366.647 225.184C367.127 225.184 367.506 224.997 367.783 224.624C368.071 224.24 368.215 223.712 368.215 223.04C368.215 222.379 368.071 221.856 367.783 221.472C367.506 221.088 367.127 220.896 366.647 220.896C366.167 220.896 365.783 221.088 365.495 221.472C365.218 221.845 365.079 222.368 365.079 223.04C365.079 223.712 365.218 224.24 365.495 224.624C365.783 224.997 366.167 225.184 366.647 225.184Z" fill="#282828"/>
<rect x="320.5" y="242" width="63" height="57" fill="#D98029"/>
<path d="M334.092 327V325.912L338.652 321.512C339.057 321.128 339.356 320.792 339.548 320.504C339.751 320.205 339.884 319.933 339.948 319.688C340.023 319.432 340.06 319.187 340.06 318.952C340.06 318.376 339.857 317.923 339.452 317.592C339.047 317.261 338.455 317.096 337.676 317.096C337.079 317.096 336.54 317.197 336.06 317.4C335.58 317.592 335.164 317.896 334.812 318.312L333.724 317.368C334.151 316.824 334.721 316.408 335.436 316.12C336.161 315.821 336.956 315.672 337.82 315.672C338.599 315.672 339.276 315.8 339.852 316.056C340.428 316.301 340.871 316.659 341.18 317.128C341.5 317.597 341.66 318.152 341.66 318.792C341.66 319.155 341.612 319.512 341.516 319.864C341.42 320.216 341.239 320.589 340.972 320.984C340.705 321.379 340.321 321.821 339.82 322.312L335.756 326.232L335.372 325.608H342.14V327H334.092ZM348.016 327.128C347.141 327.128 346.357 326.904 345.664 326.456C344.981 326.008 344.437 325.357 344.032 324.504C343.637 323.651 343.44 322.616 343.44 321.4C343.44 320.184 343.637 319.149 344.032 318.296C344.437 317.443 344.981 316.792 345.664 316.344C346.357 315.896 347.141 315.672 348.016 315.672C348.88 315.672 349.659 315.896 350.352 316.344C351.045 316.792 351.589 317.443 351.984 318.296C352.379 319.149 352.576 320.184 352.576 321.4C352.576 322.616 352.379 323.651 351.984 324.504C351.589 325.357 351.045 326.008 350.352 326.456C349.659 326.904 348.88 327.128 348.016 327.128ZM348.016 325.704C348.603 325.704 349.115 325.544 349.552 325.224C350 324.904 350.347 324.424 350.592 323.784C350.848 323.144 350.976 322.349 350.976 321.4C350.976 320.451 350.848 319.656 350.592 319.016C350.347 318.376 350 317.896 349.552 317.576C349.115 317.256 348.603 317.096 348.016 317.096C347.429 317.096 346.912 317.256 346.464 317.576C346.016 317.896 345.664 318.376 345.408 319.016C345.163 319.656 345.04 320.451 345.04 321.4C345.04 322.349 345.163 323.144 345.408 323.784C345.664 324.424 346.016 324.904 346.464 325.224C346.912 325.544 347.429 325.704 348.016 325.704ZM356 327V316.44L356.688 317.192H353.472V315.8H357.584V327H356ZM364.402 327.128C363.495 327.128 362.711 326.995 362.05 326.728C361.388 326.461 360.876 326.083 360.514 325.592C360.151 325.091 359.97 324.504 359.97 323.832C359.97 323.171 360.14 322.611 360.482 322.152C360.834 321.683 361.34 321.331 362.002 321.096C362.663 320.851 363.463 320.728 364.402 320.728C365.34 320.728 366.14 320.851 366.802 321.096C367.474 321.331 367.986 321.683 368.338 322.152C368.69 322.621 368.866 323.181 368.866 323.832C368.866 324.504 368.684 325.091 368.322 325.592C367.959 326.083 367.442 326.461 366.77 326.728C366.098 326.995 365.308 327.128 364.402 327.128ZM364.402 325.832C365.298 325.832 365.996 325.651 366.498 325.288C367.01 324.915 367.266 324.413 367.266 323.784C367.266 323.165 367.01 322.68 366.498 322.328C365.996 321.965 365.298 321.784 364.402 321.784C363.516 321.784 362.823 321.965 362.322 322.328C361.82 322.68 361.57 323.165 361.57 323.784C361.57 324.413 361.82 324.915 362.322 325.288C362.823 325.651 363.516 325.832 364.402 325.832ZM364.402 321.592C363.548 321.592 362.823 321.48 362.226 321.256C361.628 321.021 361.17 320.691 360.85 320.264C360.53 319.827 360.37 319.309 360.37 318.712C360.37 318.083 360.535 317.544 360.866 317.096C361.207 316.637 361.682 316.285 362.29 316.04C362.898 315.795 363.602 315.672 364.402 315.672C365.212 315.672 365.922 315.795 366.53 316.04C367.138 316.285 367.612 316.637 367.954 317.096C368.295 317.544 368.466 318.083 368.466 318.712C368.466 319.309 368.306 319.827 367.986 320.264C367.666 320.691 367.202 321.021 366.594 321.256C365.986 321.48 365.255 321.592 364.402 321.592ZM364.402 320.568C365.18 320.568 365.788 320.408 366.226 320.088C366.674 319.768 366.898 319.331 366.898 318.776C366.898 318.211 366.668 317.768 366.21 317.448C365.751 317.128 365.148 316.968 364.402 316.968C363.655 316.968 363.058 317.128 362.61 317.448C362.172 317.768 361.954 318.211 361.954 318.776C361.954 319.331 362.167 319.768 362.594 320.088C363.031 320.408 363.634 320.568 364.402 320.568Z" fill="#282828"/>
<path d="M343.156 285V274.44L343.844 275.192H340.628V273.8H344.74V285H343.156ZM347.27 287.368L348.07 284.136L348.278 285.064C347.969 285.064 347.707 284.968 347.494 284.776C347.291 284.584 347.19 284.323 347.19 283.992C347.19 283.672 347.291 283.411 347.494 283.208C347.707 283.005 347.963 282.904 348.262 282.904C348.571 282.904 348.822 283.011 349.014 283.224C349.206 283.427 349.302 283.683 349.302 283.992C349.302 284.099 349.291 284.205 349.27 284.312C349.259 284.408 349.233 284.525 349.19 284.664C349.158 284.792 349.105 284.952 349.03 285.144L348.278 287.368H347.27ZM352.548 285L357.3 274.472L357.716 275.192H351.06L351.86 274.408V277.192H350.324V273.8H358.772V274.888L354.244 285H352.548Z" fill="white"/>
<path d="M414.656 73V62.44L415.344 63.192H412.128V61.8H416.24V73H414.656ZM420.578 73V62.44L421.266 63.192H418.05V61.8H422.162V73H420.578ZM424.692 75.368L425.492 72.136L425.7 73.064C425.39 73.064 425.129 72.968 424.916 72.776C424.713 72.584 424.612 72.3227 424.612 71.992C424.612 71.672 424.713 71.4107 424.916 71.208C425.129 71.0053 425.385 70.904 425.684 70.904C425.993 70.904 426.244 71.0107 426.436 71.224C426.628 71.4267 426.724 71.6827 426.724 71.992C426.724 72.0987 426.713 72.2053 426.692 72.312C426.681 72.408 426.654 72.5253 426.612 72.664C426.58 72.792 426.526 72.952 426.452 73.144L425.7 75.368H424.692ZM432.761 73.128C431.854 73.128 431.07 72.9947 430.409 72.728C429.748 72.4613 429.236 72.0827 428.873 71.592C428.51 71.0907 428.329 70.504 428.329 69.832C428.329 69.1707 428.5 68.6107 428.841 68.152C429.193 67.6827 429.7 67.3307 430.361 67.096C431.022 66.8507 431.822 66.728 432.761 66.728C433.7 66.728 434.5 66.8507 435.161 67.096C435.833 67.3307 436.345 67.6827 436.697 68.152C437.049 68.6213 437.225 69.1813 437.225 69.832C437.225 70.504 437.044 71.0907 436.681 71.592C436.318 72.0827 435.801 72.4613 435.129 72.728C434.457 72.9947 433.668 73.128 432.761 73.128ZM432.761 71.832C433.657 71.832 434.356 71.6507 434.857 71.288C435.369 70.9147 435.625 70.4133 435.625 69.784C435.625 69.1653 435.369 68.68 434.857 68.328C434.356 67.9653 433.657 67.784 432.761 67.784C431.876 67.784 431.182 67.9653 430.681 68.328C430.18 68.68 429.929 69.1653 429.929 69.784C429.929 70.4133 430.18 70.9147 430.681 71.288C431.182 71.6507 431.876 71.832 432.761 71.832ZM432.761 67.592C431.908 67.592 431.182 67.48 430.585 67.256C429.988 67.0213 429.529 66.6907 429.209 66.264C428.889 65.8267 428.729 65.3093 428.729 64.712C428.729 64.0827 428.894 63.544 429.225 63.096C429.566 62.6373 430.041 62.2853 430.649 62.04C431.257 61.7947 431.961 61.672 432.761 61.672C433.572 61.672 434.281 61.7947 434.889 62.04C435.497 62.2853 435.972 62.6373 436.313 63.096C436.654 63.544 436.825 64.0827 436.825 64.712C436.825 65.3093 436.665 65.8267 436.345 66.264C436.025 66.6907 435.561 67.0213 434.953 67.256C434.345 67.48 433.614 67.592 432.761 67.592ZM432.761 66.568C433.54 66.568 434.148 66.408 434.585 66.088C435.033 65.768 435.257 65.3307 435.257 64.776C435.257 64.2107 435.028 63.768 434.569 63.448C434.11 63.128 433.508 62.968 432.761 62.968C432.014 62.968 431.417 63.128 430.969 63.448C430.532 63.768 430.313 64.2107 430.313 64.776C430.313 65.3307 430.526 65.768 430.953 66.088C431.39 66.408 431.993 66.568 432.761 66.568ZM440.07 73L447.718 61.8H448.95L441.302 73H440.07ZM440.966 67.816C440.454 67.816 440 67.688 439.606 67.432C439.211 67.176 438.902 66.8187 438.678 66.36C438.464 65.9013 438.358 65.368 438.358 64.76C438.358 64.152 438.464 63.6187 438.678 63.16C438.902 62.7013 439.211 62.344 439.606 62.088C440 61.832 440.454 61.704 440.966 61.704C441.488 61.704 441.942 61.832 442.326 62.088C442.72 62.344 443.024 62.7013 443.238 63.16C443.451 63.6187 443.558 64.152 443.558 64.76C443.558 65.368 443.451 65.9013 443.238 66.36C443.024 66.8187 442.72 67.176 442.326 67.432C441.942 67.688 441.488 67.816 440.966 67.816ZM440.966 66.904C441.456 66.904 441.84 66.7173 442.118 66.344C442.395 65.96 442.534 65.432 442.534 64.76C442.534 64.088 442.395 63.5653 442.118 63.192C441.84 62.808 441.456 62.616 440.966 62.616C440.486 62.616 440.102 62.808 439.814 63.192C439.536 63.5653 439.398 64.088 439.398 64.76C439.398 65.4213 439.536 65.944 439.814 66.328C440.102 66.712 440.486 66.904 440.966 66.904ZM448.054 73.096C447.542 73.096 447.088 72.968 446.694 72.712C446.299 72.456 445.995 72.0987 445.782 71.64C445.568 71.1813 445.462 70.648 445.462 70.04C445.462 69.432 445.568 68.8987 445.782 68.44C445.995 67.9813 446.299 67.624 446.694 67.368C447.088 67.112 447.542 66.984 448.054 66.984C448.576 66.984 449.03 67.112 449.414 67.368C449.808 67.624 450.112 67.9813 450.326 68.44C450.55 68.8987 450.662 69.432 450.662 70.04C450.662 70.648 450.55 71.1813 450.326 71.64C450.112 72.0987 449.808 72.456 449.414 72.712C449.03 72.968 448.576 73.096 448.054 73.096ZM448.054 72.184C448.534 72.184 448.912 71.9973 449.19 71.624C449.478 71.24 449.622 70.712 449.622 70.04C449.622 69.3787 449.478 68.856 449.19 68.472C448.912 68.088 448.534 67.896 448.054 67.896C447.574 67.896 447.19 68.088 446.902 68.472C446.624 68.8453 446.486 69.368 446.486 70.04C446.486 70.712 446.624 71.24 446.902 71.624C447.19 71.9973 447.574 72.184 448.054 72.184Z" fill="#282828"/>
<rect x="400.5" y="89" width="63" height="210" fill="#D98029"/>
<path d="M414.592 327V325.912L419.152 321.512C419.557 321.128 419.856 320.792 420.048 320.504C420.251 320.205 420.384 319.933 420.448 319.688C420.523 319.432 420.56 319.187 420.56 318.952C420.56 318.376 420.357 317.923 419.952 317.592C419.547 317.261 418.955 317.096 418.176 317.096C417.579 317.096 417.04 317.197 416.56 317.4C416.08 317.592 415.664 317.896 415.312 318.312L414.224 317.368C414.651 316.824 415.221 316.408 415.936 316.12C416.661 315.821 417.456 315.672 418.32 315.672C419.099 315.672 419.776 315.8 420.352 316.056C420.928 316.301 421.371 316.659 421.68 317.128C422 317.597 422.16 318.152 422.16 318.792C422.16 319.155 422.112 319.512 422.016 319.864C421.92 320.216 421.739 320.589 421.472 320.984C421.205 321.379 420.821 321.821 420.32 322.312L416.256 326.232L415.872 325.608H422.64V327H414.592ZM428.516 327.128C427.641 327.128 426.857 326.904 426.164 326.456C425.481 326.008 424.937 325.357 424.532 324.504C424.137 323.651 423.94 322.616 423.94 321.4C423.94 320.184 424.137 319.149 424.532 318.296C424.937 317.443 425.481 316.792 426.164 316.344C426.857 315.896 427.641 315.672 428.516 315.672C429.38 315.672 430.159 315.896 430.852 316.344C431.545 316.792 432.089 317.443 432.484 318.296C432.879 319.149 433.076 320.184 433.076 321.4C433.076 322.616 432.879 323.651 432.484 324.504C432.089 325.357 431.545 326.008 430.852 326.456C430.159 326.904 429.38 327.128 428.516 327.128ZM428.516 325.704C429.103 325.704 429.615 325.544 430.052 325.224C430.5 324.904 430.847 324.424 431.092 323.784C431.348 323.144 431.476 322.349 431.476 321.4C431.476 320.451 431.348 319.656 431.092 319.016C430.847 318.376 430.5 317.896 430.052 317.576C429.615 317.256 429.103 317.096 428.516 317.096C427.929 317.096 427.412 317.256 426.964 317.576C426.516 317.896 426.164 318.376 425.908 319.016C425.663 319.656 425.54 320.451 425.54 321.4C425.54 322.349 425.663 323.144 425.908 323.784C426.164 324.424 426.516 324.904 426.964 325.224C427.412 325.544 427.929 325.704 428.516 325.704ZM436.5 327V316.44L437.188 317.192H433.972V315.8H438.084V327H436.5ZM444.166 315.672C445.179 315.672 446.032 315.891 446.726 316.328C447.43 316.765 447.963 317.4 448.326 318.232C448.688 319.053 448.87 320.061 448.87 321.256C448.87 322.525 448.646 323.597 448.198 324.472C447.75 325.347 447.131 326.008 446.342 326.456C445.552 326.904 444.63 327.128 443.574 327.128C443.051 327.128 442.544 327.075 442.054 326.968C441.574 326.861 441.152 326.696 440.79 326.472L441.398 325.224C441.696 325.416 442.027 325.555 442.39 325.64C442.763 325.715 443.152 325.752 443.558 325.752C444.688 325.752 445.59 325.4 446.262 324.696C446.934 323.981 447.27 322.925 447.27 321.528C447.27 321.304 447.259 321.037 447.238 320.728C447.216 320.419 447.168 320.115 447.094 319.816L447.622 320.36C447.472 320.851 447.222 321.267 446.87 321.608C446.528 321.939 446.112 322.189 445.622 322.36C445.142 322.52 444.614 322.6 444.038 322.6C443.302 322.6 442.646 322.461 442.07 322.184C441.494 321.907 441.04 321.517 440.71 321.016C440.379 320.504 440.214 319.901 440.214 319.208C440.214 318.483 440.384 317.859 440.726 317.336C441.078 316.803 441.552 316.392 442.15 316.104C442.758 315.816 443.43 315.672 444.166 315.672ZM444.23 316.968C443.75 316.968 443.323 317.059 442.95 317.24C442.576 317.421 442.283 317.672 442.07 317.992C441.867 318.312 441.766 318.696 441.766 319.144C441.766 319.805 441.995 320.333 442.454 320.728C442.912 321.112 443.531 321.304 444.31 321.304C444.822 321.304 445.27 321.208 445.654 321.016C446.048 320.824 446.352 320.563 446.566 320.232C446.79 319.901 446.902 319.533 446.902 319.128C446.902 318.733 446.8 318.376 446.598 318.056C446.395 317.736 446.096 317.475 445.702 317.272C445.307 317.069 444.816 316.968 444.23 316.968Z" fill="#282828"/>
<path d="M421.972 198.128C420.98 198.128 420.132 197.909 419.428 197.472C418.724 197.035 418.185 196.405 417.812 195.584C417.449 194.752 417.268 193.739 417.268 192.544C417.268 191.275 417.492 190.203 417.94 189.328C418.388 188.453 419.012 187.792 419.812 187.344C420.612 186.896 421.529 186.672 422.564 186.672C423.097 186.672 423.604 186.725 424.084 186.832C424.575 186.939 424.996 187.104 425.348 187.328L424.74 188.576C424.452 188.373 424.121 188.235 423.748 188.16C423.385 188.085 423.001 188.048 422.596 188.048C421.455 188.048 420.548 188.405 419.876 189.12C419.204 189.824 418.868 190.875 418.868 192.272C418.868 192.496 418.879 192.763 418.9 193.072C418.921 193.381 418.975 193.685 419.06 193.984L418.516 193.44C418.676 192.949 418.927 192.539 419.268 192.208C419.62 191.867 420.036 191.616 420.516 191.456C421.007 191.285 421.535 191.2 422.1 191.2C422.847 191.2 423.508 191.339 424.084 191.616C424.66 191.893 425.113 192.288 425.444 192.8C425.775 193.301 425.94 193.899 425.94 194.592C425.94 195.307 425.764 195.931 425.412 196.464C425.06 196.997 424.585 197.408 423.988 197.696C423.391 197.984 422.719 198.128 421.972 198.128ZM421.908 196.832C422.399 196.832 422.825 196.741 423.188 196.56C423.561 196.379 423.855 196.128 424.068 195.808C424.281 195.477 424.388 195.093 424.388 194.656C424.388 193.995 424.159 193.472 423.7 193.088C423.241 192.693 422.617 192.496 421.828 192.496C421.316 192.496 420.868 192.592 420.484 192.784C420.1 192.976 419.796 193.237 419.572 193.568C419.359 193.888 419.252 194.256 419.252 194.672C419.252 195.056 419.353 195.413 419.556 195.744C419.759 196.064 420.057 196.325 420.452 196.528C420.847 196.731 421.332 196.832 421.908 196.832ZM427.379 200.368L428.179 197.136L428.387 198.064C428.078 198.064 427.817 197.968 427.603 197.776C427.401 197.584 427.299 197.323 427.299 196.992C427.299 196.672 427.401 196.411 427.603 196.208C427.817 196.005 428.073 195.904 428.371 195.904C428.681 195.904 428.931 196.011 429.123 196.224C429.315 196.427 429.411 196.683 429.411 196.992C429.411 197.099 429.401 197.205 429.379 197.312C429.369 197.408 429.342 197.525 429.299 197.664C429.267 197.792 429.214 197.952 429.139 198.144L428.387 200.368H427.379ZM430.624 195.248V194.128L436.352 186.8H438.08L432.4 194.128L431.584 193.872H440.528V195.248H430.624ZM436.848 198V195.248L436.896 193.872V191.44H438.4V198H436.848Z" fill="white"/>
<path d="M495.156 64V53.44L495.844 54.192H492.628V52.8H496.74V64H495.156ZM499.014 64V62.912L503.574 58.512C503.979 58.128 504.278 57.792 504.47 57.504C504.673 57.2053 504.806 56.9333 504.87 56.688C504.945 56.432 504.982 56.1867 504.982 55.952C504.982 55.376 504.779 54.9227 504.374 54.592C503.969 54.2613 503.377 54.096 502.598 54.096C502.001 54.096 501.462 54.1973 500.982 54.4C500.502 54.592 500.086 54.896 499.734 55.312L498.646 54.368C499.073 53.824 499.643 53.408 500.358 53.12C501.083 52.8213 501.878 52.672 502.742 52.672C503.521 52.672 504.198 52.8 504.774 53.056C505.35 53.3013 505.793 53.6587 506.102 54.128C506.422 54.5973 506.582 55.152 506.582 55.792C506.582 56.1547 506.534 56.512 506.438 56.864C506.342 57.216 506.161 57.5893 505.894 57.984C505.627 58.3787 505.243 58.8213 504.742 59.312L500.678 63.232L500.294 62.608H507.062V64H499.014ZM508.614 66.368L509.414 63.136L509.622 64.064C509.312 64.064 509.051 63.968 508.838 63.776C508.635 63.584 508.534 63.3227 508.534 62.992C508.534 62.672 508.635 62.4107 508.838 62.208C509.051 62.0053 509.307 61.904 509.606 61.904C509.915 61.904 510.166 62.0107 510.358 62.224C510.55 62.4267 510.646 62.6827 510.646 62.992C510.646 63.0987 510.635 63.2053 510.614 63.312C510.603 63.408 510.576 63.5253 510.534 63.664C510.502 63.792 510.448 63.952 510.374 64.144L509.622 66.368H508.614ZM513.844 64V53.44L514.532 54.192H511.316V52.8H515.428V64H513.844ZM519.413 64L527.061 52.8H528.293L520.645 64H519.413ZM520.309 58.816C519.797 58.816 519.344 58.688 518.949 58.432C518.555 58.176 518.245 57.8187 518.021 57.36C517.808 56.9013 517.701 56.368 517.701 55.76C517.701 55.152 517.808 54.6187 518.021 54.16C518.245 53.7013 518.555 53.344 518.949 53.088C519.344 52.832 519.797 52.704 520.309 52.704C520.832 52.704 521.285 52.832 521.669 53.088C522.064 53.344 522.368 53.7013 522.581 54.16C522.795 54.6187 522.901 55.152 522.901 55.76C522.901 56.368 522.795 56.9013 522.581 57.36C522.368 57.8187 522.064 58.176 521.669 58.432C521.285 58.688 520.832 58.816 520.309 58.816ZM520.309 57.904C520.8 57.904 521.184 57.7173 521.461 57.344C521.739 56.96 521.877 56.432 521.877 55.76C521.877 55.088 521.739 54.5653 521.461 54.192C521.184 53.808 520.8 53.616 520.309 53.616C519.829 53.616 519.445 53.808 519.157 54.192C518.88 54.5653 518.741 55.088 518.741 55.76C518.741 56.4213 518.88 56.944 519.157 57.328C519.445 57.712 519.829 57.904 520.309 57.904ZM527.397 64.096C526.885 64.096 526.432 63.968 526.037 63.712C525.643 63.456 525.339 63.0987 525.125 62.64C524.912 62.1813 524.805 61.648 524.805 61.04C524.805 60.432 524.912 59.8987 525.125 59.44C525.339 58.9813 525.643 58.624 526.037 58.368C526.432 58.112 526.885 57.984 527.397 57.984C527.92 57.984 528.373 58.112 528.757 58.368C529.152 58.624 529.456 58.9813 529.669 59.44C529.893 59.8987 530.005 60.432 530.005 61.04C530.005 61.648 529.893 62.1813 529.669 62.64C529.456 63.0987 529.152 63.456 528.757 63.712C528.373 63.968 527.92 64.096 527.397 64.096ZM527.397 63.184C527.877 63.184 528.256 62.9973 528.533 62.624C528.821 62.24 528.965 61.712 528.965 61.04C528.965 60.3787 528.821 59.856 528.533 59.472C528.256 59.088 527.877 58.896 527.397 58.896C526.917 58.896 526.533 59.088 526.245 59.472C525.968 59.8453 525.829 60.368 525.829 61.04C525.829 61.712 525.968 62.24 526.245 62.624C526.533 62.9973 526.917 63.184 527.397 63.184Z" fill="#282828"/>
<rect x="480.5" y="80" width="63" height="219" fill="#D98029"/>
<path d="M492.592 327V325.912L497.152 321.512C497.557 321.128 497.856 320.792 498.048 320.504C498.251 320.205 498.384 319.933 498.448 319.688C498.523 319.432 498.56 319.187 498.56 318.952C498.56 318.376 498.357 317.923 497.952 317.592C497.547 317.261 496.955 317.096 496.176 317.096C495.579 317.096 495.04 317.197 494.56 317.4C494.08 317.592 493.664 317.896 493.312 318.312L492.224 317.368C492.651 316.824 493.221 316.408 493.936 316.12C494.661 315.821 495.456 315.672 496.32 315.672C497.099 315.672 497.776 315.8 498.352 316.056C498.928 316.301 499.371 316.659 499.68 317.128C500 317.597 500.16 318.152 500.16 318.792C500.16 319.155 500.112 319.512 500.016 319.864C499.92 320.216 499.739 320.589 499.472 320.984C499.205 321.379 498.821 321.821 498.32 322.312L494.256 326.232L493.872 325.608H500.64V327H492.592ZM506.516 327.128C505.641 327.128 504.857 326.904 504.164 326.456C503.481 326.008 502.937 325.357 502.532 324.504C502.137 323.651 501.94 322.616 501.94 321.4C501.94 320.184 502.137 319.149 502.532 318.296C502.937 317.443 503.481 316.792 504.164 316.344C504.857 315.896 505.641 315.672 506.516 315.672C507.38 315.672 508.159 315.896 508.852 316.344C509.545 316.792 510.089 317.443 510.484 318.296C510.879 319.149 511.076 320.184 511.076 321.4C511.076 322.616 510.879 323.651 510.484 324.504C510.089 325.357 509.545 326.008 508.852 326.456C508.159 326.904 507.38 327.128 506.516 327.128ZM506.516 325.704C507.103 325.704 507.615 325.544 508.052 325.224C508.5 324.904 508.847 324.424 509.092 323.784C509.348 323.144 509.476 322.349 509.476 321.4C509.476 320.451 509.348 319.656 509.092 319.016C508.847 318.376 508.5 317.896 508.052 317.576C507.615 317.256 507.103 317.096 506.516 317.096C505.929 317.096 505.412 317.256 504.964 317.576C504.516 317.896 504.164 318.376 503.908 319.016C503.663 319.656 503.54 320.451 503.54 321.4C503.54 322.349 503.663 323.144 503.908 323.784C504.164 324.424 504.516 324.904 504.964 325.224C505.412 325.544 505.929 325.704 506.516 325.704ZM512.436 327V325.912L516.996 321.512C517.401 321.128 517.7 320.792 517.892 320.504C518.094 320.205 518.228 319.933 518.292 319.688C518.366 319.432 518.404 319.187 518.404 318.952C518.404 318.376 518.201 317.923 517.796 317.592C517.39 317.261 516.798 317.096 516.02 317.096C515.422 317.096 514.884 317.197 514.404 317.4C513.924 317.592 513.508 317.896 513.156 318.312L512.068 317.368C512.494 316.824 513.065 316.408 513.78 316.12C514.505 315.821 515.3 315.672 516.164 315.672C516.942 315.672 517.62 315.8 518.196 316.056C518.772 316.301 519.214 316.659 519.524 317.128C519.844 317.597 520.004 318.152 520.004 318.792C520.004 319.155 519.956 319.512 519.86 319.864C519.764 320.216 519.582 320.589 519.316 320.984C519.049 321.379 518.665 321.821 518.164 322.312L514.1 326.232L513.716 325.608H520.484V327H512.436ZM526.36 327.128C525.485 327.128 524.701 326.904 524.008 326.456C523.325 326.008 522.781 325.357 522.376 324.504C521.981 323.651 521.784 322.616 521.784 321.4C521.784 320.184 521.981 319.149 522.376 318.296C522.781 317.443 523.325 316.792 524.008 316.344C524.701 315.896 525.485 315.672 526.36 315.672C527.224 315.672 528.002 315.896 528.696 316.344C529.389 316.792 529.933 317.443 530.328 318.296C530.722 319.149 530.92 320.184 530.92 321.4C530.92 322.616 530.722 323.651 530.328 324.504C529.933 325.357 529.389 326.008 528.696 326.456C528.002 326.904 527.224 327.128 526.36 327.128ZM526.36 325.704C526.946 325.704 527.458 325.544 527.896 325.224C528.344 324.904 528.69 324.424 528.936 323.784C529.192 323.144 529.32 322.349 529.32 321.4C529.32 320.451 529.192 319.656 528.936 319.016C528.69 318.376 528.344 317.896 527.896 317.576C527.458 317.256 526.946 317.096 526.36 317.096C525.773 317.096 525.256 317.256 524.808 317.576C524.36 317.896 524.008 318.376 523.752 319.016C523.506 319.656 523.384 320.451 523.384 321.4C523.384 322.349 523.506 323.144 523.752 323.784C524.008 324.424 524.36 324.904 524.808 325.224C525.256 325.544 525.773 325.704 526.36 325.704Z" fill="#282828"/>
<path d="M502.972 194.128C501.98 194.128 501.132 193.909 500.428 193.472C499.724 193.035 499.185 192.405 498.812 191.584C498.449 190.752 498.268 189.739 498.268 188.544C498.268 187.275 498.492 186.203 498.94 185.328C499.388 184.453 500.012 183.792 500.812 183.344C501.612 182.896 502.529 182.672 503.564 182.672C504.097 182.672 504.604 182.725 505.084 182.832C505.575 182.939 505.996 183.104 506.348 183.328L505.74 184.576C505.452 184.373 505.121 184.235 504.748 184.16C504.385 184.085 504.001 184.048 503.596 184.048C502.455 184.048 501.548 184.405 500.876 185.12C500.204 185.824 499.868 186.875 499.868 188.272C499.868 188.496 499.879 188.763 499.9 189.072C499.921 189.381 499.975 189.685 500.06 189.984L499.516 189.44C499.676 188.949 499.927 188.539 500.268 188.208C500.62 187.867 501.036 187.616 501.516 187.456C502.007 187.285 502.535 187.2 503.1 187.2C503.847 187.2 504.508 187.339 505.084 187.616C505.66 187.893 506.113 188.288 506.444 188.8C506.775 189.301 506.94 189.899 506.94 190.592C506.94 191.307 506.764 191.931 506.412 192.464C506.06 192.997 505.585 193.408 504.988 193.696C504.391 193.984 503.719 194.128 502.972 194.128ZM502.908 192.832C503.399 192.832 503.825 192.741 504.188 192.56C504.561 192.379 504.855 192.128 505.068 191.808C505.281 191.477 505.388 191.093 505.388 190.656C505.388 189.995 505.159 189.472 504.7 189.088C504.241 188.693 503.617 188.496 502.828 188.496C502.316 188.496 501.868 188.592 501.484 188.784C501.1 188.976 500.796 189.237 500.572 189.568C500.359 189.888 500.252 190.256 500.252 190.672C500.252 191.056 500.353 191.413 500.556 191.744C500.759 192.064 501.057 192.325 501.452 192.528C501.847 192.731 502.332 192.832 502.908 192.832ZM508.379 196.368L509.179 193.136L509.387 194.064C509.078 194.064 508.817 193.968 508.603 193.776C508.401 193.584 508.299 193.323 508.299 192.992C508.299 192.672 508.401 192.411 508.603 192.208C508.817 192.005 509.073 191.904 509.371 191.904C509.681 191.904 509.931 192.011 510.123 192.224C510.315 192.427 510.411 192.683 510.411 192.992C510.411 193.099 510.401 193.205 510.379 193.312C510.369 193.408 510.342 193.525 510.299 193.664C510.267 193.792 510.214 193.952 510.139 194.144L509.387 196.368H508.379ZM516.441 194.128C515.449 194.128 514.601 193.909 513.897 193.472C513.193 193.035 512.654 192.405 512.281 191.584C511.918 190.752 511.737 189.739 511.737 188.544C511.737 187.275 511.961 186.203 512.409 185.328C512.857 184.453 513.481 183.792 514.281 183.344C515.081 182.896 515.998 182.672 517.033 182.672C517.566 182.672 518.073 182.725 518.553 182.832C519.043 182.939 519.465 183.104 519.817 183.328L519.209 184.576C518.921 184.373 518.59 184.235 518.217 184.16C517.854 184.085 517.47 184.048 517.065 184.048C515.923 184.048 515.017 184.405 514.345 185.12C513.673 185.824 513.337 186.875 513.337 188.272C513.337 188.496 513.347 188.763 513.369 189.072C513.39 189.381 513.443 189.685 513.529 189.984L512.985 189.44C513.145 188.949 513.395 188.539 513.737 188.208C514.089 187.867 514.505 187.616 514.985 187.456C515.475 187.285 516.003 187.2 516.569 187.2C517.315 187.2 517.977 187.339 518.553 187.616C519.129 187.893 519.582 188.288 519.913 188.8C520.243 189.301 520.409 189.899 520.409 190.592C520.409 191.307 520.233 191.931 519.881 192.464C519.529 192.997 519.054 193.408 518.457 193.696C517.859 193.984 517.187 194.128 516.441 194.128ZM516.377 192.832C516.867 192.832 517.294 192.741 517.657 192.56C518.03 192.379 518.323 192.128 518.537 191.808C518.75 191.477 518.857 191.093 518.857 190.656C518.857 189.995 518.627 189.472 518.169 189.088C517.71 188.693 517.086 188.496 516.297 188.496C515.785 188.496 515.337 188.592 514.953 188.784C514.569 188.976 514.265 189.237 514.041 189.568C513.827 189.888 513.721 190.256 513.721 190.672C513.721 191.056 513.822 191.413 514.025 191.744C514.227 192.064 514.526 192.325 514.921 192.528C515.315 192.731 515.801 192.832 516.377 192.832Z" fill="white"/>
<path d="M572.656 18V7.44L573.344 8.192H570.128V6.8H574.24V18H572.656ZM576.53 15.248V14.128L582.258 6.8H583.986L578.306 14.128L577.49 13.872H586.434V15.248H576.53ZM582.754 18V15.248L582.802 13.872V11.44H584.306V18H582.754ZM587.786 20.368L588.586 17.136L588.794 18.064C588.484 18.064 588.223 17.968 588.01 17.776C587.807 17.584 587.706 17.3227 587.706 16.992C587.706 16.672 587.807 16.4107 588.01 16.208C588.223 16.0053 588.479 15.904 588.778 15.904C589.087 15.904 589.338 16.0107 589.53 16.224C589.722 16.4267 589.818 16.6827 589.818 16.992C589.818 17.0987 589.807 17.2053 589.786 17.312C589.775 17.408 589.748 17.5253 589.706 17.664C589.674 17.792 589.62 17.952 589.546 18.144L588.794 20.368H587.786ZM594.911 18.128C594.121 18.128 593.353 18.0053 592.607 17.76C591.871 17.5147 591.268 17.184 590.799 16.768L591.535 15.504C591.908 15.856 592.393 16.144 592.991 16.368C593.588 16.592 594.228 16.704 594.911 16.704C595.743 16.704 596.388 16.528 596.847 16.176C597.316 15.8133 597.551 15.328 597.551 14.72C597.551 14.1333 597.327 13.664 596.879 13.312C596.441 12.9493 595.743 12.768 594.783 12.768H593.887V11.648L597.215 7.552L597.439 8.192H591.311V6.8H598.703V7.888L595.391 11.968L594.559 11.472H595.087C596.441 11.472 597.455 11.776 598.127 12.384C598.809 12.992 599.151 13.7653 599.151 14.704C599.151 15.3333 598.996 15.9093 598.687 16.432C598.377 16.9547 597.908 17.3707 597.279 17.68C596.66 17.9787 595.871 18.128 594.911 18.128ZM602.023 18L609.671 6.8H610.903L603.255 18H602.023ZM602.919 12.816C602.407 12.816 601.953 12.688 601.559 12.432C601.164 12.176 600.855 11.8187 600.631 11.36C600.417 10.9013 600.311 10.368 600.311 9.76C600.311 9.152 600.417 8.61867 600.631 8.16C600.855 7.70133 601.164 7.344 601.559 7.088C601.953 6.832 602.407 6.704 602.919 6.704C603.441 6.704 603.895 6.832 604.279 7.088C604.673 7.344 604.977 7.70133 605.191 8.16C605.404 8.61867 605.511 9.152 605.511 9.76C605.511 10.368 605.404 10.9013 605.191 11.36C604.977 11.8187 604.673 12.176 604.279 12.432C603.895 12.688 603.441 12.816 602.919 12.816ZM602.919 11.904C603.409 11.904 603.793 11.7173 604.071 11.344C604.348 10.96 604.487 10.432 604.487 9.76C604.487 9.088 604.348 8.56533 604.071 8.192C603.793 7.808 603.409 7.616 602.919 7.616C602.439 7.616 602.055 7.808 601.767 8.192C601.489 8.56533 601.351 9.088 601.351 9.76C601.351 10.4213 601.489 10.944 601.767 11.328C602.055 11.712 602.439 11.904 602.919 11.904ZM610.007 18.096C609.495 18.096 609.041 17.968 608.647 17.712C608.252 17.456 607.948 17.0987 607.735 16.64C607.521 16.1813 607.415 15.648 607.415 15.04C607.415 14.432 607.521 13.8987 607.735 13.44C607.948 12.9813 608.252 12.624 608.647 12.368C609.041 12.112 609.495 11.984 610.007 11.984C610.529 11.984 610.983 12.112 611.367 12.368C611.761 12.624 612.065 12.9813 612.279 13.44C612.503 13.8987 612.615 14.432 612.615 15.04C612.615 15.648 612.503 16.1813 612.279 16.64C612.065 17.0987 611.761 17.456 611.367 17.712C610.983 17.968 610.529 18.096 610.007 18.096ZM610.007 17.184C610.487 17.184 610.865 16.9973 611.143 16.624C611.431 16.24 611.575 15.712 611.575 15.04C611.575 14.3787 611.431 13.856 611.143 13.472C610.865 13.088 610.487 12.896 610.007 12.896C609.527 12.896 609.143 13.088 608.855 13.472C608.577 13.8453 608.439 14.368 608.439 15.04C608.439 15.712 608.577 16.24 608.855 16.624C609.143 16.9973 609.527 17.184 610.007 17.184Z" fill="#282828"/>
<rect x="560.5" y="34" width="63" height="265" fill="#D98029"/>
<path d="M575.092 327V325.912L579.652 321.512C580.057 321.128 580.356 320.792 580.548 320.504C580.751 320.205 580.884 319.933 580.948 319.688C581.023 319.432 581.06 319.187 581.06 318.952C581.06 318.376 580.857 317.923 580.452 317.592C580.047 317.261 579.455 317.096 578.676 317.096C578.079 317.096 577.54 317.197 577.06 317.4C576.58 317.592 576.164 317.896 575.812 318.312L574.724 317.368C575.151 316.824 575.721 316.408 576.436 316.12C577.161 315.821 577.956 315.672 578.82 315.672C579.599 315.672 580.276 315.8 580.852 316.056C581.428 316.301 581.871 316.659 582.18 317.128C582.5 317.597 582.66 318.152 582.66 318.792C582.66 319.155 582.612 319.512 582.516 319.864C582.42 320.216 582.239 320.589 581.972 320.984C581.705 321.379 581.321 321.821 580.82 322.312L576.756 326.232L576.372 325.608H583.14V327H575.092ZM589.016 327.128C588.141 327.128 587.357 326.904 586.664 326.456C585.981 326.008 585.437 325.357 585.032 324.504C584.637 323.651 584.44 322.616 584.44 321.4C584.44 320.184 584.637 319.149 585.032 318.296C585.437 317.443 585.981 316.792 586.664 316.344C587.357 315.896 588.141 315.672 589.016 315.672C589.88 315.672 590.659 315.896 591.352 316.344C592.045 316.792 592.589 317.443 592.984 318.296C593.379 319.149 593.576 320.184 593.576 321.4C593.576 322.616 593.379 323.651 592.984 324.504C592.589 325.357 592.045 326.008 591.352 326.456C590.659 326.904 589.88 327.128 589.016 327.128ZM589.016 325.704C589.603 325.704 590.115 325.544 590.552 325.224C591 324.904 591.347 324.424 591.592 323.784C591.848 323.144 591.976 322.349 591.976 321.4C591.976 320.451 591.848 319.656 591.592 319.016C591.347 318.376 591 317.896 590.552 317.576C590.115 317.256 589.603 317.096 589.016 317.096C588.429 317.096 587.912 317.256 587.464 317.576C587.016 317.896 586.664 318.376 586.408 319.016C586.163 319.656 586.04 320.451 586.04 321.4C586.04 322.349 586.163 323.144 586.408 323.784C586.664 324.424 587.016 324.904 587.464 325.224C587.912 325.544 588.429 325.704 589.016 325.704ZM594.936 327V325.912L599.496 321.512C599.901 321.128 600.2 320.792 600.392 320.504C600.594 320.205 600.728 319.933 600.792 319.688C600.866 319.432 600.904 319.187 600.904 318.952C600.904 318.376 600.701 317.923 600.296 317.592C599.89 317.261 599.298 317.096 598.52 317.096C597.922 317.096 597.384 317.197 596.904 317.4C596.424 317.592 596.008 317.896 595.656 318.312L594.568 317.368C594.994 316.824 595.565 316.408 596.28 316.12C597.005 315.821 597.8 315.672 598.664 315.672C599.442 315.672 600.12 315.8 600.696 316.056C601.272 316.301 601.714 316.659 602.024 317.128C602.344 317.597 602.504 318.152 602.504 318.792C602.504 319.155 602.456 319.512 602.36 319.864C602.264 320.216 602.082 320.589 601.816 320.984C601.549 321.379 601.165 321.821 600.664 322.312L596.6 326.232L596.216 325.608H602.984V327H594.936ZM606.187 327V316.44L606.875 317.192H603.659V315.8H607.771V327H606.187Z" fill="#282828"/>
<path d="M584.636 171.128C583.729 171.128 582.945 170.995 582.284 170.728C581.623 170.461 581.111 170.083 580.748 169.592C580.385 169.091 580.204 168.504 580.204 167.832C580.204 167.171 580.375 166.611 580.716 166.152C581.068 165.683 581.575 165.331 582.236 165.096C582.897 164.851 583.697 164.728 584.636 164.728C585.575 164.728 586.375 164.851 587.036 165.096C587.708 165.331 588.22 165.683 588.572 166.152C588.924 166.621 589.1 167.181 589.1 167.832C589.1 168.504 588.919 169.091 588.556 169.592C588.193 170.083 587.676 170.461 587.004 170.728C586.332 170.995 585.543 171.128 584.636 171.128ZM584.636 169.832C585.532 169.832 586.231 169.651 586.732 169.288C587.244 168.915 587.5 168.413 587.5 167.784C587.5 167.165 587.244 166.68 586.732 166.328C586.231 165.965 585.532 165.784 584.636 165.784C583.751 165.784 583.057 165.965 582.556 166.328C582.055 166.68 581.804 167.165 581.804 167.784C581.804 168.413 582.055 168.915 582.556 169.288C583.057 169.651 583.751 169.832 584.636 169.832ZM584.636 165.592C583.783 165.592 583.057 165.48 582.46 165.256C581.863 165.021 581.404 164.691 581.084 164.264C580.764 163.827 580.604 163.309 580.604 162.712C580.604 162.083 580.769 161.544 581.1 161.096C581.441 160.637 581.916 160.285 582.524 160.04C583.132 159.795 583.836 159.672 584.636 159.672C585.447 159.672 586.156 159.795 586.764 160.04C587.372 160.285 587.847 160.637 588.188 161.096C588.529 161.544 588.7 162.083 588.7 162.712C588.7 163.309 588.54 163.827 588.22 164.264C587.9 164.691 587.436 165.021 586.828 165.256C586.22 165.48 585.489 165.592 584.636 165.592ZM584.636 164.568C585.415 164.568 586.023 164.408 586.46 164.088C586.908 163.768 587.132 163.331 587.132 162.776C587.132 162.211 586.903 161.768 586.444 161.448C585.985 161.128 585.383 160.968 584.636 160.968C583.889 160.968 583.292 161.128 582.844 161.448C582.407 161.768 582.188 162.211 582.188 162.776C582.188 163.331 582.401 163.768 582.828 164.088C583.265 164.408 583.868 164.568 584.636 164.568ZM590.801 173.368L591.601 170.136L591.809 171.064C591.5 171.064 591.238 170.968 591.025 170.776C590.822 170.584 590.721 170.323 590.721 169.992C590.721 169.672 590.822 169.411 591.025 169.208C591.238 169.005 591.494 168.904 591.793 168.904C592.102 168.904 592.353 169.011 592.545 169.224C592.737 169.427 592.833 169.683 592.833 169.992C592.833 170.099 592.822 170.205 592.801 170.312C592.79 170.408 592.764 170.525 592.721 170.664C592.689 170.792 592.636 170.952 592.561 171.144L591.809 173.368H590.801ZM596.031 171V160.44L596.719 161.192H593.503V159.8H597.615V171H596.031Z" fill="white"/>
<path d="M26 260.5L109 272.5L192 268.5L272.5 255L358 237.5L424 79.5L518.5 68L596 25.5" stroke="#009966" stroke-width="5" stroke-linecap="round"/>
<rect x="0.5" y="373.5" width="63" height="15" rx="1" fill="#D98029"/>
<path d="M84.244 387V375.8H93.892V387H92.324V376.776L92.708 377.192H85.428L85.828 376.776V387H84.244ZM100.761 387.096C99.9073 387.096 99.15 386.909 98.4886 386.536C97.8273 386.163 97.3046 385.651 96.9206 385C96.5366 384.339 96.3446 383.592 96.3446 382.76C96.3446 381.917 96.5366 381.171 96.9206 380.52C97.3046 379.869 97.8273 379.363 98.4886 379C99.15 378.627 99.9073 378.44 100.761 378.44C101.603 378.44 102.355 378.627 103.017 379C103.689 379.363 104.211 379.869 104.585 380.52C104.969 381.16 105.161 381.907 105.161 382.76C105.161 383.603 104.969 384.349 104.585 385C104.211 385.651 103.689 386.163 103.017 386.536C102.355 386.909 101.603 387.096 100.761 387.096ZM100.761 385.752C101.305 385.752 101.79 385.629 102.217 385.384C102.654 385.139 102.995 384.792 103.241 384.344C103.486 383.885 103.609 383.357 103.609 382.76C103.609 382.152 103.486 381.629 103.241 381.192C102.995 380.744 102.654 380.397 102.217 380.152C101.79 379.907 101.305 379.784 100.761 379.784C100.217 379.784 99.7313 379.907 99.3046 380.152C98.878 380.397 98.5366 380.744 98.2806 381.192C98.0246 381.629 97.8966 382.152 97.8966 382.76C97.8966 383.357 98.0246 383.885 98.2806 384.344C98.5366 384.792 98.878 385.139 99.3046 385.384C99.7313 385.629 100.217 385.752 100.761 385.752ZM108.746 387V379.464L109.13 379.864H105.642V378.52H113.386V379.864H109.914L110.282 379.464V387H108.746ZM115.389 390.2C114.983 390.2 114.589 390.131 114.205 389.992C113.821 389.864 113.49 389.672 113.213 389.416L113.869 388.264C114.082 388.467 114.317 388.621 114.573 388.728C114.829 388.835 115.101 388.888 115.389 388.888C115.762 388.888 116.071 388.792 116.317 388.6C116.562 388.408 116.791 388.067 117.005 387.576L117.533 386.408L117.693 386.216L121.021 378.52H122.525L118.413 387.848C118.167 388.445 117.89 388.915 117.581 389.256C117.282 389.597 116.951 389.837 116.589 389.976C116.226 390.125 115.826 390.2 115.389 390.2ZM117.405 387.272L113.533 378.52H115.133L118.429 386.072L117.405 387.272ZM133.677 387L130.973 382.872L132.237 382.104L135.501 387H133.677ZM129.213 383.416V382.104H131.965V383.416H129.213ZM132.381 382.936L130.925 382.744L133.629 378.52H135.277L132.381 382.936ZM124.157 387H122.333L125.581 382.104L126.845 382.872L124.157 387ZM129.677 387H128.141V378.52H129.677V387ZM128.605 383.416H125.869V382.104H128.605V383.416ZM125.453 382.936L122.557 378.52H124.189L126.893 382.744L125.453 382.936ZM137.191 387V378.52H138.727V382.12H143.559V378.52H145.095V387H143.559V383.448H138.727V387H137.191ZM148.082 387V378.52H149.618V387H148.082ZM148.85 376.888C148.551 376.888 148.3 376.792 148.098 376.6C147.906 376.408 147.81 376.173 147.81 375.896C147.81 375.608 147.906 375.368 148.098 375.176C148.3 374.984 148.551 374.888 148.85 374.888C149.148 374.888 149.394 374.984 149.586 375.176C149.788 375.357 149.89 375.587 149.89 375.864C149.89 376.152 149.794 376.397 149.602 376.6C149.41 376.792 149.159 376.888 148.85 376.888ZM157.166 387V375.8H161.982C163.198 375.8 164.153 376.045 164.846 376.536C165.539 377.027 165.886 377.741 165.886 378.68C165.886 379.597 165.555 380.301 164.894 380.792C164.233 381.272 163.363 381.512 162.286 381.512L162.574 381.032C163.822 381.032 164.777 381.283 165.438 381.784C166.11 382.275 166.446 382.995 166.446 383.944C166.446 384.904 166.094 385.656 165.39 386.2C164.697 386.733 163.662 387 162.286 387H157.166ZM158.75 385.736H162.254C163.107 385.736 163.747 385.581 164.174 385.272C164.611 384.952 164.83 384.467 164.83 383.816C164.83 383.165 164.611 382.691 164.174 382.392C163.747 382.093 163.107 381.944 162.254 381.944H158.75V385.736ZM158.75 380.728H161.87C162.649 380.728 163.241 380.573 163.646 380.264C164.062 379.955 164.27 379.501 164.27 378.904C164.27 378.296 164.062 377.837 163.646 377.528C163.241 377.219 162.649 377.064 161.87 377.064H158.75V380.728ZM176.559 386.248V377.192H171.647L171.567 379.544C171.535 380.333 171.482 381.091 171.407 381.816C171.343 382.541 171.247 383.197 171.119 383.784C170.991 384.36 170.81 384.835 170.575 385.208C170.351 385.581 170.063 385.811 169.711 385.896L167.983 385.608C168.399 385.64 168.74 385.501 169.007 385.192C169.284 384.872 169.498 384.429 169.647 383.864C169.807 383.288 169.924 382.621 169.999 381.864C170.074 381.096 170.127 380.275 170.159 379.4L170.271 375.8H178.143V386.248H176.559ZM167.583 389.448L167.599 385.608H179.791V389.448H178.303V387H169.087L169.071 389.448H167.583ZM183.434 380.632H189.194V381.992H183.434V380.632ZM183.578 385.608H190.106V387H181.978V375.8H189.882V377.192H183.578V385.608Z" fill="#282828"/>
<rect x="0.5" y="403.5" width="63" height="7" rx="1" fill="#009966"/>
<path d="M91.22 408.456C90.5907 408.723 89.9773 408.925 89.38 409.064C88.7933 409.192 88.2227 409.256 87.668 409.256C86.3027 409.256 85.2413 408.925 84.484 408.264C83.7373 407.603 83.364 406.659 83.364 405.432V401.8H84.932V405.256C84.932 406.088 85.188 406.728 85.7 407.176C86.212 407.624 86.9267 407.848 87.844 407.848C88.388 407.848 88.9427 407.779 89.508 407.64C90.084 407.501 90.644 407.299 91.188 407.032L91.22 408.456ZM90.948 413V401.8H92.532V413H90.948ZM100.969 413V411.208L100.889 410.872V407.816C100.889 407.165 100.697 406.664 100.313 406.312C99.9399 405.949 99.3746 405.768 98.6173 405.768C98.1159 405.768 97.6253 405.853 97.1453 406.024C96.6653 406.184 96.2599 406.403 95.9293 406.68L95.2893 405.528C95.7266 405.176 96.2493 404.909 96.8573 404.728C97.4759 404.536 98.1213 404.44 98.7933 404.44C99.9559 404.44 100.852 404.723 101.481 405.288C102.111 405.853 102.425 406.717 102.425 407.88V413H100.969ZM98.1853 413.096C97.5559 413.096 97.0013 412.989 96.5213 412.776C96.0519 412.563 95.6893 412.269 95.4333 411.896C95.1773 411.512 95.0493 411.08 95.0493 410.6C95.0493 410.141 95.1559 409.725 95.3693 409.352C95.5933 408.979 95.9506 408.68 96.4413 408.456C96.9426 408.232 97.6146 408.12 98.4573 408.12H101.145V409.224H98.5213C97.7533 409.224 97.2359 409.352 96.9693 409.608C96.7026 409.864 96.5693 410.173 96.5693 410.536C96.5693 410.952 96.7346 411.288 97.0653 411.544C97.3959 411.789 97.8546 411.912 98.4413 411.912C99.0173 411.912 99.5186 411.784 99.9453 411.528C100.383 411.272 100.697 410.899 100.889 410.408L101.193 411.464C100.991 411.965 100.633 412.365 100.121 412.664C99.6093 412.952 98.9639 413.096 98.1853 413.096ZM108.887 413.096C108.023 413.096 107.25 412.909 106.567 412.536C105.895 412.163 105.367 411.651 104.983 411C104.599 410.349 104.407 409.603 104.407 408.76C104.407 407.917 104.599 407.171 104.983 406.52C105.367 405.869 105.895 405.363 106.567 405C107.25 404.627 108.023 404.44 108.887 404.44C109.655 404.44 110.338 404.595 110.935 404.904C111.543 405.203 112.012 405.651 112.343 406.248L111.175 407C110.898 406.584 110.556 406.28 110.151 406.088C109.756 405.885 109.33 405.784 108.871 405.784C108.316 405.784 107.82 405.907 107.383 406.152C106.946 406.397 106.599 406.744 106.343 407.192C106.087 407.629 105.959 408.152 105.959 408.76C105.959 409.368 106.087 409.896 106.343 410.344C106.599 410.792 106.946 411.139 107.383 411.384C107.82 411.629 108.316 411.752 108.871 411.752C109.33 411.752 109.756 411.656 110.151 411.464C110.556 411.261 110.898 410.952 111.175 410.536L112.343 411.272C112.012 411.859 111.543 412.312 110.935 412.632C110.338 412.941 109.655 413.096 108.887 413.096ZM115.902 413V405.464L116.286 405.864H112.798V404.52H120.542V405.864H117.07L117.438 405.464V413H115.902ZM128.257 413L124.977 408.872L126.241 408.104L130.065 413H128.257ZM122.113 413V404.52H123.649V413H122.113ZM123.185 409.416V408.104H125.985V409.416H123.185ZM126.369 408.936L124.945 408.744L128.193 404.52H129.841L126.369 408.936ZM136.719 413V411.208L136.639 410.872V407.816C136.639 407.165 136.447 406.664 136.063 406.312C135.69 405.949 135.125 405.768 134.367 405.768C133.866 405.768 133.375 405.853 132.895 406.024C132.415 406.184 132.01 406.403 131.679 406.68L131.039 405.528C131.477 405.176 131.999 404.909 132.607 404.728C133.226 404.536 133.871 404.44 134.543 404.44C135.706 404.44 136.602 404.723 137.231 405.288C137.861 405.853 138.175 406.717 138.175 407.88V413H136.719ZM133.935 413.096C133.306 413.096 132.751 412.989 132.271 412.776C131.802 412.563 131.439 412.269 131.183 411.896C130.927 411.512 130.799 411.08 130.799 410.6C130.799 410.141 130.906 409.725 131.119 409.352C131.343 408.979 131.701 408.68 132.191 408.456C132.693 408.232 133.365 408.12 134.207 408.12H136.895V409.224H134.271C133.503 409.224 132.986 409.352 132.719 409.608C132.453 409.864 132.319 410.173 132.319 410.536C132.319 410.952 132.485 411.288 132.815 411.544C133.146 411.789 133.605 411.912 134.191 411.912C134.767 411.912 135.269 411.784 135.695 411.528C136.133 411.272 136.447 410.899 136.639 410.408L136.943 411.464C136.741 411.965 136.383 412.365 135.871 412.664C135.359 412.952 134.714 413.096 133.935 413.096ZM145.494 413V401.8H150.31C151.526 401.8 152.481 402.045 153.174 402.536C153.867 403.027 154.214 403.741 154.214 404.68C154.214 405.597 153.883 406.301 153.222 406.792C152.561 407.272 151.691 407.512 150.614 407.512L150.902 407.032C152.15 407.032 153.105 407.283 153.766 407.784C154.438 408.275 154.774 408.995 154.774 409.944C154.774 410.904 154.422 411.656 153.718 412.2C153.025 412.733 151.99 413 150.614 413H145.494ZM147.078 411.736H150.582C151.435 411.736 152.075 411.581 152.502 411.272C152.939 410.952 153.158 410.467 153.158 409.816C153.158 409.165 152.939 408.691 152.502 408.392C152.075 408.093 151.435 407.944 150.582 407.944H147.078V411.736ZM147.078 406.728H150.198C150.977 406.728 151.569 406.573 151.974 406.264C152.39 405.955 152.598 405.501 152.598 404.904C152.598 404.296 152.39 403.837 151.974 403.528C151.569 403.219 150.977 403.064 150.198 403.064H147.078V406.728ZM164.887 412.248V403.192H159.975L159.895 405.544C159.863 406.333 159.81 407.091 159.735 407.816C159.671 408.541 159.575 409.197 159.447 409.784C159.319 410.36 159.138 410.835 158.903 411.208C158.679 411.581 158.391 411.811 158.039 411.896L156.311 411.608C156.727 411.64 157.068 411.501 157.335 411.192C157.612 410.872 157.826 410.429 157.975 409.864C158.135 409.288 158.252 408.621 158.327 407.864C158.402 407.096 158.455 406.275 158.487 405.4L158.599 401.8H166.471V412.248H164.887ZM155.911 415.448L155.927 411.608H168.119V415.448H166.631V413H157.415L157.399 415.448H155.911ZM171.763 406.632H177.523V407.992H171.763V406.632ZM171.907 411.608H178.435V413H170.307V401.8H178.211V403.192H171.907V411.608ZM184.988 413V404.52H188.924C189.916 404.52 190.695 404.712 191.26 405.096C191.836 405.469 192.124 406.003 192.124 406.696C192.124 407.389 191.852 407.928 191.308 408.312C190.775 408.685 190.065 408.872 189.18 408.872L189.42 408.456C190.433 408.456 191.185 408.643 191.676 409.016C192.167 409.389 192.412 409.939 192.412 410.664C192.412 411.4 192.135 411.976 191.58 412.392C191.036 412.797 190.199 413 189.068 413H184.988ZM186.492 411.816H188.956C189.596 411.816 190.076 411.72 190.396 411.528C190.716 411.325 190.876 411.005 190.876 410.568C190.876 410.12 190.727 409.795 190.428 409.592C190.14 409.379 189.681 409.272 189.052 409.272H186.492V411.816ZM186.492 408.168H188.796C189.383 408.168 189.825 408.061 190.124 407.848C190.433 407.624 190.588 407.315 190.588 406.92C190.588 406.515 190.433 406.211 190.124 406.008C189.825 405.805 189.383 405.704 188.796 405.704H186.492V408.168ZM194.816 413V404.52H196.352V413H194.816ZM195.584 402.888C195.285 402.888 195.035 402.792 194.832 402.6C194.64 402.408 194.544 402.173 194.544 401.896C194.544 401.608 194.64 401.368 194.832 401.176C195.035 400.984 195.285 400.888 195.584 400.888C195.883 400.888 196.128 400.984 196.32 401.176C196.523 401.357 196.624 401.587 196.624 401.864C196.624 402.152 196.528 402.397 196.336 402.6C196.144 402.792 195.893 402.888 195.584 402.888ZM205.139 412.28V405.864H201.459L201.379 407.496C201.358 408.029 201.321 408.547 201.267 409.048C201.225 409.539 201.15 409.992 201.043 410.408C200.947 410.824 200.803 411.165 200.611 411.432C200.419 411.699 200.163 411.864 199.843 411.928L198.323 411.656C198.654 411.667 198.921 411.56 199.123 411.336C199.326 411.101 199.481 410.781 199.587 410.376C199.705 409.971 199.79 409.512 199.843 409C199.897 408.477 199.939 407.939 199.971 407.384L200.099 404.52H206.675V412.28H205.139ZM197.987 414.968V411.656H207.971V414.968H206.531V413H199.443V414.968H197.987ZM216.749 413.112C216.109 413.112 215.48 413.032 214.861 412.872C214.253 412.701 213.709 412.461 213.229 412.152L213.693 410.984C214.099 411.24 214.563 411.443 215.085 411.592C215.608 411.731 216.136 411.8 216.669 411.8C217.16 411.8 217.581 411.741 217.933 411.624C218.296 411.507 218.573 411.347 218.765 411.144C218.957 410.931 219.053 410.685 219.053 410.408C219.053 410.013 218.877 409.709 218.525 409.496C218.173 409.283 217.683 409.176 217.053 409.176H215.517V408.072H216.957C217.331 408.072 217.656 408.029 217.933 407.944C218.211 407.859 218.424 407.731 218.573 407.56C218.733 407.379 218.813 407.171 218.813 406.936C218.813 406.68 218.723 406.461 218.541 406.28C218.36 406.099 218.104 405.96 217.773 405.864C217.453 405.768 217.075 405.72 216.637 405.72C216.211 405.731 215.773 405.789 215.325 405.896C214.888 406.003 214.44 406.168 213.981 406.392L213.565 405.192C214.077 404.947 214.579 404.76 215.069 404.632C215.571 404.493 216.067 404.419 216.557 404.408C217.293 404.387 217.949 404.472 218.525 404.664C219.101 404.845 219.555 405.112 219.885 405.464C220.227 405.816 220.397 406.232 220.397 406.712C220.397 407.117 220.269 407.48 220.013 407.8C219.757 408.109 219.416 408.355 218.989 408.536C218.563 408.717 218.072 408.808 217.517 408.808L217.581 408.44C218.531 408.44 219.277 408.627 219.821 409C220.365 409.373 220.637 409.88 220.637 410.52C220.637 411.032 220.467 411.485 220.125 411.88C219.784 412.264 219.32 412.568 218.733 412.792C218.157 413.005 217.496 413.112 216.749 413.112ZM228.172 413V411.208L228.092 410.872V407.816C228.092 407.165 227.9 406.664 227.516 406.312C227.143 405.949 226.578 405.768 225.82 405.768C225.319 405.768 224.828 405.853 224.348 406.024C223.868 406.184 223.463 406.403 223.132 406.68L222.492 405.528C222.93 405.176 223.452 404.909 224.06 404.728C224.679 404.536 225.324 404.44 225.996 404.44C227.159 404.44 228.055 404.723 228.684 405.288C229.314 405.853 229.628 406.717 229.628 407.88V413H228.172ZM225.388 413.096C224.759 413.096 224.204 412.989 223.724 412.776C223.255 412.563 222.892 412.269 222.636 411.896C222.38 411.512 222.252 411.08 222.252 410.6C222.252 410.141 222.359 409.725 222.572 409.352C222.796 408.979 223.154 408.68 223.644 408.456C224.146 408.232 224.818 408.12 225.66 408.12H228.348V409.224H225.724C224.956 409.224 224.439 409.352 224.172 409.608C223.906 409.864 223.772 410.173 223.772 410.536C223.772 410.952 223.938 411.288 224.268 411.544C224.599 411.789 225.058 411.912 225.644 411.912C226.22 411.912 226.722 411.784 227.148 411.528C227.586 411.272 227.9 410.899 228.092 410.408L228.396 411.464C228.194 411.965 227.836 412.365 227.324 412.664C226.812 412.952 226.167 413.096 225.388 413.096ZM232.394 413V404.52H238.634V405.864H233.562L233.93 405.512V413H232.394ZM245.407 413V411.208L245.327 410.872V407.816C245.327 407.165 245.135 406.664 244.751 406.312C244.377 405.949 243.812 405.768 243.055 405.768C242.553 405.768 242.063 405.853 241.583 406.024C241.103 406.184 240.697 406.403 240.367 406.68L239.727 405.528C240.164 405.176 240.687 404.909 241.295 404.728C241.913 404.536 242.559 404.44 243.231 404.44C244.393 404.44 245.289 404.723 245.919 405.288C246.548 405.853 246.863 406.717 246.863 407.88V413H245.407ZM242.623 413.096C241.993 413.096 241.439 412.989 240.959 412.776C240.489 412.563 240.127 412.269 239.871 411.896C239.615 411.512 239.487 411.08 239.487 410.6C239.487 410.141 239.593 409.725 239.807 409.352C240.031 408.979 240.388 408.68 240.879 408.456C241.38 408.232 242.052 408.12 242.895 408.12H245.583V409.224H242.959C242.191 409.224 241.673 409.352 241.407 409.608C241.14 409.864 241.007 410.173 241.007 410.536C241.007 410.952 241.172 411.288 241.503 411.544C241.833 411.789 242.292 411.912 242.879 411.912C243.455 411.912 243.956 411.784 244.383 411.528C244.82 411.272 245.135 410.899 245.327 410.408L245.631 411.464C245.428 411.965 245.071 412.365 244.559 412.664C244.047 412.952 243.401 413.096 242.623 413.096ZM248.221 412.984L248.317 411.688C248.391 411.699 248.461 411.709 248.525 411.72C248.589 411.731 248.647 411.736 248.701 411.736C249.042 411.736 249.309 411.619 249.501 411.384C249.703 411.149 249.853 410.84 249.949 410.456C250.045 410.061 250.114 409.619 250.157 409.128C250.199 408.637 250.231 408.147 250.253 407.656L250.397 404.52H256.909V413H255.373V405.416L255.741 405.864H251.389L251.741 405.4L251.629 407.752C251.597 408.499 251.538 409.197 251.453 409.848C251.367 410.499 251.234 411.069 251.053 411.56C250.882 412.051 250.642 412.435 250.333 412.712C250.034 412.989 249.645 413.128 249.165 413.128C249.026 413.128 248.877 413.112 248.717 413.08C248.567 413.059 248.402 413.027 248.221 412.984ZM263.799 407.4C264.876 407.411 265.697 407.656 266.263 408.136C266.828 408.616 267.111 409.293 267.111 410.168C267.111 411.085 266.801 411.795 266.183 412.296C265.564 412.787 264.689 413.027 263.559 413.016L259.879 413V404.52H261.415V407.384L263.799 407.4ZM263.431 411.848C264.124 411.859 264.647 411.72 264.999 411.432C265.361 411.144 265.543 410.717 265.543 410.152C265.543 409.597 265.367 409.192 265.015 408.936C264.663 408.68 264.135 408.547 263.431 408.536L261.415 408.504V411.832L263.431 411.848ZM269.082 413V404.52H270.618V408.12H275.45V404.52H276.986V413H275.45V409.448H270.618V413H269.082ZM283.604 413.096C282.751 413.096 281.994 412.909 281.332 412.536C280.671 412.163 280.148 411.651 279.764 411C279.38 410.339 279.188 409.592 279.188 408.76C279.188 407.917 279.38 407.171 279.764 406.52C280.148 405.869 280.671 405.363 281.332 405C281.994 404.627 282.751 404.44 283.604 404.44C284.447 404.44 285.199 404.627 285.86 405C286.532 405.363 287.055 405.869 287.428 406.52C287.812 407.16 288.004 407.907 288.004 408.76C288.004 409.603 287.812 410.349 287.428 411C287.055 411.651 286.532 412.163 285.86 412.536C285.199 412.909 284.447 413.096 283.604 413.096ZM283.604 411.752C284.148 411.752 284.634 411.629 285.06 411.384C285.498 411.139 285.839 410.792 286.084 410.344C286.33 409.885 286.452 409.357 286.452 408.76C286.452 408.152 286.33 407.629 286.084 407.192C285.839 406.744 285.498 406.397 285.06 406.152C284.634 405.907 284.148 405.784 283.604 405.784C283.06 405.784 282.575 405.907 282.148 406.152C281.722 406.397 281.38 406.744 281.124 407.192C280.868 407.629 280.74 408.152 280.74 408.76C280.74 409.357 280.868 409.885 281.124 410.344C281.38 410.792 281.722 411.139 282.148 411.384C282.575 411.629 283.06 411.752 283.604 411.752ZM290.19 413V404.52H291.726V413H290.19ZM292.094 403C291.87 403 291.684 402.925 291.534 402.776C291.385 402.616 291.31 402.424 291.31 402.2C291.31 401.965 291.385 401.773 291.534 401.624C291.684 401.464 291.87 401.384 292.094 401.384C292.318 401.384 292.505 401.464 292.654 401.624C292.814 401.773 292.894 401.965 292.894 402.2C292.894 402.424 292.814 402.616 292.654 402.776C292.505 402.925 292.318 403 292.094 403ZM289.822 403C289.598 403 289.406 402.925 289.246 402.776C289.097 402.616 289.022 402.424 289.022 402.2C289.022 401.965 289.097 401.773 289.246 401.624C289.406 401.464 289.598 401.384 289.822 401.384C290.046 401.384 290.233 401.464 290.382 401.624C290.532 401.773 290.606 401.965 290.606 402.2C290.606 402.424 290.532 402.616 290.382 402.776C290.233 402.925 290.046 403 289.822 403ZM298.988 413V404.52H306.844V413H305.308V405.48L305.676 405.864H300.156L300.524 405.48V413H298.988ZM313.448 413.096C312.595 413.096 311.837 412.909 311.176 412.536C310.515 412.163 309.992 411.651 309.608 411C309.224 410.339 309.032 409.592 309.032 408.76C309.032 407.917 309.224 407.171 309.608 406.52C309.992 405.869 310.515 405.363 311.176 405C311.837 404.627 312.595 404.44 313.448 404.44C314.291 404.44 315.043 404.627 315.704 405C316.376 405.363 316.899 405.869 317.272 406.52C317.656 407.16 317.848 407.907 317.848 408.76C317.848 409.603 317.656 410.349 317.272 411C316.899 411.651 316.376 412.163 315.704 412.536C315.043 412.909 314.291 413.096 313.448 413.096ZM313.448 411.752C313.992 411.752 314.477 411.629 314.904 411.384C315.341 411.139 315.683 410.792 315.928 410.344C316.173 409.885 316.296 409.357 316.296 408.76C316.296 408.152 316.173 407.629 315.928 407.192C315.683 406.744 315.341 406.397 314.904 406.152C314.477 405.907 313.992 405.784 313.448 405.784C312.904 405.784 312.419 405.907 311.992 406.152C311.565 406.397 311.224 406.744 310.968 407.192C310.712 407.629 310.584 408.152 310.584 408.76C310.584 409.357 310.712 409.885 310.968 410.344C311.224 410.792 311.565 411.139 311.992 411.384C312.419 411.629 312.904 411.752 313.448 411.752ZM321.434 413V405.464L321.818 405.864H318.33V404.52H326.074V405.864H322.602L322.97 405.464V413H321.434ZM328.076 416.2C327.671 416.2 327.276 416.131 326.892 415.992C326.508 415.864 326.178 415.672 325.9 415.416L326.556 414.264C326.77 414.467 327.004 414.621 327.26 414.728C327.516 414.835 327.788 414.888 328.076 414.888C328.45 414.888 328.759 414.792 329.004 414.6C329.25 414.408 329.479 414.067 329.692 413.576L330.22 412.408L330.38 412.216L333.708 404.52H335.212L331.1 413.848C330.855 414.445 330.578 414.915 330.268 415.256C329.97 415.597 329.639 415.837 329.276 415.976C328.914 416.125 328.514 416.2 328.076 416.2ZM330.092 413.272L326.22 404.52H327.82L331.116 412.072L330.092 413.272ZM346.365 413L343.661 408.872L344.925 408.104L348.189 413H346.365ZM341.901 409.416V408.104H344.653V409.416H341.901ZM345.069 408.936L343.613 408.744L346.317 404.52H347.965L345.069 408.936ZM336.845 413H335.021L338.269 408.104L339.533 408.872L336.845 413ZM342.365 413H340.829V404.52H342.365V413ZM341.293 409.416H338.557V408.104H341.293V409.416ZM338.141 408.936L335.245 404.52H336.877L339.581 408.744L338.141 408.936ZM349.879 413V404.52H351.415V408.12H356.247V404.52H357.783V413H356.247V409.448H351.415V413H349.879ZM364.401 413.096C363.548 413.096 362.791 412.909 362.129 412.536C361.468 412.163 360.945 411.651 360.561 411C360.177 410.339 359.985 409.592 359.985 408.76C359.985 407.917 360.177 407.171 360.561 406.52C360.945 405.869 361.468 405.363 362.129 405C362.791 404.627 363.548 404.44 364.401 404.44C365.244 404.44 365.996 404.627 366.657 405C367.329 405.363 367.852 405.869 368.225 406.52C368.609 407.16 368.801 407.907 368.801 408.76C368.801 409.603 368.609 410.349 368.225 411C367.852 411.651 367.329 412.163 366.657 412.536C365.996 412.909 365.244 413.096 364.401 413.096ZM364.401 411.752C364.945 411.752 365.431 411.629 365.857 411.384C366.295 411.139 366.636 410.792 366.881 410.344C367.127 409.885 367.249 409.357 367.249 408.76C367.249 408.152 367.127 407.629 366.881 407.192C366.636 406.744 366.295 406.397 365.857 406.152C365.431 405.907 364.945 405.784 364.401 405.784C363.857 405.784 363.372 405.907 362.945 406.152C362.519 406.397 362.177 406.744 361.921 407.192C361.665 407.629 361.537 408.152 361.537 408.76C361.537 409.357 361.665 409.885 361.921 410.344C362.177 410.792 362.519 411.139 362.945 411.384C363.372 411.629 363.857 411.752 364.401 411.752ZM374.715 413.096C373.851 413.096 373.078 412.909 372.395 412.536C371.723 412.163 371.195 411.651 370.811 411C370.427 410.349 370.235 409.603 370.235 408.76C370.235 407.917 370.427 407.171 370.811 406.52C371.195 405.869 371.723 405.363 372.395 405C373.078 404.627 373.851 404.44 374.715 404.44C375.483 404.44 376.166 404.595 376.763 404.904C377.371 405.203 377.841 405.651 378.171 406.248L377.003 407C376.726 406.584 376.385 406.28 375.979 406.088C375.585 405.885 375.158 405.784 374.699 405.784C374.145 405.784 373.649 405.907 373.211 406.152C372.774 406.397 372.427 406.744 372.171 407.192C371.915 407.629 371.787 408.152 371.787 408.76C371.787 409.368 371.915 409.896 372.171 410.344C372.427 410.792 372.774 411.139 373.211 411.384C373.649 411.629 374.145 411.752 374.699 411.752C375.158 411.752 375.585 411.656 375.979 411.464C376.385 411.261 376.726 410.952 377.003 410.536L378.171 411.272C377.841 411.859 377.371 412.312 376.763 412.632C376.166 412.941 375.483 413.096 374.715 413.096ZM381.731 413V405.464L382.115 405.864H378.627V404.52H386.371V405.864H382.899L383.266 405.464V413H381.731ZM387.941 413V404.52H389.477V413H387.941ZM388.709 402.888C388.41 402.888 388.16 402.792 387.957 402.6C387.765 402.408 387.669 402.173 387.669 401.896C387.669 401.608 387.765 401.368 387.957 401.176C388.16 400.984 388.41 400.888 388.709 400.888C389.008 400.888 389.253 400.984 389.445 401.176C389.648 401.357 389.749 401.587 389.749 401.864C389.749 402.152 389.653 402.397 389.461 402.6C389.269 402.792 389.018 402.888 388.709 402.888Z" fill="#282828"/>
</svg>
