<svg width="25" height="24" viewBox="0 0 25 24" fill="none" xmlns="http://www.w3.org/2000/svg">
<g clip-path="url(#clip0_324_321)">
<path d="M7.70007 0V7.2H10.1L5.3 13.2L0.5 7.2H2.9V0H7.70007Z" fill="white"/>
<path d="M10.8018 17.2806H10.0273V15.4097H10.8132C11.0152 15.4124 11.1762 15.5031 11.2963 15.6817C11.4165 15.8575 11.4766 16.0951 11.4766 16.3946C11.4766 16.6831 11.4178 16.9028 11.3002 17.0539C11.1826 17.2051 11.0165 17.2806 10.8018 17.2806Z" fill="white"/>
<path d="M14.4976 19.3946V15.4097H14.9078C15.258 15.4207 15.5059 15.5375 15.6516 15.7599C15.7973 15.9798 15.8701 16.3699 15.8701 16.9303V17.9729C15.8624 18.4949 15.7819 18.863 15.6286 19.0773C15.4752 19.2888 15.2107 19.3946 14.835 19.3946H14.4976Z" fill="white"/>
<path fill-rule="evenodd" clip-rule="evenodd" d="M5.29988 15.121L12.5966 6H8.89988V0H16.0998C16.1134 0 16.1263 0.00383996 16.1394 0.00776396C16.1507 0.0111 16.1621 0.014496 16.1742 0.0156C16.281 0.0216 16.3842 0.0431999 16.485 0.0767999C16.497 0.0809039 16.5089 0.0846719 16.5208 0.0884039C16.547 0.0966719 16.573 0.104832 16.5978 0.1164C16.725 0.1752 16.8462 0.2484 16.9494 0.3516L24.1494 7.5516C24.2526 7.6548 24.3258 7.776 24.3846 7.9032C24.3956 7.92941 24.4042 7.9556 24.4129 7.98223L24.4242 8.016C24.4578 8.1168 24.4782 8.22 24.4842 8.3256C24.4853 8.33774 24.4886 8.34913 24.492 8.36033C24.496 8.37348 24.4998 8.3864 24.4998 8.4V21.6C24.4998 22.9236 23.4234 24 22.0998 24H7.6998C6.3762 24 5.2998 22.9236 5.2998 21.6L5.29988 15.121ZM16.0998 8.4V2.4L22.0998 8.4H16.0998ZM10.027 20.4V18.2902H10.7784C11.3534 18.2902 11.8033 18.1198 12.1279 17.7791C12.4525 17.4385 12.6148 16.9741 12.6148 16.3862C12.6148 15.7984 12.45 15.3203 12.1202 14.9522C11.7931 14.5841 11.3534 14.4 10.8014 14.4H8.8998V20.4H10.027ZM13.37 14.4V20.4H14.8154C15.4954 20.4 16.0283 20.1761 16.4142 19.7282C16.8026 19.2778 16.9969 18.6582 16.9969 17.8698V16.8972C16.9892 16.1225 16.7911 15.5126 16.4027 15.0676C16.0168 14.6225 15.4979 14.4 14.8462 14.4H13.37ZM20.689 17.9522H18.9368V20.4H17.8097V14.4H20.8998V15.4096H18.9368V16.9468H20.689V17.9522Z" fill="white"/>
</g>
<defs>
<clipPath id="clip0_324_321">
<rect width="24" height="24" fill="white" transform="translate(0.5)"/>
</clipPath>
</defs>
</svg>
