<svg width="170" height="75" viewBox="0 0 170 75" fill="none" xmlns="http://www.w3.org/2000/svg">
<g clip-path="url(#clip0_13_2520)">
<g clip-path="url(#clip1_13_2520)">
<path d="M37.7526 59.0421L38.7912 58.4834L39.827 59.0421L57.6326 68.8449C59.6097 67.7698 61.4786 66.5332 63.2169 65.151L38.7912 51.7046L14.3682 65.151C16.1037 66.5332 17.9726 67.7698 19.9498 68.8449L37.7526 59.0421Z" fill="#D98029"/>
<path d="M38.7913 63.0378L24.4541 70.9288C28.8805 72.6447 33.7207 73.59 38.7913 73.59C43.862 73.59 48.7022 72.642 53.1286 70.9288L38.7913 63.0378Z" fill="#D98029"/>
<path d="M37.7528 47.7088L38.7914 47.1501L39.8272 47.7088L66.3828 62.3282C67.9962 60.7156 69.4541 58.9653 70.737 57.0932L38.7914 39.5054L6.8457 57.0932C8.12864 58.9653 9.5893 60.7183 11.1999 62.3282L37.7528 47.7088Z" fill="#D98029"/>
<path d="M50.179 2.50803C47.2133 1.62361 44.092 1.07018 40.8652 0.906006V36.0816L50.179 41.2108V2.50803Z" fill="#D98029"/>
<path d="M54.3252 4.00146V43.4907L62.8364 48.1776V8.99289C60.2567 6.99367 57.3965 5.31221 54.3252 4.00146Z" fill="#D98029"/>
<path d="M66.9824 12.7266V50.4601L72.8167 53.6721C75.4492 48.731 76.9321 43.1438 76.9321 37.2229C76.9321 27.7856 73.1638 19.1903 66.9824 12.7266Z" fill="#D98029"/>
<path d="M36.7194 24.4333C30.2019 25.3893 25.1924 30.7726 25.1924 37.2495C25.1924 38.8966 25.5201 40.4721 26.1088 41.9205L36.7166 36.0791V24.4333H36.7194Z" fill="#D98029"/>
<path d="M21.3241 37.2493C21.3241 28.7334 28.0609 21.6951 36.7193 20.7127V12.2896C23.2069 13.3011 12.5352 24.1074 12.5352 37.2493C12.5352 41.0915 13.4488 44.7351 15.0788 47.9948L22.7264 43.7845C21.8239 41.7774 21.3241 39.5663 21.3241 37.2493Z" fill="#D98029"/>
<path d="M8.66442 37.2494C8.66442 22.0739 21.0689 9.60989 36.7168 8.59042V0.906006C16.6175 1.93342 0.647461 17.8001 0.647461 37.2229C0.647461 43.1438 2.13311 48.731 4.76285 53.6721L11.7163 49.8432C9.76408 46.038 8.66442 41.7642 8.66442 37.2494Z" fill="#D98029"/>
<path d="M93.249 33.3361V33.0237H99.6387V33.3361C99.6387 34.7422 101.408 35.5551 104.521 35.5551C107.372 35.5551 108.747 35.1182 108.747 34.2126V34.0246C108.747 33.4632 108.058 33.0872 106.617 32.8674L100.558 31.9618C95.8399 31.2442 93.5462 29.3986 93.5462 26.2766V25.9642C93.5462 21.8386 97.3811 19.4661 104.032 19.4661C111.044 19.4661 114.909 21.9657 114.909 26.5282V26.7771H108.586V26.5282C108.586 25.2784 107.111 24.6852 104.032 24.6852C101.444 24.6852 100.1 25.0612 100.1 25.8106V25.9986C100.1 26.4673 100.688 26.748 102.163 26.9678L108.258 27.8734C113.107 28.591 115.434 30.4975 115.434 33.7466V34.059C115.434 38.309 111.338 40.7769 104.293 40.7769C97.1173 40.7716 93.249 38.1475 93.249 33.3361Z" fill="#D98029"/>
<path d="M142.106 19.8711V40.369H136.011L125.622 28.7762V40.369H119.463V19.8711H125.592L135.947 31.4321V19.8711H142.106Z" fill="#D98029"/>
<path d="M146.693 19.8711H160.683C166.09 19.8711 169.333 22.4952 169.333 26.8088V27.1212C169.333 31.4639 166.09 34.088 160.683 34.088H153.277V40.369H146.69V19.8711H146.693ZM160.519 28.6491C161.927 28.6491 162.616 28.1486 162.616 27.1186V26.8061C162.616 25.8052 161.927 25.3074 160.519 25.3074H153.277V28.6491H160.519Z" fill="#D98029"/>
<path d="M93.2852 45.1726H95.2568V57.6816H93.2852V45.1726Z" fill="#D98029"/>
<path d="M111.338 45.1726V57.6816H109.389L100.633 47.8232V57.6816H98.7031V45.1726H100.653L109.411 55.0125V45.1726H111.338Z" fill="#D98029"/>
<path d="M127.719 45.1726V45.4586L121.591 57.6816H119.322L113.193 45.4586V45.1726H115.223L120.458 55.8704L125.692 45.1726H127.719Z" fill="#D98029"/>
<path d="M129.571 45.1726H140.676V46.87H131.56V50.5692H140.276V52.2665H131.56V55.9843H140.676V57.6816H129.571V45.1726Z" fill="#D98029"/>
<path d="M143.105 53.7519V53.5613H145.097V53.7519C145.097 55.3725 146.61 56.1934 149.615 56.1934C152.303 56.1934 153.736 55.5446 153.736 54.3054V54.1518C153.736 53.0846 152.98 52.6265 150.711 52.3406L147.746 51.9593C144.86 51.5965 143.408 50.5479 143.408 48.6996V48.509C143.408 46.2794 145.557 44.9421 149.34 44.9421C153.341 44.9421 155.468 46.3535 155.468 48.9644V49.1551H153.497V48.9644C153.497 47.4206 152.103 46.658 149.337 46.658C146.81 46.658 145.416 47.2882 145.416 48.4692V48.6228C145.416 49.5761 146.191 50.0342 148.182 50.2804L151.167 50.6432C154.333 51.0245 155.743 52.0731 155.743 54.075V54.2656C155.743 56.572 153.533 57.9066 149.515 57.9066C145.294 57.9093 143.105 56.4793 143.105 53.7519Z" fill="#D98029"/>
<path d="M162.033 46.87H156.382V45.1726H169.656V46.87H164.004V57.6816H162.036V46.87H162.033Z" fill="#D98029"/>
</g>
</g>
<defs>
<clipPath id="clip0_13_2520">
<rect width="170" height="74" fill="white" transform="translate(0 0.29834)"/>
</clipPath>
<clipPath id="clip1_13_2520">
<rect width="170" height="74" fill="white" transform="translate(0 0.29834)"/>
</clipPath>
</defs>
</svg>
