<svg width="95" height="94" viewBox="0 0 95 94" fill="none" xmlns="http://www.w3.org/2000/svg">
<path d="M12.409 78.9592H36.4025C36.7687 78.9592 37.1199 78.8138 37.3788 78.5549C37.6377 78.2959 37.7832 77.9448 37.7832 77.5786C37.7832 77.2124 37.6377 76.8613 37.3788 76.6024C37.1199 76.3434 36.7687 76.198 36.4025 76.198H13.7917V36.782L47.5001 18.0023L81.2079 36.782V76.1959H58.6203C58.2542 76.1959 57.903 76.3414 57.6441 76.6003C57.3852 76.8592 57.2397 77.2104 57.2397 77.5765C57.2397 77.9427 57.3852 78.2939 57.6441 78.5528C57.903 78.8117 58.2542 78.9572 58.6203 78.9572H82.5903C82.7718 78.9574 82.9516 78.9219 83.1193 78.8527C83.287 78.7834 83.4395 78.6818 83.5679 78.5535C83.6963 78.4253 83.7982 78.273 83.8677 78.1054C83.9372 77.9377 83.973 77.758 83.973 77.5765V35.9701C83.9727 35.7239 83.9066 35.4822 83.7815 35.2701C83.6564 35.0581 83.4769 34.8833 83.2616 34.764L48.1725 15.2155C47.9672 15.1013 47.7362 15.0413 47.5013 15.0413C47.2664 15.0413 47.0354 15.1013 46.8301 15.2155L11.7378 34.764C11.5225 34.8833 11.3429 35.0581 11.2178 35.2701C11.0927 35.4822 11.0266 35.7239 11.0264 35.9701V77.5786C11.0268 77.945 11.1726 78.2963 11.4319 78.5552C11.6912 78.814 12.0426 78.9594 12.409 78.9592Z" fill="#D98029"/>
<path d="M46.8733 78.7874C47.0655 78.8955 47.2813 78.9544 47.5017 78.959H47.5061H47.5102L47.536 78.9519C47.7413 78.9447 47.9422 78.8907 48.1235 78.7942C48.1479 78.7827 48.1782 78.7868 48.2026 78.7739C52.0771 76.5351 55.2943 73.3162 57.531 69.4405C59.7677 65.5648 60.9452 61.1687 60.9452 56.6939C60.9452 52.2191 59.7677 47.823 57.531 43.9473C55.2943 40.0716 52.0771 36.8527 48.2026 34.6139C47.9923 34.4927 47.7539 34.4288 47.5112 34.4288C47.2685 34.4288 47.0301 34.4927 46.8199 34.6139C41.2974 37.8254 37.1785 42.9894 35.2755 49.0878C35.1897 49.2373 35.1332 49.4018 35.1092 49.5725C34.421 51.8836 34.0668 54.2813 34.0576 56.6927C34.0662 61.1682 35.2495 65.563 37.4891 69.4378C39.7288 73.3125 42.9464 76.5315 46.8202 78.7728C46.8372 78.7827 46.8575 78.7789 46.8733 78.7874ZM48.8855 74.9751V66.7795L57.975 59.684C57.5612 62.7116 56.5434 65.6252 54.982 68.2519C53.4206 70.8787 51.3474 73.1649 48.8855 74.9751ZM47.5114 37.4227C50.6749 39.4183 53.299 42.1615 55.1522 45.4104C57.0055 48.6594 58.031 52.3144 58.1384 56.0532L48.8852 63.2777V48.9636C48.8852 48.5969 48.7396 48.2452 48.4803 47.9859C48.221 47.7266 47.8693 47.5809 47.5026 47.5809C47.1358 47.5809 46.7842 47.7266 46.5249 47.9859C46.2655 48.2452 46.1199 48.5969 46.1199 48.9636V55.5471L38.1134 49.2976C39.7991 44.3828 43.1153 40.1925 47.5114 37.4227ZM36.823 56.6927C36.8369 55.1771 37.0042 53.6668 37.3224 52.1848L46.121 59.0513V74.964C43.2502 72.8578 40.9135 70.1076 39.2987 66.9344C37.6838 63.7611 36.8359 60.2532 36.823 56.6927Z" fill="#D98029"/>
</svg>
