<svg width="95" height="94" viewBox="0 0 95 94" fill="none" xmlns="http://www.w3.org/2000/svg">
<path d="M70.7426 15.0517H63.5457C62.793 15.0517 62.1687 15.6759 62.1687 16.4286V19.1642C62.1687 19.8802 61.5812 20.4677 60.8652 20.4677C60.1492 20.4677 59.5617 19.8802 59.5617 19.1642V16.4286C59.5617 15.6759 58.9375 15.0517 58.1848 15.0517H50.584C49.8312 15.0517 49.207 15.6759 49.207 16.4286V19.1642C49.207 19.8802 48.6195 20.4677 47.9035 20.4677H47.2793C46.5633 20.4677 45.9758 19.8802 45.9758 19.1642V16.6306C45.9758 15.8779 45.3516 15.2536 44.5988 15.2536H38.0262C37.2734 15.2536 36.6492 15.8779 36.6492 16.6306V19.1642C36.6492 19.8802 36.0617 20.4677 35.3457 20.4677H34.5195C33.8035 20.4677 33.216 19.8802 33.216 19.1642V16.6306C33.216 15.8779 32.5918 15.2536 31.8391 15.2536H24.2383C23.4855 15.2536 22.8613 15.8779 22.8613 16.6306V77.3818C22.8613 78.1345 23.4855 78.7587 24.2383 78.7587H31.8391C32.5918 78.7587 33.216 78.1345 33.216 77.3818V74.8482C33.216 74.1322 33.8035 73.5447 34.5195 73.5447H35.3457C36.0617 73.5447 36.6492 74.1322 36.6492 74.8482V77.3818C36.6492 78.1345 37.2734 78.7587 38.0262 78.7587H44.5988C45.3516 78.7587 45.9758 78.1345 45.9758 77.3818V74.8482C45.9758 74.1322 46.5633 73.5447 47.2793 73.5447H47.9035C48.6195 73.5447 49.207 74.1322 49.207 74.8482V77.5837C49.207 78.3365 49.8312 78.9607 50.584 78.9607H58.1848C58.9375 78.9607 59.5617 78.3365 59.5617 77.5837V74.8482C59.5617 74.1322 60.1492 73.5447 60.8652 73.5447C61.5812 73.5447 62.1687 74.1322 62.1687 74.8482V77.5837C62.1687 78.3365 62.793 78.9607 63.5457 78.9607H70.7426C71.4953 78.9607 72.1195 78.3365 72.1195 77.5837V16.4286C72.1195 15.6759 71.4953 15.0517 70.7426 15.0517ZM69.3656 76.1884H64.9227V74.8298C64.9227 72.59 63.1051 70.7724 60.8652 70.7724C58.6254 70.7724 56.8078 72.59 56.8078 74.8298V76.1884H51.9609V74.8298C51.9609 72.59 50.1434 70.7724 47.9035 70.7724H47.2793C45.0395 70.7724 43.2219 72.59 43.2219 74.8298V75.9865H39.4215V74.8298C39.4215 72.59 37.6039 70.7724 35.3641 70.7724H34.5379C32.298 70.7724 30.4805 72.59 30.4805 74.8298V75.9865H25.6336V18.0076H30.4805V19.1642C30.4805 21.404 32.298 23.2216 34.5379 23.2216H35.3641C37.6039 23.2216 39.4215 21.404 39.4215 19.1642V18.0076H43.2402V19.1642C43.2402 21.404 45.0578 23.2216 47.2977 23.2216H47.9219C50.1617 23.2216 51.9793 21.404 51.9793 19.1642V17.8056H56.8262V19.1642C56.8262 21.404 58.6437 23.2216 60.8836 23.2216C63.1234 23.2216 64.941 21.404 64.941 19.1642V17.8056H69.384V76.1884H69.3656Z" fill="#D98029"/>
<path d="M52.2896 29.6457H31.3232C30.5705 29.6457 29.9463 30.2699 29.9463 31.0227C29.9463 31.7754 30.5705 32.3996 31.3232 32.3996H52.308C53.0607 32.3996 53.685 31.7754 53.685 31.0227C53.685 30.2699 53.0607 29.6457 52.2896 29.6457Z" fill="#D98029"/>
<path d="M63.6746 29.6457H59.1582C58.4055 29.6457 57.7812 30.2699 57.7812 31.0227C57.7812 31.7754 58.4055 32.3996 59.1582 32.3996H63.6746C64.4273 32.3996 65.0516 31.7754 65.0516 31.0227C65.0516 30.2699 64.4457 29.6457 63.6746 29.6457Z" fill="#D98029"/>
<path d="M52.2896 38.4215H31.3232C30.5705 38.4215 29.9463 39.0457 29.9463 39.7985C29.9463 40.5512 30.5705 41.1754 31.3232 41.1754H52.308C53.0607 41.1754 53.685 40.5512 53.685 39.7985C53.685 39.0457 53.0607 38.4215 52.2896 38.4215Z" fill="#D98029"/>
<path d="M59.1582 41.1754H63.6746C64.4273 41.1754 65.0516 40.5512 65.0516 39.7985C65.0516 39.0457 64.4273 38.4215 63.6746 38.4215H59.1582C58.4055 38.4215 57.7812 39.0457 57.7812 39.7985C57.7812 40.5512 58.3871 41.1754 59.1582 41.1754Z" fill="#D98029"/>
<path d="M52.2896 47.1973H31.3232C30.5705 47.1973 29.9463 47.8215 29.9463 48.5742C29.9463 49.327 30.5705 49.9512 31.3232 49.9512H52.308C53.0607 49.9512 53.685 49.327 53.685 48.5742C53.685 47.8215 53.0607 47.1973 52.2896 47.1973Z" fill="#D98029"/>
<path d="M59.1582 49.9512H63.6746C64.4273 49.9512 65.0516 49.327 65.0516 48.5742C65.0516 47.8215 64.4273 47.1973 63.6746 47.1973H59.1582C58.4055 47.1973 57.7812 47.8215 57.7812 48.5742C57.7812 49.327 58.3871 49.9512 59.1582 49.9512Z" fill="#D98029"/>
<path d="M61.7631 56.6023C63.1768 56.6023 64.0947 57.0613 64.6088 57.2816L65.1779 55.0417C64.517 54.7296 63.6357 54.4542 62.3139 54.3992V52.655H60.3861V54.5277C58.2748 54.95 57.0447 56.3085 57.0447 58.0343C57.0447 59.9437 58.4951 60.9351 60.6064 61.6511C62.0752 62.1468 62.6994 62.6242 62.6994 63.3769C62.6994 64.1664 61.9283 64.607 60.8084 64.607C59.5232 64.607 58.3666 64.1847 57.5221 63.7441L56.9346 66.0574C57.6873 66.498 58.9725 66.8468 60.2943 66.9019V68.7746H62.2221V66.755C64.4986 66.3511 65.7287 64.864 65.7287 63.1015C65.7287 61.3207 64.774 60.2375 62.424 59.4113C60.7533 58.7871 60.0557 58.3648 60.0557 57.7222C60.074 57.1531 60.4779 56.6023 61.7631 56.6023Z" fill="#D98029"/>
</svg>
