<svg width="95" height="94" viewBox="0 0 95 94" fill="none" xmlns="http://www.w3.org/2000/svg">
<g clip-path="url(#clip0_197_2149)">
<path d="M73.1266 78.154C73.8793 78.154 74.5035 77.5298 74.5035 76.777V32.2923C74.5035 32.2739 74.5035 32.2372 74.5035 32.2188C74.5035 31.8516 74.3566 31.5028 74.118 31.2641L61.2848 16.3747L61.2664 16.3563C61.2664 16.3563 61.2664 16.3563 61.248 16.338C61.2113 16.2829 61.1563 16.2462 61.1195 16.2094C61.1195 16.2094 61.1195 16.2094 61.1012 16.1911C61.0461 16.1544 61.0094 16.1176 60.9543 16.0809L60.9359 16.0626C60.8258 15.9891 60.7156 15.9524 60.5871 15.9157H60.5688C60.4586 15.8973 60.3484 15.879 60.2383 15.879H21.8672C21.1145 15.879 20.4902 16.5032 20.4902 17.2559V76.8137C20.4902 77.5665 21.1145 78.1907 21.8672 78.1907H73.1266V78.154ZM61.6152 20.9278L70.134 30.8235H61.6152V20.9278ZM23.2441 18.5962H58.8613V32.2005C58.8613 32.9532 59.4855 33.5774 60.2383 33.5774H71.768V75.3817H23.2441V18.5962Z" fill="#D98029"/>
<path d="M34.2398 48.6722C30.366 48.6722 27.2266 51.8116 27.2266 55.6854C27.2266 57.3929 27.8324 58.9534 28.8605 60.1651V70.3362C28.8605 70.8503 29.1543 71.3276 29.6133 71.5663C30.0723 71.805 30.623 71.7682 31.0453 71.4561L34.2582 69.1612L37.4527 71.4561C37.6914 71.6214 37.9668 71.7132 38.2605 71.7132C38.4809 71.7132 38.6828 71.6581 38.8848 71.5663C39.3438 71.3276 39.6375 70.8503 39.6375 70.3362V60.1651C40.6473 58.9534 41.2715 57.3929 41.2715 55.6854C41.2531 51.83 38.1137 48.6722 34.2398 48.6722ZM34.2398 51.4261C36.5898 51.4261 38.4992 53.3354 38.4992 55.6854C38.4992 58.0354 36.5898 59.9448 34.2398 59.9448C33.0648 59.9448 31.9816 59.4675 31.2105 58.678C31.2105 58.678 31.2105 58.678 31.1922 58.6597C30.4395 57.8886 29.9805 56.8421 29.9805 55.6854C29.9805 53.3354 31.8898 51.4261 34.2398 51.4261ZM35.0477 66.3339C34.5703 65.985 33.9277 65.985 33.432 66.3339L31.5961 67.6557V62.1847C32.4039 62.5151 33.3035 62.6987 34.2215 62.6987C35.1578 62.6987 36.0391 62.5151 36.8469 62.1847V67.6557L35.0477 66.3339Z" fill="#D98029"/>
<path d="M29.1172 26.8979H34.2395C34.9922 26.8979 35.6164 26.2737 35.6164 25.521C35.6164 24.7683 34.9922 24.144 34.2395 24.144H29.1172C28.3645 24.144 27.7402 24.7683 27.7402 25.521C27.7402 26.2737 28.3645 26.8979 29.1172 26.8979Z" fill="#D98029"/>
<path d="M48.9086 30.019H29.1172C28.3645 30.019 27.7402 30.6433 27.7402 31.396C27.7402 32.1487 28.3645 32.7729 29.1172 32.7729H48.9086C49.6613 32.7729 50.2856 32.1487 50.2856 31.396C50.2856 30.6433 49.6613 30.019 48.9086 30.019Z" fill="#D98029"/>
<path d="M48.9086 35.9074H29.1172C28.3645 35.9074 27.7402 36.5316 27.7402 37.2843C27.7402 38.0371 28.3645 38.6613 29.1172 38.6613H48.9086C49.6613 38.6613 50.2856 38.0371 50.2856 37.2843C50.2856 36.5316 49.6613 35.9074 48.9086 35.9074Z" fill="#D98029"/>
</g>
<defs>
<clipPath id="clip0_197_2149">
<rect width="94" height="94" fill="white" transform="translate(0.5)"/>
</clipPath>
</defs>
</svg>
