<svg width="95" height="94" viewBox="0 0 95 94" fill="none" xmlns="http://www.w3.org/2000/svg">
<path d="M92.3645 52.6724H74.8315V31.5259C74.8245 31.479 74.8147 31.4325 74.8021 31.3867C74.7936 31.2987 74.7764 31.2119 74.7507 31.1273C74.7021 30.9602 74.6195 30.8048 74.5081 30.6711C74.447 30.5955 74.378 30.5266 74.3024 30.4655C74.2681 30.4382 74.2481 30.3994 74.2108 30.3736L49.1971 13.7849C48.9709 13.6349 48.7055 13.5549 48.4341 13.5549C48.1627 13.5549 47.8973 13.6349 47.6711 13.7849L22.6536 30.3741C22.6162 30.4 22.5963 30.4388 22.5619 30.4676C22.4857 30.5272 22.4167 30.5955 22.3563 30.6711C22.2463 30.8052 22.1639 30.9598 22.1139 31.1258C22.0883 31.2109 22.071 31.2983 22.0622 31.3867C22.0498 31.4325 22.04 31.479 22.0329 31.5259V52.6724H2.63038C2.26402 52.6724 1.91267 52.8179 1.65361 53.077C1.39456 53.3361 1.24902 53.6874 1.24902 54.0538C1.24902 54.4201 1.39456 54.7715 1.65361 55.0305C1.91267 55.2896 2.26402 55.4351 2.63038 55.4351H92.3645C92.7309 55.4351 93.0823 55.2896 93.3413 55.0305C93.6004 54.7715 93.7459 54.4201 93.7459 54.0538C93.7459 53.6874 93.6004 53.3361 93.3413 53.077C93.0823 52.8179 92.7309 52.6724 92.3645 52.6724ZM48.4342 16.5932L68.8675 30.1447H27.9978L48.4342 16.5932ZM36.6728 51.76V40.1249H60.1927V51.76H36.6728ZM62.9581 52.6721V38.7448C62.9579 38.3782 62.8121 38.0266 62.5529 37.7674C62.2936 37.5081 61.9421 37.3624 61.5754 37.3622H35.2901C34.9235 37.3624 34.5719 37.5081 34.3126 37.7674C34.0534 38.0266 33.9076 38.3782 33.9074 38.7448V52.6724H24.7994V32.9071H72.0661V52.6724L62.9581 52.6721Z" fill="#D98029"/>
<path d="M82.2154 58.9741H27.9145L28.4512 58.4377C28.7102 58.1782 28.8556 57.8265 28.8553 57.4598C28.855 57.0932 28.709 56.7417 28.4496 56.4827C28.1901 56.2236 27.8384 56.0782 27.4717 56.0786C27.1051 56.0789 26.7536 56.2248 26.4945 56.4843L24.0047 58.9741H16.6275C15.243 58.9741 13.9152 59.5241 12.9362 60.5031C11.9572 61.482 11.4072 62.8098 11.4072 64.1943C11.4072 65.5788 11.9572 66.9066 12.9362 67.8856C13.9152 68.8646 15.243 69.4146 16.6275 69.4146H49.4784L48.9417 69.9509C48.6888 70.2117 48.5487 70.5615 48.5516 70.9247C48.5545 71.2879 48.7002 71.6354 48.9573 71.892C49.2143 72.1487 49.562 72.2939 49.9252 72.2963C50.2885 72.2986 50.638 72.158 50.8984 71.9047L53.3882 69.4146H68.2226C68.8744 69.4146 69.4996 69.6735 69.9605 70.1344C70.4215 70.5954 70.6804 71.2205 70.6804 71.8724C70.6804 72.5242 70.4215 73.1494 69.9605 73.6103C69.4996 74.0712 68.8744 74.3302 68.2226 74.3302H29.3603L29.9972 73.6904C30.2562 73.4313 30.4018 73.08 30.4018 72.7137C30.4018 72.3473 30.2562 71.996 29.9972 71.7369C29.7382 71.4779 29.3868 71.3324 29.0205 71.3324C28.6541 71.3324 28.3028 71.4779 28.0438 71.7369L25.046 74.7347C24.878 74.9121 24.761 75.1316 24.7073 75.37C24.6947 75.4211 24.6849 75.4727 24.678 75.5248C24.6372 75.7645 24.6614 76.0107 24.7482 76.2378L24.7526 76.2448C24.8206 76.4104 24.9204 76.561 25.0463 76.6881L28.4027 80.0445C28.6618 80.3039 29.0133 80.4498 29.38 80.4501C29.7466 80.4503 30.0983 80.3049 30.3578 80.0458C30.6172 79.7867 30.7631 79.4352 30.7633 79.0686C30.7636 78.7019 30.6182 78.3502 30.3591 78.0908L29.3603 77.092H68.222C69.6065 77.092 70.9343 76.542 71.9133 75.563C72.8922 74.584 73.4422 73.2563 73.4422 71.8718C73.4422 70.4873 72.8922 69.1595 71.9133 68.1805C70.9343 67.2015 69.6065 66.6515 68.222 66.6515H53.3876L50.8978 64.1614C50.7702 64.0299 50.6177 63.925 50.4492 63.8529C50.2808 63.7808 50.0996 63.7429 49.9164 63.7414C49.7331 63.74 49.5514 63.775 49.3818 63.8443C49.2121 63.9137 49.058 64.0162 48.9283 64.1456C48.7986 64.2751 48.696 64.4291 48.6263 64.5986C48.5567 64.7682 48.5214 64.9498 48.5226 65.1331C48.5238 65.3163 48.5614 65.4975 48.6333 65.6661C48.7051 65.8347 48.8098 65.9874 48.9411 66.1152L49.4778 66.6515H16.6275C16.3025 66.6551 15.98 66.5942 15.6787 66.4722C15.3774 66.3503 15.1033 66.1699 14.8722 65.9413C14.6411 65.7127 14.4577 65.4406 14.3325 65.1406C14.2072 64.8407 14.1428 64.5189 14.1428 64.1939C14.1428 63.8689 14.2072 63.5471 14.3325 63.2471C14.4577 62.9472 14.6411 62.675 14.8722 62.4465C15.1033 62.2179 15.3774 62.0374 15.6787 61.9155C15.98 61.7936 16.3025 61.7327 16.6275 61.7362H24.0047L26.4945 64.226C26.7536 64.4855 27.1051 64.6315 27.4717 64.6318C27.8384 64.6321 28.1901 64.4867 28.4496 64.2277C28.709 63.9686 28.855 63.6171 28.8553 63.2505C28.8556 62.8838 28.7102 62.5321 28.4512 62.2726L27.9145 61.7362H82.2154C82.5817 61.7362 82.9331 61.5907 83.1921 61.3316C83.4512 61.0726 83.5967 60.7212 83.5967 60.3549C83.5967 59.9885 83.4512 59.6372 83.1921 59.3781C82.9331 59.119 82.5817 58.9741 82.2154 58.9741Z" fill="#D98029"/>
</svg>
