<svg width="95" height="94" viewBox="0 0 95 94" fill="none" xmlns="http://www.w3.org/2000/svg">
<path d="M15.9208 68.37C15.6897 68.6252 15.5588 68.9553 15.552 69.2994C15.5453 69.6436 15.6632 69.9786 15.8841 70.2426C16.105 70.5067 16.4139 70.6819 16.7538 70.7361C17.0938 70.7902 17.4418 70.7196 17.7338 70.5373L41.2194 55.9029L36.0427 81.3305H27.7422C27.3676 81.3359 27.0102 81.4885 26.7472 81.7553C26.4842 82.0221 26.3368 82.3816 26.3368 82.7562C26.3368 83.1309 26.4842 83.4904 26.7472 83.7572C27.0102 84.024 27.3676 84.1766 27.7422 84.182H37.2009L37.2065 84.1849H51.4005L51.4064 84.182H60.8651C61.0541 84.1847 61.2417 84.1498 61.417 84.0794C61.5924 84.0089 61.752 83.9043 61.8866 83.7717C62.0211 83.639 62.128 83.4809 62.2009 83.3066C62.2739 83.1323 62.3115 82.9452 62.3115 82.7562C62.3115 82.5673 62.2739 82.3802 62.2009 82.2059C62.128 82.0315 62.0211 81.8735 61.8866 81.7408C61.752 81.6081 61.5924 81.5035 61.417 81.4331C61.2417 81.3627 61.0541 81.3278 60.8651 81.3305H52.5632L46.8762 53.5576L77.7572 59.3122C77.8438 59.328 77.9315 59.3361 78.0195 59.3363C78.3408 59.3361 78.6527 59.2275 78.9046 59.028C79.1564 58.8285 79.3336 58.5498 79.4073 58.237C79.481 57.9243 79.4469 57.5958 79.3106 57.3048C79.1744 57.0138 78.9438 56.7774 78.6564 56.6338L49.7808 42.1945L41.0952 10.8593C41.0037 10.5278 40.7954 10.2405 40.5088 10.0504C40.2222 9.86037 39.8766 9.78031 39.5356 9.82504C39.1946 9.86976 38.8813 10.0362 38.6533 10.2938C38.4254 10.5513 38.2983 10.8826 38.2954 11.2265L38.0017 43.7599C38.0091 43.8316 38.0226 43.9025 38.0419 43.972C37.9213 44.0366 37.811 44.1189 37.7147 44.2161L15.9208 68.37ZM41.905 43.6465L41.9165 43.6395L42.3927 43.3008C42.471 43.2822 42.5431 43.2436 42.6021 43.1888C42.6409 43.1689 42.6796 43.1489 42.7343 43.1245L42.7513 43.1186C42.7986 43.0972 42.8632 43.0714 42.9449 43.0384L43.0195 43.0111C43.1266 42.9908 43.2307 42.957 43.3294 42.9107C43.414 42.8892 43.5016 42.8648 43.5374 42.8534L43.6693 42.8305L43.8385 42.8011C43.8793 42.7999 43.92 42.7966 43.9604 42.7911L43.9619 42.797C44.1948 42.7766 44.429 42.7766 44.6619 42.797L45.3475 42.9259L45.4021 42.9418L45.4521 42.9588C45.534 42.9862 45.6157 43.0149 45.6918 43.047L46.0216 43.1938L46.0704 43.2182C46.1206 43.2511 46.1585 43.2699 46.2008 43.2943L46.3715 43.4048C46.4656 43.4645 46.5566 43.5291 46.6441 43.5983L46.6541 43.5898L46.6785 43.6069C46.715 43.6485 46.7543 43.6878 46.796 43.7244C46.8281 43.7651 46.8646 43.8022 46.9049 43.8348L46.9343 43.8621C47.0108 43.9589 47.0953 44.0491 47.1869 44.1318C47.1999 44.1474 47.3288 44.3224 47.4219 44.4458C47.4634 44.5131 47.5394 44.6323 47.5439 44.6364L47.6757 44.8847L47.6728 44.8861L47.822 45.2345L47.8564 45.3309C47.8767 45.3967 47.9081 45.4901 47.9254 45.543L47.9369 45.5803C47.9434 45.6482 47.9558 45.7155 47.9742 45.7812L47.9998 45.8817C48.0171 46.025 48.0371 46.1872 48.0429 46.2271C48.0536 46.3277 48.0584 46.4288 48.0573 46.53L48.0459 46.9356C48.023 47.0146 47.9742 47.267 47.9625 47.356L47.9331 47.465L47.9246 47.5211C47.9043 47.5828 47.8872 47.6342 47.8784 47.6659C47.815 47.8579 47.7383 48.0452 47.649 48.2267L48.8596 48.9884L47.4598 48.5521C47.3629 48.7077 47.2535 48.855 47.1326 48.9928C47.0389 49.0731 46.9525 49.1616 46.8744 49.2571L46.642 49.4628L46.3051 49.7007C46.249 49.7301 46.0498 49.8476 46.0052 49.8769L45.8877 49.9286L45.7355 49.9959C45.6955 50.0079 45.6563 50.0223 45.618 50.0391C45.5464 50.0649 45.4603 50.0934 45.4418 50.1023L45.2323 50.1581C45.1518 50.178 45.1104 50.1895 45.0543 50.2054C45.0187 50.2093 44.9833 50.2151 44.9483 50.2227L44.911 50.2356C44.8751 50.2356 44.8408 50.2427 44.8049 50.2456H44.7817C44.6248 50.2671 44.4668 50.2796 44.3085 50.2829C44.253 50.2909 44.198 50.3019 44.1437 50.3158C43.9139 50.1946 43.6533 50.1442 43.3949 50.171C43.3275 50.1476 43.2589 50.128 43.1893 50.1122C42.993 50.0528 42.8021 49.9769 42.6185 49.8855C42.5325 49.8341 42.4493 49.7879 42.3947 49.758C42.3574 49.7336 42.1712 49.6111 42.1339 49.5902L41.9761 49.4727L41.9159 49.421L41.91 49.4269L41.8354 49.3723C41.7643 49.2939 41.6886 49.2196 41.6089 49.1499C41.5287 49.0452 41.4425 48.9451 41.3507 48.8503C41.3213 48.8045 41.2503 48.7034 41.1786 48.6094C41.1269 48.5175 41.0667 48.4185 41.0467 48.3912C41.0239 48.3413 40.998 48.2929 40.9691 48.2463C40.9238 48.1081 40.8641 47.975 40.7911 47.8492C40.7773 47.7915 40.7591 47.7349 40.7368 47.68L40.7109 47.5966L40.6965 47.5507L40.678 47.4891L40.6234 47.2667L40.5876 47.0458C40.5902 46.9909 40.5853 46.936 40.5732 46.8825C40.5691 46.7561 40.5617 46.564 40.5532 46.5079L40.5702 46.1554L40.5761 46.1261L40.6278 45.8062L40.6572 45.6684C40.6689 45.6326 40.6945 45.5306 40.7118 45.4519H40.7148L40.8408 45.0994L40.8795 45.0133L40.9641 44.8239L40.9756 44.8009C41.0302 44.7078 41.1307 44.5298 41.1336 44.5269C41.1451 44.5113 41.4148 44.1526 41.4274 44.1353L41.6454 43.8915C41.6783 43.8574 41.8448 43.7067 41.905 43.6465ZM47.9724 47.3642L47.9263 47.5064C47.9359 47.4574 47.9484 47.4091 47.9636 47.3616L47.9724 47.3642ZM41.5581 49.6878L40.8983 50.4295L41.1592 50.0077L41.5581 49.6878ZM37.9227 48.2449L37.9282 48.2693C37.9416 48.3152 37.9579 48.3602 37.977 48.4041C37.9943 48.4772 38.0202 48.5607 38.0487 48.6423C38.0875 48.7841 38.1384 48.9223 38.2008 49.0553C38.2616 49.2165 38.3355 49.3724 38.4217 49.5215L38.462 49.6135C38.482 49.6534 38.5019 49.6936 38.5248 49.731C38.555 49.7909 38.5906 49.8481 38.6312 49.9016C38.6544 49.9504 38.7631 50.1255 38.7919 50.1713C38.8721 50.302 38.9387 50.3922 38.88 50.2888C38.9003 50.3202 39.0609 50.5426 39.0839 50.5725C39.146 50.6657 39.2181 50.7517 39.2989 50.8293C39.4017 50.9712 39.5212 51.1002 39.6546 51.2138C39.7217 51.2878 39.7931 51.3577 39.8685 51.4233C39.9616 51.5079 40.0562 51.591 40.0935 51.6227V51.6198L40.1452 51.6656C40.279 51.7777 40.4198 51.8812 40.5667 51.9755L40.8193 52.1418L41.2667 52.4C41.3011 52.4188 41.3428 52.4293 41.3772 52.4458L24.8335 62.7517L37.9227 48.2449ZM38.9523 81.3305L44.2985 55.0693L49.6512 81.3305H38.9523ZM49.0931 51.0678L49.2364 50.9086C49.3429 50.7988 49.4417 50.6818 49.532 50.5584C49.652 50.4085 49.7621 50.2509 49.8618 50.0867C49.9896 49.8951 50.1046 49.6953 50.2061 49.4886L50.2822 49.3221C50.318 49.2489 50.3553 49.1672 50.3639 49.1458C50.4599 48.9366 50.5404 48.7206 50.6047 48.4996C50.6449 48.3741 50.6784 48.2466 50.7052 48.1177L50.7346 48.0113C50.746 47.9655 50.7575 47.9168 50.766 47.868C50.7977 47.7461 50.7889 47.7173 50.7863 47.7332L50.7889 47.7188C50.8033 47.66 50.8183 47.5854 50.8292 47.5067C50.8494 47.4438 50.8572 47.3775 50.8521 47.3116C50.8665 47.2514 50.8838 47.0305 50.8894 46.9703C50.9008 46.8234 50.9067 46.6748 50.9067 46.5297C50.9097 46.3816 50.903 46.2335 50.8864 46.0864C50.8864 46.057 50.8823 45.9945 50.8779 45.9342L68.3079 54.6507L49.0931 51.0678ZM46.2731 40.2258L46.1914 40.1964L46.0968 40.1706C46.0249 40.1506 45.9447 40.1303 45.8413 40.1103C45.7725 40.093 45.569 40.0501 45.5372 40.0416L45.5229 40.0387H45.5173L45.49 40.0343L45.1328 39.9755C45.0954 39.9667 45.0555 39.9682 45.0153 39.9626L44.975 39.9567L44.9139 39.9547L44.8422 39.9488L44.6401 39.9359H44.6172C44.3651 39.9154 44.1117 39.9173 43.8599 39.9417C43.8053 39.9417 43.7451 39.9444 43.6878 39.9503C43.653 39.9518 43.6183 39.9566 43.5844 39.9646L43.5773 39.9661L43.5729 39.9676C43.5327 39.9702 43.2401 40.0105 43.2028 40.0163L42.9132 40.0792C42.8088 40.0937 42.706 40.1182 42.6062 40.1524C42.5604 40.1626 42.4828 40.1841 42.4026 40.2085C42.3441 40.2224 42.2866 40.2401 42.2305 40.2616C42.1186 40.2931 42.0669 40.3145 42.1013 40.3116C42.0525 40.326 41.8574 40.3976 41.8075 40.4164C41.671 40.4672 41.5387 40.5286 41.4118 40.6C41.3801 40.613 41.3428 40.6294 41.3055 40.6473C41.2332 40.6713 41.1654 40.7071 41.1049 40.7534L40.881 40.8911L41.0573 21.3988L46.2731 40.2258Z" fill="#D98029"/>
</svg>
