<svg width="95" height="94" viewBox="0 0 95 94" fill="none" xmlns="http://www.w3.org/2000/svg">
<path d="M81.2776 57.9316C81.2598 57.841 81.2329 57.7525 81.1974 57.6672C81.1889 57.6487 81.1903 57.627 81.1801 57.6085L69.1863 35.0552C69.1483 35.0017 69.1067 34.9509 69.0617 34.9031C69.0071 34.8212 68.9446 34.7449 68.8752 34.6751C68.8041 34.6163 68.7272 34.5648 68.6458 34.5215C68.4912 34.41 68.3074 34.3462 68.117 34.3379C68.055 34.3199 67.9916 34.307 67.9275 34.2991H32.5968C32.5753 34.2991 32.558 34.3106 32.5365 34.3121C32.443 34.3206 32.3507 34.3389 32.261 34.3667C32.1666 34.3842 32.0744 34.4115 31.9858 34.4484C31.9655 34.4583 31.9455 34.4557 31.9255 34.4672C31.8709 34.5048 31.8195 34.547 31.7719 34.5932C31.6904 34.6465 31.615 34.7086 31.5469 34.7782C31.438 34.922 31.3447 35.0769 31.2684 35.2403C31.2367 35.3385 31.2165 35.44 31.2082 35.5429C31.1913 35.6031 31.1788 35.6644 31.1709 35.7265C31.1709 35.7464 31.1824 35.7638 31.1824 35.7837C31.1921 35.8812 31.2118 35.9773 31.2411 36.0707C31.2589 36.1613 31.2858 36.2499 31.3213 36.3351C31.3298 36.3536 31.3286 36.3754 31.3386 36.3939L43.3324 58.9474C43.3509 58.9818 43.3883 58.9962 43.4085 59.0276C43.507 59.184 43.6357 59.3191 43.7872 59.425C43.8356 59.4621 43.8863 59.496 43.939 59.5267C44.1359 59.6364 44.3564 59.6969 44.5818 59.7029H44.5917H79.9208L79.9352 59.7C80.1447 59.6952 80.3505 59.6437 80.5376 59.5493C80.555 59.5408 80.5749 59.5452 80.592 59.5364C80.6468 59.4978 80.6986 59.4552 80.7471 59.4089C80.8276 59.3547 80.9026 59.2927 80.9709 59.2238C81.0301 59.1527 81.0819 59.0759 81.1257 58.9944C81.1737 58.9208 81.215 58.843 81.2491 58.762C81.2803 58.6637 81.3 58.5621 81.3078 58.4592C81.3246 58.3995 81.3371 58.3386 81.3452 58.2771C81.3452 58.2556 81.3337 58.2383 81.3337 58.2183C81.3247 58.1211 81.3059 58.025 81.2776 57.9316ZM69.109 56.8503L64.6281 48.4265H73.0676L77.547 56.8503H69.109ZM57.1152 56.8503L52.6343 48.4265H61.3981L65.8775 56.8503H57.1152ZM45.4483 56.8503L40.9675 48.4265H49.4043L53.8836 56.8503H45.4483ZM43.4059 37.1497L47.8867 45.5736H39.4508L34.9714 37.1497H43.4059ZM55.3997 37.1497L59.8806 45.5736H51.1168L46.6374 37.1497H55.3997ZM67.0692 37.1497L71.5501 45.5736H63.1106L58.6327 37.1497H67.0692Z" fill="#D98029"/>
<path d="M75.0357 28.9109C74.9972 28.8557 74.9545 28.8034 74.9082 28.7546C74.8555 28.6746 74.795 28.6001 74.7275 28.5322C74.5832 28.4247 74.4289 28.331 74.2669 28.2526C74.1671 28.2211 74.0642 28.2004 73.96 28.1909C73.8997 28.1741 73.8384 28.1616 73.7764 28.1536H19.2032L19.1823 28.158L19.1679 28.1536C19.145 28.1551 19.1262 28.1724 19.1033 28.1739C18.8946 28.1896 18.6921 28.2524 18.5111 28.3574C18.4589 28.3883 18.4086 28.4222 18.3604 28.4591C18.1974 28.58 18.0624 28.7346 17.9644 28.9123C17.9515 28.9353 17.9257 28.9455 17.9142 28.9711L1.40546 63.8098C1.30223 64.0271 1.25569 64.267 1.27016 64.5072C1.28463 64.7473 1.35966 64.9799 1.48824 65.1832C1.61682 65.3865 1.79478 65.554 2.00554 65.67C2.21629 65.786 2.45298 65.8468 2.69356 65.8467H8.00397C8.27456 65.847 8.53964 65.7703 8.76825 65.6255C8.99685 65.4807 9.17955 65.2739 9.295 65.0292L19.2663 43.8384L30.3222 65.0794C30.4426 65.3108 30.6242 65.5048 30.8473 65.6401C31.0703 65.7754 31.3262 65.8468 31.5871 65.8467H92.3052C92.5513 65.8466 92.7932 65.7829 93.0074 65.6617C93.2215 65.5405 93.4007 65.3659 93.5275 65.155C93.6542 64.9441 93.7242 64.7039 93.7307 64.4579C93.7372 64.2119 93.68 63.9684 93.5645 63.7511L75.0357 28.9109ZM32.4537 62.9935L20.4687 39.9635C20.3395 39.7335 20.152 39.5415 19.9251 39.4068C19.6983 39.2722 19.44 39.1995 19.1762 39.1962C18.9102 39.2014 18.651 39.2809 18.4278 39.4256C18.2046 39.5703 18.0263 39.7745 17.913 40.0152L7.09746 62.9935H4.94897L19.2778 32.7578L35.3565 62.9935H32.4537ZM38.5895 62.9935L21.577 31.008H72.9186L89.93 62.9935H38.5895Z" fill="#D98029"/>
</svg>
