<svg width="95" height="94" viewBox="0 0 95 94" fill="none" xmlns="http://www.w3.org/2000/svg">
<path d="M47.5005 49.8822C47.5757 49.8743 47.6501 49.86 47.7229 49.8393C49.2161 50.2363 50.7547 50.4373 52.2998 50.4374C55.0557 50.4425 57.7757 49.8124 60.2488 48.5962C62.7218 47.3799 64.8813 45.6101 66.5596 43.4242C68.2379 41.2382 69.39 38.6949 69.9263 35.9917C70.4626 33.2885 70.3688 30.498 69.6522 27.8369C69.5875 27.595 69.46 27.3745 69.2827 27.1977C69.1055 27.0208 68.8846 26.894 68.6426 26.8299C64.5884 25.7633 60.2888 26.1495 56.4895 27.9215C58.0803 23.7207 58.1214 19.0904 56.6053 14.8621C55.0893 10.6338 52.1154 7.08445 48.2178 4.85152C48.0012 4.72603 47.7553 4.65994 47.5049 4.65994C47.2545 4.65994 47.0086 4.72603 46.792 4.85152C42.8896 7.07577 39.9084 10.6188 38.384 14.844C36.8597 19.0692 36.8922 23.6996 38.4756 27.903C34.6838 26.1469 30.3986 25.7671 26.357 26.8287C26.1149 26.8928 25.894 27.0196 25.7166 27.1964C25.5393 27.3732 25.4118 27.5938 25.3471 27.8357C24.5319 30.8751 24.5301 34.0753 25.3418 37.1156C26.1535 40.1559 27.7502 42.9294 29.9718 45.158C32.1933 47.3866 34.9617 48.9921 37.9994 49.8134C41.0371 50.6347 44.2374 50.6431 47.2793 49.8376C47.3517 49.8586 47.4257 49.8735 47.5005 49.8822ZM67.0936 29.3929C67.579 31.6983 67.5176 34.0853 66.9142 36.3627C66.3107 38.6401 65.1821 40.7444 63.6188 42.507C62.0556 44.2696 60.1011 45.6414 57.912 46.5124C55.723 47.3834 53.3603 47.7295 51.0135 47.5228L61.5629 36.9534C61.8304 36.6856 61.9805 36.3225 61.9802 35.944C61.98 35.5655 61.8294 35.2026 61.5616 34.9352C61.2938 34.6677 60.9307 34.5176 60.5522 34.5179C60.1737 34.5181 59.8108 34.6687 59.5434 34.9365L48.9925 45.5077C48.7815 43.1611 49.1233 40.7977 49.9904 38.607C50.8574 36.4163 52.2257 34.4591 53.9854 32.8925C55.7451 31.3259 57.8475 30.1933 60.1238 29.5855C62.4001 28.9778 64.7872 28.9118 67.0936 29.3929ZM47.5005 7.75906C49.637 9.14535 51.4154 11.0172 52.6907 13.2218C53.9659 15.4263 54.7018 17.9012 54.8383 20.4444C54.9748 22.9876 54.508 25.527 53.4761 27.8554C52.4442 30.1838 50.8763 32.2353 48.9005 33.8423V17.4951C48.8951 17.1205 48.7426 16.7631 48.4758 16.5001C48.209 16.2371 47.8494 16.0897 47.4748 16.0897C47.1002 16.0897 46.7406 16.2371 46.4738 16.5001C46.207 16.7631 46.0545 17.1205 46.0491 17.4951V33.8367C44.077 32.2258 42.5137 30.1714 41.4867 27.8412C40.4597 25.511 39.9981 22.9711 40.1396 20.4286C40.2811 17.8861 41.0217 15.413 42.3009 13.2112C43.5802 11.0094 45.3618 9.14122 47.5005 7.75906ZM32.0081 43.1697C30.2366 41.3929 28.9343 39.2038 28.2183 36.799C27.5022 34.3943 27.3949 31.8493 27.9059 29.3929C30.3579 28.8865 32.8972 28.9962 35.2964 29.7122C37.6956 30.4281 39.8798 31.7278 41.6534 33.4951C43.1444 34.9948 44.3044 36.7904 45.0585 38.7661C45.8127 40.7418 46.1442 42.8537 46.0318 44.9654L36.0202 34.9365C35.7527 34.6687 35.3898 34.5181 35.0113 34.5179C34.6328 34.5176 34.2698 34.6677 34.002 34.9352C33.7341 35.2026 33.5836 35.5655 33.5833 35.944C33.5831 36.3225 33.7332 36.6856 34.0006 36.9534L44.4828 47.4526C42.215 47.7285 39.9141 47.4864 37.7534 46.7445C35.5926 46.0027 33.6283 44.7804 32.0081 43.1697Z" fill="#D98029"/>
<path d="M26.4379 89.3368H44.8919C45.0792 89.3371 45.2647 89.3004 45.4378 89.2288C45.6109 89.1573 45.7682 89.0523 45.9006 88.9199C46.0331 88.7875 46.1381 88.6302 46.2097 88.4571C46.2813 88.284 46.318 88.0985 46.3178 87.9112V80.1286C46.3275 76.3652 45.5946 72.6368 44.1612 69.157C42.7277 65.6773 40.6218 62.5145 37.9641 59.8499L27.7763 49.5865C27.0379 48.8424 26.0874 48.3447 25.0551 48.1619C24.0229 47.979 22.9593 48.1199 22.0102 48.5652V29.5314C22.0154 28.8328 21.8824 28.1401 21.6186 27.4933C21.3549 26.8464 20.9658 26.2581 20.4737 25.7623C19.9815 25.2665 19.3962 24.873 18.7513 24.6044C18.1064 24.3359 17.4147 24.1977 16.7161 24.1977C16.0176 24.1977 15.3259 24.3359 14.681 24.6044C14.0361 24.873 13.4507 25.2665 12.9586 25.7623C12.4665 26.2581 12.0774 26.8464 11.8136 27.4933C11.5499 28.1401 11.4168 28.8328 11.422 29.5314V51.4175C11.4247 54.409 12.161 57.3542 13.5664 59.995L25.0109 81.3997V87.9101C25.0105 88.0976 25.0472 88.2833 25.1187 88.4566C25.1903 88.6299 25.2954 88.7873 25.428 88.9199C25.5606 89.0525 25.7181 89.1575 25.8914 89.2291C26.0647 89.3006 26.2504 89.3372 26.4379 89.3368ZM16.0865 58.6508C14.8989 56.4246 14.2763 53.9407 14.2735 51.4175V29.5314C14.2805 28.8882 14.541 28.2737 14.9983 27.8214C15.4556 27.369 16.0729 27.1153 16.7161 27.1153C17.3594 27.1153 17.9766 27.369 18.434 27.8214C18.8913 28.2737 19.1518 28.8882 19.1588 29.5314V52.2697C19.0123 53.0819 19.0668 53.9177 19.3178 54.704C19.5687 55.4903 20.0083 56.2032 20.5982 56.7805L30.5669 66.6258C30.6987 66.7629 30.8567 66.8721 31.0314 66.9472C31.2062 67.0222 31.3942 67.0616 31.5844 67.0628C31.7746 67.0641 31.9631 67.0272 32.1388 66.9545C32.3145 66.8818 32.4739 66.7746 32.6075 66.6393C32.7412 66.504 32.8464 66.3433 32.917 66.1667C32.9876 65.9901 33.0221 65.8012 33.0185 65.611C33.0149 65.4209 32.9733 65.2333 32.8961 65.0595C32.8189 64.8857 32.7077 64.7291 32.5691 64.5989L22.6039 54.7495C22.2956 54.445 22.0828 54.0572 21.9915 53.6335C21.9002 53.2099 21.9344 52.7689 22.09 52.3644C22.2456 51.9599 22.5157 51.6096 22.8673 51.3563C23.219 51.1031 23.6368 50.9578 24.0697 50.9384C24.3801 50.9251 24.6898 50.9766 24.9792 51.0894C25.2687 51.2023 25.5314 51.3741 25.7509 51.594L35.9375 61.8594C38.3321 64.2599 40.2296 67.1092 41.5212 70.2441C42.8129 73.3791 43.4734 76.738 43.4649 80.1286V86.4854H27.8623V81.0437C27.8622 80.8092 27.805 80.5784 27.6958 80.371L16.0865 58.6508Z" fill="#D98029"/>
<path d="M50.11 89.3368H68.5601C68.7474 89.3371 68.9329 89.3004 69.106 89.2288C69.2791 89.1573 69.4364 89.0523 69.5688 88.9199C69.7013 88.7875 69.8063 88.6302 69.8779 88.4571C69.9495 88.284 69.9862 88.0985 69.986 87.9112V81.3997L81.429 59.995C82.8342 57.3541 83.5705 54.409 83.5734 51.4175V29.5314C83.5786 28.8328 83.4455 28.1401 83.1818 27.4933C82.918 26.8464 82.5289 26.2581 82.0368 25.7623C81.5447 25.2665 80.9593 24.873 80.3144 24.6044C79.6695 24.3359 78.9778 24.1977 78.2793 24.1977C77.5807 24.1977 76.889 24.3359 76.2441 24.6044C75.5992 24.873 75.0139 25.2665 74.5217 25.7623C74.0296 26.2581 73.6405 26.8464 73.3768 27.4933C73.113 28.1401 72.9799 28.8328 72.9851 29.5314V48.5646C72.3783 48.2801 71.7212 48.1183 71.0517 48.0884C70.3444 48.0633 69.6395 48.1832 68.9804 48.4409C68.3212 48.6985 67.7218 49.0884 67.2191 49.5865L57.0354 59.8505C54.3773 62.5148 52.2711 65.6775 50.8376 69.1573C49.4041 72.6372 48.6715 76.3657 48.6817 80.1292V87.9118C48.6816 88.0993 48.7184 88.2849 48.7902 88.4581C48.862 88.6312 48.9672 88.7885 49.0999 88.9209C49.2326 89.0533 49.3901 89.1582 49.5635 89.2296C49.7368 89.3009 49.9225 89.3374 50.11 89.3368ZM51.5355 80.1286C51.5267 76.738 52.1871 73.3789 53.4788 70.244C54.7705 67.109 56.6681 64.2597 59.0629 61.8594L69.2466 51.594C69.4538 51.3872 69.6997 51.2232 69.9703 51.1114C70.2408 50.9996 70.5308 50.9422 70.8235 50.9425C71.1163 50.9428 71.4061 51.0007 71.6765 51.1129C71.9468 51.2252 72.1924 51.3896 72.3993 51.5968C72.6061 51.804 72.7701 52.0499 72.8819 52.3205C72.9937 52.5911 73.0511 52.881 73.0508 53.1737C73.0506 53.4665 72.9926 53.7563 72.8804 54.0267C72.7681 54.2971 72.6037 54.5427 72.3965 54.7495L62.4278 64.5972C62.2898 64.7275 62.1792 64.8841 62.1026 65.0578C62.026 65.2315 61.9848 65.4187 61.9815 65.6085C61.9782 65.7983 62.0129 65.9868 62.0835 66.163C62.1541 66.3392 62.2592 66.4995 62.3926 66.6346C62.526 66.7696 62.6851 66.8766 62.8604 66.9493C63.0357 67.0221 63.2238 67.059 63.4136 67.058C63.6035 67.057 63.7912 67.0182 63.9658 66.9436C64.1403 66.8691 64.2983 66.7605 64.4303 66.6241L74.4016 56.7787C74.9908 56.2007 75.4297 55.4874 75.6802 54.7009C75.9307 53.9145 75.9852 53.0787 75.8389 52.2664V29.5302C75.846 28.887 76.1064 28.2725 76.5638 27.8202C77.0211 27.3678 77.6384 27.1141 78.2816 27.1141C78.9248 27.1141 79.5421 27.3678 79.9995 27.8202C80.4568 28.2725 80.7172 28.887 80.7243 29.5302V51.4163C80.7215 53.9395 80.0989 56.4234 78.9113 58.6496L67.3017 80.3716C67.1925 80.579 67.1355 80.8098 67.1354 81.0442V86.486H51.5355V80.1286Z" fill="#D98029"/>
</svg>
