<svg width="95" height="94" viewBox="0 0 95 94" fill="none" xmlns="http://www.w3.org/2000/svg">
<path d="M24.6609 46.4303V61.228C24.6609 61.9807 25.2852 62.605 26.0379 62.605H30.6461C31.3988 65.469 33.9875 67.5803 37.0719 67.5803C40.1562 67.5803 42.7633 65.469 43.4977 62.605H61.2512C62.0039 65.469 64.5926 67.5803 67.677 67.5803C70.7613 67.5803 73.3684 65.469 74.1027 62.605H77.5176C78.2703 62.605 78.8945 61.9807 78.8945 61.228V48.2479C78.8945 47.9542 78.8027 47.6788 78.6375 47.4585L73.8641 40.7206C73.607 40.3534 73.1848 40.1331 72.7441 40.1331H62.7934V35.8003C62.7934 35.0475 62.1691 34.4233 61.4164 34.4233H36.0438C35.0891 29.8518 31.0316 26.4003 26.1848 26.4003C20.6219 26.4003 16.1055 30.9167 16.1055 36.4796C16.1055 41.51 19.8324 45.696 24.6609 46.4303ZM37.0719 64.8264C34.9238 64.8264 33.1797 63.0823 33.1797 60.9342C33.1797 58.7862 34.9238 57.0421 37.0719 57.0421C39.2199 57.0421 40.9641 58.7862 40.9641 60.9342C40.9641 63.0823 39.2016 64.8264 37.0719 64.8264ZM67.677 64.8264C65.5289 64.8264 63.7848 63.0823 63.7848 60.9342C63.7848 58.7862 65.5289 57.0421 67.677 57.0421C69.825 57.0421 71.5691 58.7862 71.5691 60.9342C71.5691 63.0823 69.825 64.8264 67.677 64.8264ZM76.1406 48.7069V48.9272H68.65V42.9053H72.0281L76.1406 48.7069ZM65.8961 42.9053V50.3042C65.8961 51.0569 66.5203 51.6811 67.273 51.6811H76.1406V59.851H74.2313C73.7172 56.6932 70.9633 54.2882 67.677 54.2882C65.7492 54.2882 64.0051 55.1143 62.7934 56.4362V42.9053H65.8961ZM60.0395 59.8694H43.6262C43.1121 56.7116 40.3582 54.3065 37.0719 54.3065C33.7855 54.3065 31.0316 56.7116 30.5176 59.8694H27.4148V46.4854C32.1699 45.8979 35.8969 42.0057 36.2273 37.1956H60.0395V59.8694ZM26.1848 29.1725C30.2238 29.1725 33.5102 32.4589 33.5102 36.4979C33.5102 40.537 30.2238 43.8233 26.1848 43.8233C22.1457 43.8233 18.8594 40.537 18.8594 36.4979C18.8594 32.4589 22.1457 29.1725 26.1848 29.1725Z" fill="#D98029"/>
<path d="M24.3493 39.6194C24.6063 39.8765 24.9552 40.0233 25.3224 40.0233C25.6895 40.0233 26.0384 39.8765 26.2954 39.6194L30.6099 35.305C31.1423 34.7726 31.1423 33.8913 30.6099 33.3589C30.0774 32.8265 29.1962 32.8265 28.6638 33.3589L25.3224 36.7003L23.7067 35.0847C23.1743 34.5522 22.2931 34.5522 21.7606 35.0847C21.2282 35.6171 21.2282 36.4983 21.7606 37.0308L24.3493 39.6194Z" fill="#D98029"/>
</svg>
